<svg width="314" height="82" viewBox="0 0 314 82" fill="none" xmlns="http://www.w3.org/2000/svg">
<g clip-path="url(#clip0)">
<path d="M73.8918 61.2463C79.1587 61.2463 83.4298 65.4871 83.4298 70.7167C83.4298 75.9463 79.1612 80.1871 73.8918 80.1871H69.0213V61.2488H73.8918V61.2463Z" fill="#3C3C3B"/>
<path d="M69.0213 80.1847C74.2889 80.1847 78.5592 75.9446 78.5592 70.7143C78.5592 65.4839 74.2889 61.2439 69.0213 61.2439C63.7536 61.2439 59.4834 65.4839 59.4834 70.7143C59.4834 75.9446 63.7536 80.1847 69.0213 80.1847Z" fill="#3C3C3B"/>
<path d="M69.0213 76.7753C72.3926 76.7753 75.1256 74.0617 75.1256 70.7142C75.1256 67.3668 72.3926 64.6532 69.0213 64.6532C65.65 64.6532 62.9171 67.3668 62.9171 70.7142C62.9171 74.0617 65.65 76.7753 69.0213 76.7753Z" fill="#575756"/>
<path d="M58.2523 61.2463C63.5193 61.2463 67.7903 65.4871 67.7903 70.7167C67.7903 75.9463 63.5217 80.1871 58.2523 80.1871H53.3818V61.2488H58.2523V61.2463Z" fill="#3C3C3B"/>
<path d="M145.463 61.2463C150.73 61.2463 155.001 65.4871 155.001 70.7167C155.001 75.9463 150.733 80.1871 145.463 80.1871H140.593V61.2488H145.463V61.2463Z" fill="#3C3C3B"/>
<path d="M140.593 80.1847C145.861 80.1847 150.131 75.9446 150.131 70.7143C150.131 65.4839 145.861 61.2439 140.593 61.2439C135.325 61.2439 131.055 65.4839 131.055 70.7143C131.055 75.9446 135.325 80.1847 140.593 80.1847Z" fill="#3C3C3B"/>
<path d="M140.593 76.7753C143.964 76.7753 146.697 74.0617 146.697 70.7142C146.697 67.3668 143.964 64.6532 140.593 64.6532C137.222 64.6532 134.489 67.3668 134.489 70.7142C134.489 74.0617 137.222 76.7753 140.593 76.7753Z" fill="#575756"/>
<path d="M129.821 61.2463C135.088 61.2463 139.359 65.4871 139.359 70.7167C139.359 75.9463 135.091 80.1871 129.821 80.1871H124.951V61.2488H129.821V61.2463Z" fill="#3C3C3B"/>
<path d="M156.941 69.0243L163.596 68.5594C165.476 68.4291 166.933 66.8769 166.933 65.0074V39.4645L163.947 5.74748C163.71 3.05149 161.438 0.985229 158.713 0.985229H102.171V69.0243H156.941Z" fill="url(#paint0_linear)"/>
<path d="M144.833 0.985229H58.694C56.2835 0.985229 54.1381 2.50295 53.3527 4.766L39.9575 43.3609C39.4769 44.7482 38.7263 46.0273 37.7502 47.1269L35.7534 49.3752C34.8442 50.4009 34.3413 51.7194 34.3413 53.0846V67.9371C34.3413 69.4253 35.5552 70.6306 37.054 70.6306H113.362L143.089 68.557C144.969 68.4266 146.426 66.8744 146.426 65.005V39.4645L147.521 5.78437C147.602 3.15973 146.906 0.985229 144.833 0.985229Z" fill="url(#paint1_linear)"/>
<path d="M136.548 69.017V67.5804C136.548 61.2217 131.357 56.0684 124.953 56.0684C118.549 56.0684 113.359 61.2217 113.359 67.5804V70.6355L136.548 69.017Z" fill="#1E2859"/>
<path d="M136.548 67.578V69.0145L124.953 69.8238V61.2439H129.824C132.044 61.2439 134.085 61.9941 135.705 63.2585C135.74 63.3421 135.772 63.4258 135.804 63.5094C135.869 63.6791 135.928 63.8489 135.985 64.0211C136.04 64.1883 136.089 64.3556 136.136 64.5253C136.141 64.5376 136.144 64.5499 136.146 64.5622C136.169 64.6434 136.191 64.7246 136.211 64.8057C136.228 64.8795 136.245 64.9509 136.263 65.0247C136.27 65.0542 136.278 65.0837 136.283 65.1157C136.292 65.1624 136.302 65.2092 136.312 65.2559C136.322 65.3026 136.332 65.3494 136.342 65.3961C136.352 65.4428 136.359 65.4896 136.369 65.5388C136.379 65.5904 136.387 65.6445 136.397 65.6962C136.404 65.738 136.409 65.7798 136.416 65.8217C136.424 65.8708 136.431 65.92 136.439 65.9692C136.446 66.016 136.451 66.0627 136.456 66.1095C136.468 66.2078 136.481 66.3062 136.491 66.4071C136.496 66.4538 136.501 66.4981 136.503 66.5448C136.506 66.5793 136.511 66.6137 136.513 66.6506C136.515 66.6752 136.515 66.6998 136.518 66.7244C136.525 66.8105 136.53 66.8966 136.533 66.9852C136.535 67.0344 136.538 67.0836 136.54 67.1327C136.54 67.1377 136.54 67.1426 136.54 67.15C136.543 67.2361 136.545 67.3222 136.548 67.4082C136.545 67.4673 136.548 67.5239 136.548 67.578Z" fill="#3C3C3B"/>
<path d="M124.951 80.1847C130.218 80.1847 134.489 75.9446 134.489 70.7143C134.489 65.4839 130.218 61.2439 124.951 61.2439C119.683 61.2439 115.413 65.4839 115.413 70.7143C115.413 75.9446 119.683 80.1847 124.951 80.1847Z" fill="#575756"/>
<path d="M124.951 76.7753C128.322 76.7753 131.055 74.0617 131.055 70.7142C131.055 67.3668 128.322 64.6532 124.951 64.6532C121.58 64.6532 118.847 67.3668 118.847 70.7142C118.847 74.0617 121.58 76.7753 124.951 76.7753Z" fill="#9D9D9C"/>
<path d="M127.5 67.3935C127.617 67.8707 127.661 68.3775 127.624 68.8989C127.451 71.2899 125.528 73.2283 123.123 73.43C122.63 73.4718 122.151 73.4398 121.696 73.3488C121.302 73.2676 121.032 73.7301 121.304 74.0252C122.211 75.0116 123.519 75.6291 124.973 75.6241C127.696 75.6143 129.92 73.3783 129.898 70.6749C129.886 69.199 129.219 67.8806 128.171 66.9876C127.864 66.7269 127.406 67.0073 127.5 67.3935Z" fill="#DADADA"/>
<path d="M64.9759 70.6331V67.578C64.9759 61.2193 59.7857 56.0659 53.3817 56.0659C46.9777 56.0659 41.7875 61.2193 41.7875 67.578V70.6331H64.9759Z" fill="#1E2859"/>
<path d="M64.976 67.578V70.6306H53.3818V61.2415H58.2523C60.4721 61.2415 62.5134 61.9942 64.1312 63.2561C64.6762 64.5917 64.976 66.0504 64.976 67.578Z" fill="#3C3C3B"/>
<path d="M53.3818 80.1847C58.6494 80.1847 62.9197 75.9446 62.9197 70.7143C62.9197 65.4839 58.6494 61.2439 53.3818 61.2439C48.1141 61.2439 43.8439 65.4839 43.8439 70.7143C43.8439 75.9446 48.1141 80.1847 53.3818 80.1847Z" fill="#575756"/>
<path d="M53.3816 76.7753C56.7529 76.7753 59.4858 74.0617 59.4858 70.7142C59.4858 67.3668 56.7529 64.6532 53.3816 64.6532C50.0103 64.6532 47.2773 67.3668 47.2773 70.7142C47.2773 74.0617 50.0103 76.7753 53.3816 76.7753Z" fill="#9D9D9C"/>
<path d="M55.9284 67.3935C56.0448 67.8707 56.0894 68.3775 56.0523 68.8989C55.8788 71.2899 53.9564 73.2283 51.5508 73.43C51.0578 73.4718 50.5797 73.4398 50.1239 73.3488C49.73 73.2676 49.4599 73.7301 49.7324 74.0252C50.6392 75.0116 51.9472 75.6291 53.4015 75.6241C56.1241 75.6143 58.3488 73.3783 58.3265 70.6749C58.3141 69.199 57.6477 67.8806 56.5998 66.9876C56.2926 66.7269 55.8342 67.0073 55.9284 67.3935Z" fill="#DADADA"/>
<path d="M72.7697 9.25769H72.4501V64.973H72.7697V9.25769Z" fill="#30358C"/>
<path d="M69.3609 45.004H62.9444V43.2944H69.3609V45.004ZM63.2615 44.6867H69.0413V43.6118H63.2615V44.6867Z" fill="#30358C"/>
<path d="M53.3817 53.9578H43.6134C42.9024 53.9578 42.3252 53.3847 42.3252 52.6787V44.8441H42.6447V52.6762C42.6447 53.2076 43.0808 53.6405 43.6159 53.6405H53.3842V53.9578H53.3817Z" fill="#30358C"/>
<path d="M107.406 65.1304H66.2641L66.2443 64.9976C65.2756 58.8086 59.6272 53.9578 53.3842 53.9578V53.6405C56.5379 53.6405 59.6346 54.836 62.1021 57.0056C64.4729 59.0915 66.0461 61.8588 66.5391 64.8131H107.408V65.1304H107.406Z" fill="#30358C"/>
<path d="M112.068 65.1304H107.406V64.8131H111.798C112.294 61.8588 113.867 59.0915 116.235 57.0056C118.703 54.836 121.799 53.6405 124.953 53.6405C126.915 53.6405 129.125 54.2825 131.171 55.4509C133.084 56.5407 134.637 57.9772 135.452 59.4014H146.422V59.7188H135.264L135.219 59.6376C134.444 58.2355 132.911 56.8112 131.013 55.7264C129.014 54.5875 126.861 53.9578 124.953 53.9578C118.708 53.9578 113.059 58.8062 112.093 64.9976L112.068 65.1304Z" fill="#30358C"/>
<path d="M164.572 9.09778V9.4151H51.7366L51.8481 9.09778H164.572Z" fill="#30358C"/>
<path d="M70.8125 34.4587V10.8271C70.8125 9.95876 70.104 9.25525 69.2295 9.25525H54.8805C54.1893 9.25525 53.5774 9.70048 53.3718 10.3548L43.2739 42.3352C42.9172 43.4691 43.9057 44.5711 45.0799 44.3473L65.8578 40.4042C68.734 39.863 70.8125 37.3638 70.8125 34.4587Z" fill="url(#paint2_linear)"/>
<path d="M69.2321 16.0198H63.9751C63.2319 16.0198 62.5903 16.5339 62.4292 17.2522L57.4447 39.7744C57.202 40.8764 58.1706 41.8653 59.2879 41.6537L65.8579 40.4066C68.7342 39.8605 70.8127 37.3638 70.8127 34.4563V17.5916C70.8127 16.7233 70.1067 16.0198 69.2321 16.0198Z" fill="#367AD1"/>
<path d="M43.1182 42.2895L42.3263 44.796L42.6312 44.891L43.4231 42.3845L43.1182 42.2895Z" fill="#30358C"/>
<path d="M44.7778 44.5391C44.2873 44.5391 43.8191 44.335 43.4846 43.9586C43.0734 43.5011 42.9371 42.8763 43.1229 42.2908L53.2208 10.3105C53.4487 9.58483 54.1176 9.09778 54.8831 9.09778V9.4151C54.2588 9.4151 53.7138 9.81359 53.5255 10.404L43.4277 42.3843C43.2765 42.864 43.388 43.3732 43.7225 43.7471C44.0594 44.121 44.5549 44.2882 45.0503 44.1947L65.8282 40.2516L65.8876 40.5616L45.1098 44.5047C45.0008 44.5293 44.8893 44.5391 44.7778 44.5391Z" fill="#30358C"/>
<path d="M49.8762 44.8442H47.9538C47.4063 44.8442 46.9653 44.4039 46.9653 43.8627V35.4402C46.9653 34.8966 47.4088 34.4587 47.9538 34.4587H49.8762C50.4237 34.4587 50.8647 34.8991 50.8647 35.4402V43.8627C50.8672 44.4039 50.4237 44.8442 49.8762 44.8442Z" fill="#C8E9F7"/>
<path d="M172.207 9.11011L169.93 39.4645C169.814 41.0044 169.757 42.5491 169.757 44.0915V63.3053H178.809V41.7743V9.11011H172.207Z" fill="#367AD1"/>
<path d="M169.957 9.11011L166.883 39.4645C166.767 41.0044 166.71 42.5491 166.71 44.0915V63.3053H175.185L176.312 41.7743L176.889 9.11011H169.957Z" fill="url(#paint3_linear)"/>
<path d="M165.679 39.4645V63.3053H147.674V39.4645L148.496 10.6352C148.521 9.78656 149.222 9.11011 150.077 9.11011H161.857C162.684 9.11011 163.37 9.74229 163.435 10.559L165.679 39.4645Z" fill="url(#paint4_linear)"/>
<path d="M141.146 9.11011L143.422 39.4645C143.539 41.0044 143.596 42.5491 143.596 44.0915V63.3053H134.543V41.7743V9.11011H141.146Z" fill="url(#paint5_linear)"/>
<path d="M142.268 9.11011L145.342 39.4645C145.459 41.0044 145.516 42.5491 145.516 44.0915V63.3053H137.041V41.7743L136.463 9.11011H142.268Z" fill="url(#paint6_linear)"/>
<path d="M37.1348 63.2413H34.3379V66.0677H37.1348V63.2413Z" fill="white"/>
<path d="M37.633 50.1919L37.3902 51.3013C37.2193 52.0811 37.1326 52.878 37.1326 53.6775V58.885C37.1326 59.2564 36.8279 59.559 36.4538 59.559H34.3356V53.0871C34.3356 51.7219 34.8385 50.4034 35.7477 49.3777H36.9666C37.4026 49.3777 37.7247 49.7737 37.633 50.1919Z" fill="#C8E9F7"/>
<path d="M45.221 59.4015H34.3379V59.7188H44.9113C45.0129 59.6106 45.1169 59.5048 45.221 59.4015Z" fill="#30358C"/>
<g style="mix-blend-mode:multiply">
<path d="M174.025 79.3483V79.3458C168.506 79.3483 162.89 79.3483 157.189 79.3483C151.491 79.3483 145.872 79.3458 140.353 79.3458V79.3483C62.2929 79.3384 0.690308 79.2253 0.690308 80.1797C0.690308 81.1784 68.0801 81.9852 151.211 81.9852C153.213 81.9852 155.205 81.9852 157.189 81.9828C159.171 81.9828 161.165 81.9852 163.167 81.9852C246.298 81.9852 313.688 81.1759 313.688 80.1797C313.69 79.2253 252.088 79.3384 174.025 79.3483Z" fill="#D1CDCA"/>
</g>
<path d="M239.54 52.4523C239.877 52.1055 239.857 51.4881 239.312 50.7329C238.953 50.236 235.819 46.438 234.553 44.8146C233.872 43.9389 233.356 42.2883 233.359 41.1543C233.361 39.5111 233.45 34.6431 233.458 32.2325C233.465 30.2818 233.567 28.3607 231.791 27.3669C231.02 26.9365 229.834 27.6523 229.385 28.4394C228.979 29.1528 228.731 30.1785 228.731 31.0001C228.734 33.1279 229.794 39.7522 230.089 41.9439C230.341 43.8306 231.327 45.523 232.653 46.9054C234.419 48.7503 236.386 50.7157 238.17 52.3958C238.675 52.8656 239.275 52.7278 239.54 52.4523Z" fill="#7FD9EB"/>
<path d="M236.805 49.9778C236.01 49.1439 234.565 47.4737 233.787 46.5389C232.799 45.3558 232.009 44.4382 231.761 42.923C231.508 41.361 231.342 37.0341 231.327 36.2568C231.315 35.605 231.221 33.6002 230.51 33.4969C229.759 33.3887 229.313 34.0553 229.066 34.6259C229.402 37.3195 229.905 40.5394 230.094 41.944C230.346 43.8307 231.332 45.523 232.658 46.9055C234.427 48.7503 236.391 50.7157 238.175 52.3958C238.338 52.5508 238.514 52.6393 238.683 52.6787C238.727 52.6393 238.759 52.5803 238.774 52.5016C238.866 52.0662 237.491 50.6961 236.805 49.9778Z" fill="#37C0DB"/>
<path d="M217.652 43.8774C218.299 43.9315 227.44 44.7875 228.624 44.7359C228.902 44.7236 229.365 44.5711 229.484 44.1603C229.66 43.5576 229.4 40.596 229.695 38.9011C229.992 37.194 231.909 31.5979 232.279 29.5119C232.464 28.4591 232.487 27.795 231.682 27.3694C230.891 26.9512 228.518 26.26 227.671 26.0878C225.969 25.7435 224.044 25.5639 222.307 25.6598C221.512 25.7041 220.184 25.8492 219.582 26.4273C219.082 26.907 218.693 27.6572 218.465 28.3263C217.875 30.0629 217.992 34.4587 217.927 36.033C217.865 37.5433 217.617 38.451 217.355 39.5874C217.09 40.7362 216.904 41.4864 216.626 42.5933C216.413 43.4322 216.679 43.7962 217.652 43.8774Z" fill="#7FD9EB"/>
<path d="M221.591 40.1187C220.863 39.4348 219.592 39.9539 219.29 39.1028C218.982 38.2344 219.627 36.6946 220.008 35.6615C220.308 34.8472 221.487 32.7146 220.169 32.8523C219.612 32.9089 218.717 33.0393 217.972 33.2877C217.949 34.4119 217.952 35.4278 217.927 36.0304C217.865 37.5408 217.615 38.4509 217.355 39.5849C217.09 40.7336 216.904 41.4839 216.624 42.5908C216.411 43.4321 216.678 43.7961 217.652 43.8773C217.885 43.897 219.223 44.02 220.893 44.1676C221.145 43.9954 221.353 43.7715 221.529 43.501C222.505 42.0177 222.307 40.7927 221.591 40.1187Z" fill="#37C0DB"/>
<path d="M237.632 79.3925C237.627 80.155 237.719 80.5289 238.688 80.5584C239.21 80.5732 239.956 80.433 240.39 80.4379C241.21 80.4477 242.788 80.7601 244.054 80.6421C245.037 80.5511 246.529 80.4158 246.264 79.7196C246.031 79.1047 244.606 79.0801 244.002 78.9153C243.182 78.6914 242.354 78.4454 241.646 77.983C240.851 77.464 240.479 77.036 240.095 76.3275C239.525 75.2796 239.367 74.3941 238.504 74.3769C237.566 74.3572 237.305 75.0386 237.702 77.3803C237.813 78.0248 237.635 78.8907 237.632 79.3925Z" fill="#1E2859"/>
<path d="M200.216 78.3176C200.588 78.6694 201.733 79.2745 202.322 78.999C202.912 78.7235 201.975 76.9967 202.012 76.2907C202.06 75.4027 202.699 73.1962 203.224 72.655C203.697 72.168 204.193 71.8581 204.673 71.43C205.092 71.0562 205.226 70.4363 204.963 70.1214C204.549 69.6196 203.977 69.3835 203.202 69.8877C202.946 70.0525 202.139 70.5027 201.604 70.7979C201.128 71.0611 200.63 71.0611 199.969 71.3538C199.287 71.6564 199.391 72.4238 199.431 72.6698C199.528 73.2749 199.607 74.1555 199.619 74.677C199.639 75.5158 199.431 75.9906 199.495 76.822C199.535 77.3164 199.795 77.9216 200.216 78.3176Z" fill="#1E2859"/>
<path d="M202.434 69.3909C203.368 68.6701 212.031 61.7555 212.64 61.116C213.361 60.3608 214.144 58.9144 214.298 57.8542C214.647 55.4337 214.714 50.2976 214.855 46.8907C214.9 45.8182 215.499 44.7507 216.733 44.057C217.543 43.6019 218.633 43.383 219.376 42.8172C220.073 42.2859 220.672 41.2847 220.88 40.4705C221.309 38.7929 222.059 35.2754 222.24 33.4403C222.377 32.0702 222.488 29.8367 221.807 28.0533C221.47 27.1751 220.662 26.324 220.402 26.0633C220.229 25.8911 220.192 25.8148 220.345 25.7779C220.573 25.7214 220.989 25.6648 221.207 25.6353C221.45 25.6033 221.619 25.6992 221.797 25.8665C222.28 26.3216 222.984 27.3793 223.266 28.405C223.635 29.7481 223.756 31.2904 223.623 33.0492C224.854 33.1304 227.074 33.3026 228.275 33.401C228.999 30.7517 229.388 28.3632 229.123 26.693C229.08 26.4322 229.056 26.3166 229.209 26.3708C229.402 26.4396 229.834 26.5675 230.096 26.6536C230.322 26.7274 230.383 27.062 230.411 27.1604C230.77 28.4272 229.952 32.3826 229.472 33.9594C229.472 33.9594 228.659 39.0488 228.6 40.1286C228.545 41.1003 228.411 42.0744 228.711 43.0386C228.843 43.4592 229.239 44.1308 229.521 44.421C230.024 44.9351 230.545 45.0631 230.599 45.6559C230.639 46.0937 230.715 47.9214 230.718 48.7651C231.498 51.4267 234.493 56.9687 235.309 58.5454C236.49 60.838 236.83 63.1871 237.181 64.5278C237.855 67.0983 238.636 70.087 239.498 73.73C239.614 74.2171 239.82 75.3978 239.632 75.7815C239.386 76.2833 238.888 76.6179 238.43 76.8294C237.632 77.1984 236.597 77.373 236.121 76.5859C235.906 76.2292 235.227 74.3228 235.038 73.8407C233.978 71.1152 233.208 69.3466 232.108 66.5719C231.474 64.9705 230.138 62.9018 228.964 61.0668C227.886 59.3818 225.05 55.2886 224.482 54.4572C223.821 53.488 222.711 53.3945 222.109 54.7327C221.539 55.9995 219.872 60.7494 219.272 61.9867C218.685 63.1994 217.647 64.6065 216.374 65.5314C214.766 66.6998 206.336 72.4484 204.983 73.0536C204.252 73.3807 203.873 73.0044 203.573 72.8125C203.224 72.5911 202.882 72.1385 202.558 71.5653C202.392 71.2726 202.114 70.7044 202.069 70.2789C202.008 69.7844 202.255 69.5286 202.434 69.3909Z" fill="#3448AD"/>
<path d="M222.225 54.5014C222.845 53.4142 223.858 53.5544 224.48 54.4621C225.047 55.2935 227.886 59.3891 228.961 61.0717C230.136 62.9067 231.471 64.9754 232.105 66.5768C232.764 68.2372 233.304 69.5384 233.859 70.8962C233.911 70.8052 233.953 70.6798 233.953 70.5174C233.953 69.8828 233.349 68.7832 233.074 67.6419C232.851 66.7121 232.71 65.0861 232.179 63.9201C231.919 63.347 230.772 62.3483 230.339 61.3398C229.843 60.1886 229.833 58.8922 229.155 57.8197C228.756 57.1876 227.78 56.7571 227.368 55.965C226.732 54.74 226.821 52.4278 225.993 51.6062C225.587 51.6726 223.982 51.9924 223.692 52.0539C223.41 52.1154 223.214 52.3442 223.127 52.5237C222.79 53.2149 222.637 53.6479 222.292 54.2874C222.26 54.3489 222.235 54.435 222.225 54.5014Z" fill="#1F367A"/>
<path d="M212.058 40.3967C212.836 37.991 215.636 30.1515 216.324 28.4616C216.726 27.4777 217.714 26.4593 218.829 26.201C219.394 26.0706 219.84 25.9624 220.102 25.9206C220.152 25.9132 220.157 25.9354 220.194 25.9772C220.729 26.5749 221.581 27.394 221.581 28.3534C221.581 29.3471 221.388 30.6435 220.692 32.0431C219.676 34.0848 217.645 38.0009 217.043 39.157C216.176 40.8174 216.607 41.3389 218.046 42.0719C219.701 42.9132 226.016 45.8379 226.588 46.0224C227.235 46.2315 227.455 46.8243 227.297 47.3999C227.165 47.8771 226.516 48.1059 225.889 47.9755C223.092 47.3974 216.186 45.3878 213.815 44.5662C211.706 43.8356 211.35 42.5909 212.058 40.3967Z" fill="#7FD9EB"/>
<path d="M229.395 18.3566C229.123 17.2644 227.763 16.647 226.479 16.5658C225.159 16.4822 223.952 17.1906 223.494 18.1327C223.058 19.0305 222.932 20.5138 224.061 22.7547C224.331 23.291 224.175 23.5394 224.143 24.1249C224.136 24.2577 224.133 24.3586 224.131 24.4446C224.079 24.6808 224.027 24.9071 223.967 25.1531C223.823 25.7287 223.368 25.6327 223.254 25.923C222.825 27.0152 224.968 28.7887 226.779 28.8625C228.466 28.9314 228.417 27.0103 228.312 26.5699C228.231 26.2207 227.914 26.1641 227.74 26.0534C227.453 25.8714 227.418 25.709 227.426 25.3695C227.428 25.3007 227.435 25.2269 227.443 25.1432C227.483 24.7693 227.535 23.8223 227.78 23.6231C227.988 23.4509 228.092 23.3918 228.325 23.2172C228.535 23.0573 228.86 22.4719 228.952 22.098C229.08 21.5617 229.053 20.6171 229.1 20.076C229.162 19.3971 229.566 19.0355 229.395 18.3566Z" fill="#FEC1B5"/>
<path d="M225.674 22.3268C225.592 22.2259 225.121 21.5396 225.062 21.6257C224.96 21.7733 225.22 22.6859 225.461 23.0623C225.681 23.4091 226.385 24.1913 227.093 24.2922C227.319 24.3242 227.457 24.3291 227.542 24.3143C227.584 24.0044 227.656 23.724 227.784 23.6207C227.995 23.4534 228.099 23.3894 228.33 23.2123C228.399 23.1607 228.453 23.0967 228.503 23.0254C227.651 23.3083 226.39 23.2148 225.674 22.3268Z" fill="#E8988C"/>
<path d="M229.398 18.3565C229.358 18.1991 229.298 18.054 229.217 17.9162C229.128 17.84 229.023 17.7735 228.905 17.717C227.832 17.2176 225.952 17.4513 225.206 18.4106C224.752 18.9936 225.496 19.1141 226.023 19.1289C226.675 19.1486 227.569 19.0822 228.208 19.2421C228.478 19.3085 228.729 19.3995 228.902 19.6258C229.063 19.8373 229.026 20.1128 229.088 20.3367C229.093 20.2408 229.098 20.1522 229.105 20.071C229.162 19.397 229.566 19.0354 229.398 18.3565Z" fill="#E8988C"/>
<path d="M229.184 17.0701C228.691 16.4404 227.745 15.8525 226.65 15.786C225.079 15.6901 223.367 16.2977 223.13 17.2841C223.04 17.6555 223.08 18.0196 222.84 18.268C222.171 18.9568 222.736 20.3933 222.954 20.932C223.256 21.6749 223.984 23.2197 224.252 23.1188C224.415 23.0573 224.653 22.5358 224.636 22.3071C224.601 21.82 224.581 21.3133 224.502 20.8312C224.443 20.4819 224.45 20.4794 224.609 20.1891C224.668 20.3171 224.807 20.6885 224.807 20.6885L225.305 20.4597C225.721 19.8398 225.939 18.9002 225.855 17.9851C225.932 17.8671 226.137 17.7391 226.249 17.6924C227.056 17.3579 228.453 17.685 229.006 18.177C229.318 18.455 229.33 18.6247 229.333 18.8682C229.335 19.0207 229.241 19.3971 229.387 19.3626C229.531 19.3282 229.697 18.9543 229.724 18.4181C229.744 17.9581 229.407 17.3579 229.184 17.0701Z" fill="#1E2859"/>
<path d="M224.785 20.4474C224.914 20.9369 224.765 21.4018 224.45 21.483C224.136 21.5642 223.776 21.2345 223.645 20.7426C223.516 20.2531 223.665 19.7882 223.98 19.707C224.294 19.6258 224.656 19.9554 224.785 20.4474Z" fill="#FEC1B5"/>
<path d="M222.53 20.2137C222.577 20.4105 222.753 20.7795 222.978 20.5188C223.618 19.7833 224.155 19.3282 225.079 18.7796C225.674 18.4254 226.226 18.1376 226.898 18.0122C227.817 17.84 228.704 17.899 229.459 18.2409C229.583 18.2975 229.705 18.1622 229.648 17.963C229.422 17.1685 229.018 16.556 227.97 15.9189C227.2 15.4515 225.545 15.6138 224.581 15.8992C222.141 16.6224 222.136 18.5164 222.53 20.2137Z" fill="#3448AD"/>
<path d="M225.394 18.5287C225.59 18.4205 226.236 18.1499 226.608 17.9679C226.994 17.7785 227.306 17.5768 227.666 17.3136C227.975 17.0848 228.23 16.6617 228.753 16.3862C229.065 16.2214 229.239 16.2189 229.333 16.2042C229.375 16.1968 229.318 16.1476 229.058 16.2312C228.51 16.4059 227.668 16.8511 227.155 17.011C225.815 17.4267 225.339 18.2139 225.267 18.5509C225.26 18.6074 225.305 18.5779 225.394 18.5287Z" fill="#7AC9EB"/>
<path d="M225.315 18.5533C226.075 18.1327 227.247 17.8129 228.099 16.8585C228.914 15.9459 230.094 15.9828 230.814 16.5731C231.139 16.8388 231.622 17.4464 231.407 18.0146C231.211 18.5262 230.329 18.814 229.846 18.8755C229.61 18.9075 229.556 18.8731 229.459 18.7624C229.308 18.5927 229.053 18.3098 228.592 18.14C227.933 17.8941 226.915 18.0195 226.283 18.2212C226.088 18.2852 225.612 18.5041 225.411 18.6123C225.285 18.6812 225.206 18.6173 225.315 18.5533Z" fill="#1F367A"/>
<path d="M225.706 46.566C225.87 46.2954 226.417 45.9436 226.761 46.0961C228.629 46.9276 229.494 46.2856 230.294 46.4897C230.703 46.5955 231.476 47.3433 231.382 47.8918C231.295 48.4059 229.96 49.8991 229.115 49.9335C228.226 49.9704 227.859 49.4145 227.614 49.0676C227.346 48.6888 226.727 48.3248 226.13 48.1772C225.622 48.0542 225.374 47.1219 225.706 46.566Z" fill="#E8988C"/>
<path d="M228.538 21.7019C228.526 21.7856 228.238 21.9159 227.894 21.8667C227.547 21.8175 227.331 21.5371 227.361 21.4609C227.391 21.3895 227.601 21.5691 227.948 21.6183C228.295 21.67 228.55 21.6183 228.538 21.7019Z" fill="white"/>
<path d="M255.844 77.1024H248.954C248.852 77.1024 248.758 77.0482 248.709 76.9621L229.249 43.2033C229.088 42.9254 229.09 42.5908 229.251 42.3129C229.415 42.0349 229.705 41.8701 230.027 41.8701H234.796C235.549 41.8701 236.25 42.2735 236.624 42.9229L256.086 76.6842C256.136 76.7703 256.136 76.8785 256.086 76.9646C256.037 77.0482 255.945 77.1024 255.844 77.1024ZM249.12 76.5415H255.358L236.138 43.2009C235.863 42.7261 235.351 42.431 234.801 42.431H230.032C229.858 42.431 229.772 42.5466 229.744 42.5958C229.715 42.645 229.658 42.7778 229.744 42.9254L249.12 76.5415Z" fill="#1E2859"/>
<path d="M264.878 72.9822H262.178V80.6643H264.878C266.578 80.6643 267.958 78.9448 267.958 76.8244C267.958 74.7041 266.578 72.9822 264.878 72.9822Z" fill="#3C3C3B"/>
<path d="M262.178 80.6618C263.879 80.6618 265.258 78.9426 265.258 76.822C265.258 74.7013 263.879 72.9822 262.178 72.9822C260.477 72.9822 259.099 74.7013 259.099 76.822C259.099 78.9426 260.477 80.6618 262.178 80.6618Z" fill="#706F6F"/>
<path d="M262.178 78.7874C263.048 78.7874 263.754 77.9074 263.754 76.822C263.754 75.7365 263.048 74.8566 262.178 74.8566C261.308 74.8566 260.603 75.7365 260.603 76.822C260.603 77.9074 261.308 78.7874 262.178 78.7874Z" fill="#C6C6C6"/>
<path d="M234.766 49.658C234.694 49.658 234.622 49.6309 234.568 49.5768C234.456 49.4686 234.454 49.2915 234.563 49.1808L237.407 46.3028H231.322L230.413 47.2449C230.307 47.3556 230.128 47.3605 230.014 47.2547C229.903 47.149 229.898 46.9694 230.005 46.8587L230.995 45.828C231.047 45.7739 231.122 45.7419 231.199 45.7419H238.076C238.19 45.7419 238.291 45.8108 238.336 45.9141C238.38 46.0174 238.356 46.138 238.276 46.2192L234.962 49.5719C234.91 49.6309 234.838 49.658 234.766 49.658Z" fill="#1E2859"/>
<path d="M248.245 55.2541L240.055 63.6791L233.614 52.5065L241.804 44.0815L248.245 55.2541Z" fill="#F0C397"/>
<path d="M253.059 44.0815H241.804L248.245 55.2541H259.5L253.059 44.0815Z" fill="url(#paint7_linear)"/>
<path d="M251.31 63.6791H240.055L248.245 55.2542H259.5L251.31 63.6791Z" fill="#B37A54"/>
<path d="M254.964 66.9088L245.329 76.8219L237.751 63.679L247.388 53.7659L254.964 66.9088Z" fill="url(#paint8_linear)"/>
<path d="M260.627 53.7659H247.388L254.964 66.9088H268.206L260.627 53.7659Z" fill="#CC9068"/>
<path d="M258.569 76.822H245.33L254.964 66.9088H268.206L258.569 76.822Z" fill="#B37A54"/>
<path d="M259.773 63.0517H254.83L254.697 62.818H259.636L259.773 63.0517Z" fill="#F0C397"/>
<path d="M260.186 63.7774H255.246L255.11 63.5437H260.053L260.186 63.7774Z" fill="#F0C397"/>
<path d="M260.602 64.5005H255.66L255.526 64.2668H260.469L260.602 64.5005Z" fill="#F0C397"/>
<path d="M259.253 65.2262H256.076L255.943 64.9926H259.119L259.253 65.2262Z" fill="#F0C397"/>
<path d="M262.178 77.1023H243.219C243.063 77.1023 242.937 76.9769 242.937 76.8219C242.937 76.667 243.063 76.5415 243.219 76.5415H262.178C262.334 76.5415 262.461 76.667 262.461 76.8219C262.461 76.9769 262.334 77.1023 262.178 77.1023Z" fill="#1E2859"/>
<path d="M255.844 77.1024H248.954C248.84 77.1024 248.738 77.0335 248.694 76.9302C248.649 76.8269 248.674 76.7064 248.753 76.6252L254.265 71.0487C254.862 70.4461 255.692 70.0992 256.542 70.0992H260.553C260.954 70.0992 261.299 70.328 261.455 70.6945C261.611 71.061 261.532 71.4669 261.252 71.7498L256.044 77.0188C255.992 77.0704 255.92 77.1024 255.844 77.1024ZM249.628 76.5416H255.727L260.853 71.3562C260.974 71.2332 261.006 71.0684 260.939 70.911C260.873 70.7536 260.731 70.6601 260.558 70.6601H256.547C255.846 70.6601 255.162 70.9454 254.672 71.4423L249.628 76.5416Z" fill="#1E2859"/>
<path d="M243.219 72.9822H240.518V80.6643H243.219C244.918 80.6643 246.298 78.9448 246.298 76.8244C246.298 74.7041 244.918 72.9822 243.219 72.9822Z" fill="#3C3C3B"/>
<path d="M240.519 80.6618C242.219 80.6618 243.598 78.9426 243.598 76.822C243.598 74.7013 242.219 72.9822 240.519 72.9822C238.818 72.9822 237.439 74.7013 237.439 76.822C237.439 78.9426 238.818 80.6618 240.519 80.6618Z" fill="#706F6F"/>
<path d="M240.519 78.7874C241.389 78.7874 242.094 77.9074 242.094 76.822C242.094 75.7365 241.389 74.8566 240.519 74.8566C239.648 74.8566 238.943 75.7365 238.943 76.822C238.943 77.9074 239.648 78.7874 240.519 78.7874Z" fill="#C6C6C6"/>
<path d="M152.854 79.3113C153.26 79.6459 154.466 80.2165 155.031 79.9582C155.596 79.6975 154.494 78.0617 154.461 77.3926C154.424 76.5514 154.853 74.4605 155.331 73.9489C155.76 73.4889 156.228 73.1937 156.669 72.7878C157.053 72.4336 157.127 71.8482 156.835 71.5481C156.374 71.0733 155.777 70.8495 155.046 71.3267C154.806 71.4841 154.038 71.9097 153.53 72.1901C153.079 72.4385 152.579 72.4385 151.942 72.7165C151.288 73.0043 151.464 73.7299 151.526 73.9636C151.679 74.5368 151.845 75.3706 151.907 75.8651C152.006 76.6596 151.843 77.1098 151.986 77.8969C152.076 78.3594 152.393 78.9325 152.854 79.3113Z" fill="#1E2859"/>
<path d="M179.342 78.9645C179.292 79.7172 179.396 79.9583 180.353 80.0739C180.87 80.1378 181.512 80.0567 181.941 80.1009C182.753 80.187 184.371 80.7823 185.634 80.7823C186.615 80.7823 188.099 80.7823 187.881 80.0714C187.688 79.4417 186.276 79.2892 185.686 79.0703C184.886 78.7751 184.081 78.4578 183.405 77.9363C182.647 77.3508 182.32 76.8859 181.965 76.1578C181.814 75.8503 181.413 75.2944 180.831 75.1395C179.661 74.8295 179.349 75.3264 179.532 76.9794C179.602 77.6288 179.371 78.4701 179.342 78.9645Z" fill="#1E2859"/>
<path d="M164.279 42.9869C164.361 44.5612 164.804 45.5796 166.635 45.6878C168.374 45.7887 172.923 45.8477 174.085 45.7912C175.727 45.71 176.758 45.1049 177.124 43.5699C177.583 41.6512 178.038 29.8317 177.88 28.6805C177.781 27.945 177.439 27.1849 176.069 26.7102C175.207 26.4101 172.402 26.0608 170.371 25.9845C168.659 25.9206 166.702 26.1764 165.431 26.4347C163.908 26.7422 163.568 27.1087 163.536 28.7174C163.516 29.6989 164.15 40.4754 164.279 42.9869Z" fill="#7FD9EB"/>
<path d="M174.221 18.4746C173.953 17.3111 172.752 16.765 171.741 16.6101C170.606 16.4379 169.155 17.0577 168.535 17.9679C167.998 18.7575 167.735 19.9013 168.828 22.1004C169.088 22.6268 169.048 23.3623 168.981 23.9207C168.917 24.4865 168.86 24.8997 168.776 25.3966C168.674 25.9943 168.28 25.9328 168.216 26.1567C167.896 27.2612 170.113 29.0101 172.006 28.9412C173.767 28.8773 173.557 26.9315 173.413 26.4912C173.299 26.1419 172.965 26.1099 172.777 26.0116C172.308 25.7705 172.321 25.5048 172.348 24.6709C172.365 24.1003 172.35 23.5025 172.549 23.4213C172.801 23.3156 172.888 23.2787 173.121 23.1212C173.331 22.9761 173.495 22.7178 173.597 22.4866C173.805 22.002 173.844 20.9271 173.896 20.4105C173.963 19.766 174.374 19.1363 174.221 18.4746Z" fill="#FEC1B5"/>
<path d="M189.722 49.6039C189.967 49.0456 189.826 48.6102 189.132 48.0026C188.677 47.6041 184.103 43.9168 182.647 42.6672C181.814 41.9538 180.937 40.5099 180.689 39.4276C180.333 37.8582 179.498 33.1599 178.978 30.8526C178.556 28.988 178.244 27.244 176.134 26.7274C175.281 26.5184 174.323 27.2809 174.062 28.1271C173.825 28.8946 173.81 29.9277 173.991 30.7099C174.459 32.7417 176.934 38.8397 177.699 40.8715C178.358 42.618 179.684 44.025 181.269 45.0631C183.385 46.4504 186.365 48.5339 188.459 49.7589C189.046 50.1082 189.571 49.9483 189.722 49.6039Z" fill="#7FD9EB"/>
<path d="M163.65 31.4995C163.833 35.1425 164.188 41.1888 164.279 42.987C164.282 43.0312 164.284 43.0755 164.287 43.1173C164.46 43.2108 164.708 43.2526 165.089 43.2084C166.514 43.0485 167.527 41.9145 167.951 41.2921C168.902 39.8925 168.892 37.1399 168.853 35.8338C168.84 35.3861 168.766 34.0356 168.64 33.8069C168.265 33.1206 167.988 35.2016 168.015 36.3306C168.033 37.0096 167.951 38.6527 167.73 39.2505C167.547 39.7449 167.178 39.7474 166.955 39.2702C166.467 38.2198 166.702 32.9582 166.048 32.235C165.57 31.7012 164.495 31.2904 163.65 31.4995Z" fill="#37C0DB"/>
<path d="M154.531 70.729C155.712 69.4302 161.091 63.2019 161.74 62.4418C162.852 61.1357 163.496 59.4039 163.506 57.5099C163.524 54.5187 163.509 45.1812 163.457 44.1136C163.439 43.7864 163.464 43.0362 163.563 42.8714C163.818 42.4409 164.039 42.8886 164.663 42.9353C165.781 43.0214 166.395 42.436 166.935 42.0129C168.496 40.7854 168.459 38.8323 168.511 37.0194C168.538 36.0109 168.555 34.3972 168.513 33.5215C168.377 30.8083 168.137 29.2463 167.324 28.1296C166.712 27.2883 166.016 26.7176 165.228 26.5897C164.983 26.5504 164.963 26.4962 165.102 26.4544C165.226 26.4175 165.917 26.2699 166.17 26.2699C166.925 26.2699 167.849 26.9415 168.538 27.9697C169.246 29.0274 169.608 30.8354 169.796 33.0394C171.156 33.0394 173.166 33.0394 174.469 33.0394C174.58 30.6632 174.293 27.9574 173.941 26.8332C173.8 26.3831 173.693 26.1789 173.884 26.2035C174.062 26.2257 174.57 26.297 174.719 26.3167C174.937 26.3462 174.974 26.3905 175.096 26.7176C175.608 28.1148 175.784 31.7382 175.836 33.6937C175.864 34.7613 176.069 38.4929 176.131 39.708C176.176 40.5714 176.176 41.3783 176.555 42.1851C176.793 42.6943 177.298 42.9747 177.64 43.1764C177.972 43.3732 178.058 43.6389 178.093 44.0177C178.227 45.4739 178.319 47.4467 178.574 48.2756C178.896 49.3235 179.163 50.1279 179.706 51.38C180.724 53.7291 181.841 55.6871 182.785 57.9354C183.618 59.9181 183.573 61.6965 183.382 63.7775C183.159 66.2275 182.448 73.8481 182.312 75.752C182.25 76.6154 181.009 76.6548 180.182 76.731C178.262 76.9106 178.529 75.7102 178.482 74.618C178.43 73.4595 178.376 68.7317 178.351 67.4501C178.301 64.85 177.88 63.7997 177.271 62.2451C176.394 60.0066 173.674 55.1632 173.208 54.2654C173.032 53.9284 172.626 53.0527 172.016 53.1043C171.31 53.1633 171.3 53.6332 171.043 54.4449C170.723 55.4535 169.65 59.5934 169.251 60.9217C168.672 62.8526 167.671 63.9546 167.096 64.5327C165.456 66.1783 159.577 71.8261 157.308 73.8801C156.723 74.409 156.344 74.2909 155.658 73.9072C155.289 73.7005 154.318 72.8396 154.003 72.3279C153.599 71.681 153.869 71.4547 154.531 70.729Z" fill="#3448AD"/>
<path d="M171.248 53.7586C171.379 53.3699 171.538 53.1461 172.013 53.1043C172.62 53.0526 173.029 53.9283 173.203 54.2653C173.668 55.1632 176.386 60.0066 177.265 62.2426C177.872 63.7972 178.294 64.8451 178.343 67.4476C178.363 68.5299 178.408 72.0721 178.452 73.8456C178.789 73.5677 179.015 72.5862 179 72.0549C178.985 71.4276 178.804 70.1264 178.829 68.7488C178.856 67.1893 179.505 65.9914 179.237 64.6877C179.022 63.6422 178.214 62.796 178.016 61.694C177.796 60.4641 177.87 59.4679 177.36 58.2995C177.057 57.6132 176.163 57.0228 175.871 56.1766C175.42 54.868 175.992 53.06 175.113 51.5546C174.704 51.5497 172.794 51.6776 172.462 51.7243C172.179 51.7637 171.939 51.9605 171.865 52.14C171.647 52.6738 171.533 52.9321 171.327 53.4856C171.307 53.5446 171.275 53.6479 171.248 53.7586Z" fill="#1F367A"/>
<path d="M183.722 48.979C183.977 48.7896 184.812 49.0627 185.159 49.2102C185.595 49.3923 187.842 49.9187 188.471 49.8227C189.14 49.7194 189.526 49.5989 189.772 49.6973C190.027 49.8006 190.74 49.9728 190.279 50.2852C189.789 50.6197 188.545 51.402 188.094 51.6676C187.879 51.7956 187.52 51.9554 187.245 51.9284C186.667 51.8743 186.11 51.7857 185.751 51.7267C185.354 51.6627 184.871 51.1019 184.502 50.7452C183.665 49.9384 183.197 49.3652 183.722 48.979Z" fill="#E8988C"/>
<path d="M159.297 39.2775C159.909 36.8275 161.341 31.5192 162.015 29.5735C162.337 28.6412 162.627 27.2957 163.526 26.9906C164.304 26.7274 164.775 26.5085 165.243 26.8898C166.809 28.1615 166.241 29.8022 165.825 31.4183C165.283 33.5313 164.076 37.199 163.677 38.6084C163.236 40.1655 164.034 41.5676 164.718 42.2711C165.909 43.4937 171.357 48.6741 171.776 49.0455C172.467 49.658 172.559 50.0492 172.36 50.6002C172.259 50.8781 171.677 51.1241 171.144 50.7846C169.227 49.567 163.152 45.523 161.269 44.148C159.424 42.8025 158.566 42.2047 159.297 39.2775Z" fill="#7FD9EB"/>
<path d="M170.966 49.4416C171.159 49.1906 171.652 49.0086 171.969 49.2079C173.351 50.0787 175.789 49.4539 176.582 49.6949C176.845 49.7736 177.551 49.9704 177.09 50.2828C176.599 50.6174 175.356 51.3996 174.905 51.6653C174.689 51.7932 174.33 51.9531 174.055 51.926C173.478 51.8719 172.92 51.7833 172.561 51.7243C172.165 51.6603 171.702 51.1585 171.288 50.856C170.864 50.5509 170.567 49.9557 170.966 49.4416Z" fill="#E8988C"/>
<path d="M174.221 18.4747C174.087 17.8917 173.718 17.4637 173.257 17.1636C172.239 17.1292 171.067 17.5178 170.557 18.2705C170.141 18.883 170.894 18.9544 171.419 18.9372C172.07 18.915 172.957 18.7896 173.606 18.9101C173.829 18.9519 174.043 19.0085 174.216 19.1462C174.261 18.9249 174.273 18.701 174.221 18.4747Z" fill="#E8988C"/>
<path d="M167.857 18.2114C167.973 17.9138 168.166 17.7392 168.255 17.4145C168.528 16.4231 170.069 15.7713 171.253 15.8844C171.88 15.9435 173.864 16.3641 174.414 17.9212C174.583 18.3984 174.434 19.1831 174.355 19.3134C174.223 19.5275 174.164 19.3307 174.164 19.2274C174.166 19.0552 174.209 18.6739 174.09 18.3861C174.013 18.2016 173.837 17.9089 173.51 17.8031C172.992 17.6358 172.254 17.6629 171.739 17.7711C171.466 17.8277 171.246 18.0983 171.213 18.364C171.156 18.8067 171.045 19.3946 170.755 19.8349C170.448 20.3048 169.71 20.5507 169.71 20.5507C169.68 20.3761 169.615 20.2113 169.519 20.1277C169.222 20.4401 169.39 21.6897 169.41 22.1767C169.42 22.3981 169.425 22.9589 169.239 23.0057C169.043 23.0573 168.912 22.772 168.81 22.5752C168.072 21.1509 167.391 19.3995 167.857 18.2114Z" fill="#1E2859"/>
<path d="M167.619 19.9137C167.663 20.1055 167.834 20.4622 168.052 20.2113C168.674 19.498 169.194 19.0576 170.089 18.5239C170.666 18.1819 171.204 17.9015 171.853 17.7785C172.744 17.6113 173.604 17.6678 174.337 17.9999C174.459 18.054 174.575 17.9237 174.521 17.7293C174.303 16.9569 173.909 16.3641 172.893 15.7467C172.145 15.2941 170.54 15.4515 169.606 15.727C167.24 16.4305 167.235 18.268 167.619 19.9137Z" fill="#3448AD"/>
<path d="M170.396 18.2803C170.587 18.1746 171.213 17.9138 171.575 17.7367C171.949 17.5522 172.251 17.3579 172.601 17.1021C172.9 16.8807 173.148 16.4699 173.656 16.2042C173.958 16.0443 174.129 16.0419 174.218 16.0271C174.258 16.0197 174.204 15.9705 173.951 16.0517C173.421 16.2214 172.603 16.6519 172.105 16.8069C170.805 17.2103 170.344 17.9753 170.274 18.3025C170.265 18.3566 170.309 18.3271 170.396 18.2803Z" fill="#7AC9EB"/>
<path d="M170.317 18.3049C171.055 17.8966 172.189 17.5866 173.017 16.6617C173.81 15.7762 174.949 15.8106 175.653 16.3838C175.967 16.6421 176.436 17.23 176.225 17.781C176.037 18.2779 175.18 18.5558 174.711 18.6173C174.483 18.6468 174.431 18.6149 174.335 18.5091C174.186 18.3443 173.941 18.0712 173.495 17.904C172.856 17.6654 171.867 17.7859 171.255 17.9827C171.065 18.0442 170.606 18.2557 170.408 18.3615C170.289 18.4279 170.212 18.3664 170.317 18.3049Z" fill="#1F367A"/>
<path d="M169.633 20.3294C169.801 20.7697 169.72 21.2592 169.417 21.2961C169.165 21.3257 168.828 21.0502 168.639 20.6492C168.439 20.2212 168.389 19.7981 168.81 19.7022C169.222 19.6087 169.467 19.8891 169.633 20.3294Z" fill="#FEC1B5"/>
<path d="M170.398 23.0254C170.312 22.9245 169.801 22.2383 169.739 22.3243C169.628 22.4719 169.883 23.4657 170.141 23.8421C170.379 24.1889 170.941 24.9219 171.838 24.9761C172.046 24.9884 172.212 24.9834 172.343 24.9687C172.346 24.8801 172.348 24.7817 172.353 24.676C172.363 24.3906 172.363 24.0954 172.385 23.8642C171.662 23.847 170.904 23.6059 170.398 23.0254Z" fill="#E8988C"/>
<path d="M171.198 24.0315C171.927 24.4177 173.074 24.4644 173.475 24.1176C174.008 23.6551 174.164 22.0587 174.005 21.6626C173.837 21.2395 173.393 21.2223 172.893 21.365C172.38 21.5101 172.038 21.948 171.382 21.6085C171.04 21.4314 170.648 20.504 170.423 19.9678C170.334 19.7538 169.766 19.8645 169.759 20.1006C169.724 21.1584 169.392 23.077 171.198 24.0315Z" fill="#1E2859"/>
<path d="M173.584 22.317C173.574 22.3932 173.307 22.5162 172.98 22.4769C172.653 22.4351 172.442 22.1842 172.469 22.1128C172.497 22.0464 172.7 22.2088 173.027 22.2481C173.354 22.2899 173.592 22.2407 173.584 22.317Z" fill="white"/>
<path d="M186.444 35.0122H171.484V49.8672H186.444V35.0122Z" fill="#F0C397"/>
<path d="M186.445 49.8683H189.857V35.0133H186.445V49.8683Z" fill="#CC9068"/>
<path d="M178.698 45.1517H174.008V45.3928H178.698V45.1517Z" fill="white"/>
<path d="M178.698 45.8947H174.008V46.1357H178.698V45.8947Z" fill="white"/>
<path d="M178.698 46.635H174.008V46.8761H178.698V46.635Z" fill="white"/>
<path d="M178.7 47.3778H175.685V47.6189H178.7V47.3778Z" fill="white"/>
</g>
<defs>
<linearGradient id="paint0_linear" x1="134.551" y1="98.4886" x2="134.551" y2="10.36" gradientUnits="userSpaceOnUse">
<stop stop-color="#30358C"/>
<stop offset="0.236" stop-color="#303990"/>
<stop offset="0.4805" stop-color="#31469D"/>
<stop offset="0.7289" stop-color="#335AB1"/>
<stop offset="0.9785" stop-color="#3677CE"/>
<stop offset="1" stop-color="#367AD1"/>
</linearGradient>
<linearGradient id="paint1_linear" x1="67.2294" y1="-4.7763" x2="117.814" y2="83.4634" gradientUnits="userSpaceOnUse">
<stop stop-color="#7AC9EB"/>
<stop offset="0.2201" stop-color="#76C5EA"/>
<stop offset="0.4481" stop-color="#6CB8E6"/>
<stop offset="0.6798" stop-color="#5AA4DF"/>
<stop offset="0.9126" stop-color="#4187D5"/>
<stop offset="1" stop-color="#367AD1"/>
</linearGradient>
<linearGradient id="paint2_linear" x1="57.0069" y1="44.2531" x2="57.0069" y2="0.668028" gradientUnits="userSpaceOnUse">
<stop stop-color="#30358C"/>
<stop offset="0.236" stop-color="#303990"/>
<stop offset="0.4805" stop-color="#31469D"/>
<stop offset="0.7289" stop-color="#335AB1"/>
<stop offset="0.9785" stop-color="#3677CE"/>
<stop offset="1" stop-color="#367AD1"/>
</linearGradient>
<linearGradient id="paint3_linear" x1="171.8" y1="9.1106" x2="171.8" y2="63.3059" gradientUnits="userSpaceOnUse">
<stop stop-color="#C8E9F7"/>
<stop offset="0.2215" stop-color="#C4E7F6"/>
<stop offset="0.451" stop-color="#B7E2F4"/>
<stop offset="0.6843" stop-color="#A3DAF1"/>
<stop offset="0.9186" stop-color="#86CEED"/>
<stop offset="1" stop-color="#7AC9EB"/>
</linearGradient>
<linearGradient id="paint4_linear" x1="143.167" y1="60.723" x2="183.757" y2="-10.0822" gradientUnits="userSpaceOnUse">
<stop stop-color="#1E2859"/>
<stop offset="0.1478" stop-color="#202E62"/>
<stop offset="0.3887" stop-color="#253F7A"/>
<stop offset="0.6929" stop-color="#2D5AA2"/>
<stop offset="1" stop-color="#367AD1"/>
</linearGradient>
<linearGradient id="paint5_linear" x1="139.07" y1="63.3059" x2="139.07" y2="9.1106" gradientUnits="userSpaceOnUse">
<stop stop-color="#30358C"/>
<stop offset="1" stop-color="#367AD1"/>
</linearGradient>
<linearGradient id="paint6_linear" x1="140.989" y1="9.1106" x2="140.989" y2="80.4549" gradientUnits="userSpaceOnUse">
<stop stop-color="#C8E9F7"/>
<stop offset="0.2215" stop-color="#C4E7F6"/>
<stop offset="0.451" stop-color="#B7E2F4"/>
<stop offset="0.6843" stop-color="#A3DAF1"/>
<stop offset="0.9186" stop-color="#86CEED"/>
<stop offset="1" stop-color="#7AC9EB"/>
</linearGradient>
<linearGradient id="paint7_linear" x1="236.3" y1="40.9777" x2="262.629" y2="57.147" gradientUnits="userSpaceOnUse">
<stop stop-color="#F0C397"/>
<stop offset="1" stop-color="#CC9068"/>
</linearGradient>
<linearGradient id="paint8_linear" x1="229.232" y1="51.5843" x2="266.789" y2="82.0797" gradientUnits="userSpaceOnUse">
<stop stop-color="#F0C397"/>
<stop offset="1" stop-color="#CC9068"/>
</linearGradient>
<clipPath id="clip0">
<rect x="0.690308" y="0.985229" width="313" height="81" fill="white"/>
</clipPath>
</defs>
</svg>