<svg width="296" height="248" viewBox="0 0 296 248" fill="none" xmlns="http://www.w3.org/2000/svg">
<g clip-path="url(#clip0)">
<path d="M55.5297 129.87L59.5064 128.516L74.484 119.064L59.9276 118.306L54.6006 127.162L55.5297 129.87Z" fill="#364654"/>
<path d="M164.932 193.23L168.996 191.876L183.887 182.337L169.33 181.666L164.09 190.435L164.932 193.23Z" fill="#365254"/>
<path d="M90.1312 145.309C90.1312 136.962 84.2962 126.827 77.0119 122.616C73.2829 120.504 69.9009 120.343 67.5347 121.771L59.8291 125.995L64.0536 133.248C65.0694 139.919 69.2195 146.999 74.5466 151.135L78.5232 157.967L86.1421 153.83C86.2288 153.83 86.2288 153.743 86.3156 153.743C88.6941 152.402 90.1312 149.446 90.1312 145.309Z" fill="#0B1119"/>
<path d="M69.2313 126.926C61.9593 122.703 56.0376 126.081 56.0376 134.441C56.0376 142.788 61.8725 152.923 69.1569 157.134C76.429 161.357 82.3506 157.979 82.3506 149.619C82.3506 141.26 76.5033 131.137 69.2313 126.926Z" fill="#193236"/>
<path d="M69.8261 131.472C64.9203 128.69 61.0303 130.876 60.9436 136.54C60.9436 142.105 64.8336 148.936 69.7394 151.731C74.6452 154.513 78.5352 152.327 78.6219 146.663C78.6219 141.099 74.6452 134.267 69.8261 131.472Z" fill="white"/>
<path d="M70.2472 135.522C67.5341 133.919 65.2546 135.186 65.2546 138.304C65.2546 141.422 67.4598 145.222 70.1605 146.825C72.8735 148.427 75.153 147.16 75.153 144.042C75.153 140.925 72.9602 137.136 70.2472 135.522Z" fill="#BCC4CC"/>
<path d="M69.7397 138.316C68.0425 137.385 66.6921 138.142 66.6921 140.093C66.6921 142.03 68.0425 144.39 69.7397 145.322C71.4369 146.253 72.7873 145.496 72.7873 143.546C72.7873 141.608 71.4369 139.235 69.7397 138.316Z" fill="white"/>
<path d="M66.6919 143.459C66.6919 143.459 67.7077 145.309 69.3182 146.502L67.2865 149.62C67.2865 149.62 65.1681 147.769 63.5576 144.9L66.6919 143.459Z" fill="#D5DBE2"/>
<path d="M65.0935 139.149C65.0935 139.149 64.9201 137.298 65.6015 136.192L61.7115 133.236C61.7115 133.236 60.8691 135.77 61.2903 138.888L65.0935 139.149Z" fill="#D5DBE2"/>
<path d="M68.3023 134.764C68.3023 134.764 69.4049 134.677 71.1764 136.031L71.7711 132.988C71.7711 132.988 70.5075 131.982 67.8811 130.715L68.3023 134.764Z" fill="#D5DBE2"/>
<path d="M75.0663 145.57C75.0663 145.57 74.9796 146.837 73.4558 147.508L75.7353 152.315C75.7353 152.315 78.6961 151.048 78.2749 145.57H75.0663Z" fill="#D5DBE2"/>
<path d="M74.9921 141.683C74.9921 141.683 74.3975 139.745 73.2949 138.391L75.4133 137.124C75.4133 137.124 76.169 138.143 77.3583 140.925L74.9921 141.683Z" fill="#D5DBE2"/>
<path d="M199.707 208.173C199.707 199.826 193.872 189.69 186.587 185.479C182.858 183.368 179.476 183.206 177.11 184.635L169.417 188.858L173.641 196.112C174.657 202.782 178.807 209.862 184.134 213.998L188.111 220.83L195.73 216.694C195.817 216.694 195.817 216.607 195.903 216.607C198.27 215.166 199.707 212.297 199.707 208.173Z" fill="#0B1119"/>
<path d="M178.807 189.777C171.535 185.554 165.614 188.932 165.614 197.292C165.614 205.651 171.448 215.775 178.733 219.985C186.005 224.208 191.927 220.83 191.927 212.47C192.001 204.037 186.079 193.913 178.807 189.777Z" fill="#193236"/>
<path d="M179.389 194.249C174.484 191.466 170.594 193.653 170.507 199.317C170.507 204.881 174.397 211.713 179.303 214.508C184.208 217.29 188.098 215.104 188.185 209.44C188.198 203.863 184.221 197.118 179.389 194.249Z" fill="white"/>
<path d="M179.823 198.385C177.11 196.783 174.83 198.05 174.83 201.167C174.83 204.285 177.035 208.086 179.736 209.688C182.449 211.29 184.729 210.024 184.729 206.906C184.729 203.776 182.524 199.9 179.823 198.385Z" fill="#BCC4CC"/>
<path d="M179.315 201.08C177.618 200.149 176.267 200.906 176.267 202.857C176.267 204.794 177.618 207.154 179.315 208.086C181.012 209.017 182.362 208.26 182.362 206.31C182.362 204.372 181 202.012 179.315 201.08Z" fill="white"/>
<path d="M176.268 206.31C176.268 206.31 177.283 208.16 178.894 209.353L176.862 212.47C176.862 212.47 174.744 210.62 173.133 207.75L176.268 206.31Z" fill="#D5DBE2"/>
<path d="M174.657 201.925C174.657 201.925 174.484 200.074 175.165 198.969L171.275 196.012C171.275 196.012 170.433 198.546 170.854 201.664L174.657 201.925Z" fill="#D5DBE2"/>
<path d="M177.878 197.54C177.878 197.54 178.981 197.453 180.752 198.807L181.347 195.764C181.347 195.764 180.083 194.745 177.457 193.491L177.878 197.54Z" fill="#D5DBE2"/>
<path d="M184.642 208.334C184.642 208.334 184.555 209.601 183.031 210.272L185.311 215.079C185.311 215.079 188.272 213.812 187.851 208.334H184.642Z" fill="#D5DBE2"/>
<path d="M184.555 204.546C184.555 204.546 183.961 202.608 182.858 201.254L184.977 199.987C184.977 199.987 185.732 200.993 186.922 203.788L184.555 204.546Z" fill="#D5DBE2"/>
<path d="M271.956 105.91C265.192 96.4572 255.628 86.3339 248.009 78.9061C240.563 71.5652 232.35 65.069 223.467 59.5913C202.828 46.8472 162.467 22.9738 149.347 23.1477C146.387 23.1477 143.934 23.7439 141.815 24.663L141.728 24.75C140.886 25.1723 140.031 25.5946 139.362 26.1039L62.7151 69.8014L215.266 216.433C281.259 199.056 297.587 170.711 298.021 170.201C302.419 164.972 284.988 123.883 271.956 105.91Z" fill="#D5DBE2"/>
<path d="M172.117 120.008L243.19 80.6078C243.19 80.6078 269.416 102.37 277.035 122.877C277.035 122.877 273.058 152.067 206.73 162.028C206.73 162.016 181.854 124.131 172.117 120.008Z" fill="#2C8691"/>
<path d="M221.113 92.8427C221.113 92.8427 249.879 90.7311 266.12 122.542L209.605 155.11L178.72 125.162L172.204 120.02L221.113 92.8427Z" fill="#27767F"/>
<path d="M227.036 177.965C227.036 177.965 270.445 170.537 285.162 147.26L285.497 164.475C285.497 164.475 280.331 179.915 245.556 187.256L227.036 177.965Z" fill="#191A1D"/>
<path d="M243.277 185.641C243.277 185.641 280.083 181.343 289.139 155.097V158.215C289.139 158.215 284.32 180.064 245.569 187.318C244.974 187.417 243.277 185.641 243.277 185.641Z" fill="#202123"/>
<path d="M237.021 181.008C237.021 181.008 272.563 177.132 285.583 150.8L286.933 152.576C286.933 152.576 280.677 174.934 239.461 182.784L237.021 181.008Z" fill="#202123"/>
<path d="M285.162 147.26L285.41 149.11C285.41 149.11 274.83 171.046 231.26 179.393L229.142 177.542C229.142 177.542 266.456 170.711 283.044 149.955L285.162 147.26Z" fill="#202123"/>
<path d="M199.533 212.98C199.533 212.98 216.034 219.724 220.432 214.495C224.83 209.353 207.4 168.264 194.454 150.29C187.69 140.838 178.126 130.715 170.507 123.287C163.062 115.946 154.848 109.45 145.965 103.972C125.326 91.2279 84.8782 67.3545 71.7588 67.5284C53.9195 67.7768 47.4032 87.2656 44.7768 92.4949C41.7293 98.5688 43.3398 121.014 43.3398 121.014L53.2381 128.864C53.2381 128.864 54.3407 121.349 59.8411 118.989C68.3892 115.275 84.1225 119.834 89.9574 150.042L162.888 192.063C162.888 192.063 164.152 183.542 170.086 182.026C178.386 179.815 194.801 183.368 199.533 212.98Z" fill="#EDF0F4"/>
<path d="M164.077 188.262L88.9413 145.322C88.9413 145.322 81.1614 111.325 56.1987 121.535C56.1987 121.535 41.3946 117.908 44.5164 99.0903L81.3225 120.02C81.3225 120.02 90.4651 141.198 108.651 149.88L167.459 183.293L164.077 188.262Z" fill="#D5DBE2"/>
<path d="M106.211 93.9481L96.7586 76.5834L78.2131 66.6589L99.7814 105.227L106.211 93.9481Z" fill="#00E5FF"/>
<path d="M109.729 100.432L103.349 111.611L103.374 111.648L87.9258 138.739L107.983 149.47L122.886 124.69L109.729 100.432Z" fill="#00E5FF"/>
<path d="M138.408 111.176L128.956 93.8114L110.41 83.887L131.979 122.442L138.408 111.176Z" fill="#00E5FF"/>
<path d="M135.547 128.839L135.571 128.876L120.123 155.967L140.18 166.699L155.083 141.919L141.927 117.66L135.547 128.839Z" fill="#00E5FF"/>
<path d="M167.633 147.756C167.633 147.756 184.382 155.606 179.055 141.173C173.728 126.74 151.974 112.07 111.03 88.4455C69.9996 64.8205 68.3024 74.3599 68.3024 74.3599C68.3024 74.3599 64.7469 84.657 75.5744 95.2026L167.633 147.756Z" fill="#1A2B37"/>
<path d="M112.467 126.839C112.467 126.839 114.412 122.964 117.707 128.193C121.003 133.422 112.802 132.913 112.802 129.286C112.888 129.112 112.467 126.839 112.467 126.839Z" fill="#D5DBE2"/>
<path d="M113.991 129.112L118.896 132.23C118.896 132.23 121.263 131.808 120.16 129.957L112.293 125.063C112.293 125.063 109.333 124.889 111.364 127.597L113.991 129.112Z" fill="#262120"/>
<path d="M76.3423 107.015C76.3423 107.015 78.2873 103.14 81.5826 108.369C84.8779 113.598 76.6768 113.089 76.6768 109.462C76.7635 109.288 76.3423 107.015 76.3423 107.015Z" fill="#D5DBE2"/>
<path d="M77.8666 109.375L82.7724 112.493C82.7724 112.493 85.1386 112.07 84.0361 110.22L76.1694 105.326C76.1694 105.326 73.2086 105.152 75.2403 107.86L77.8666 109.375Z" fill="#262120"/>
<path d="M166.964 145.993C166.964 145.993 184.308 153.507 177.457 140.167C170.259 126.082 150.463 112.58 110.609 89.6256C70.7554 66.6838 69.8263 75.2047 69.8263 75.2047C69.8263 75.2047 66.692 84.4833 77.185 94.7804L166.964 145.993Z" fill="#C1D9F4"/>
<path d="M153.932 138.478V116.455L152.073 115.101V137.459L153.932 138.478Z" fill="#1A2B37"/>
<path d="M106.967 111.735V87.5264L104.848 86.3464V110.555L106.967 111.735Z" fill="#1A2B37"/>
<path d="M199.706 213.067C199.706 213.067 199.285 213.576 196.659 213.241C196.411 213.241 196.238 212.992 196.238 212.731C195.903 210.036 193.017 192.646 180.504 185.653C177.63 184.051 174.248 183.542 171.201 184.895C168.748 185.989 166.382 188.187 165.452 192.659C165.366 193.081 164.944 193.329 164.523 193.329C163.929 193.243 163.173 192.994 163 191.976C163 191.976 164.189 178.896 177.135 181.517C188.705 183.951 196.82 193.069 199.706 213.067Z" fill="#ACBCC6"/>
<path d="M90.3045 149.868C90.3045 149.868 88.6073 150.8 86.4146 149.694C86.4146 149.694 85.0642 132.143 70.6812 122.194C67.9682 120.343 64.3384 120.418 61.2908 121.771C58.7512 122.864 56.2983 124.889 55.4559 129.783C55.4559 129.783 53.5976 130.205 53.2507 128.69C53.2507 128.69 54.5144 116.033 66.7913 118.057C79.1302 120.256 87.9383 133.075 90.3045 149.868Z" fill="#ACBCC6"/>
<path d="M204.191 158.227L274.161 117.983L277.035 122.964C277.035 122.964 276.279 149.284 206.718 162.115L204.191 158.227Z" fill="#C5CBD1"/>
<path d="M178.72 125.15C178.72 125.15 227.37 92.3333 256.978 127.845L204.265 158.215C204.191 158.227 185.063 130.802 178.72 125.15Z" fill="#21636B"/>
<path d="M172.118 120.008C172.118 120.008 103.585 66.1745 70.6689 65.3423L139.375 26.1909C139.375 26.1909 154.018 13.3723 243.277 80.6948L172.118 120.008Z" fill="#E2E5E8"/>
<path d="M76.3423 65.839L147.836 25.4207C147.836 25.4207 172.031 27.5322 232.275 72.4098L237.516 83.626L167.459 116.356C167.546 116.455 106.298 70.4845 76.3423 65.839Z" fill="#EDF0F4"/>
<path d="M215.353 88.11C215.353 88.11 149.36 44.2386 93.8473 55.9642L76.3301 65.839C76.3301 65.839 106.954 70.9068 167.459 116.38L215.353 88.11Z" fill="#E2E5E8"/>
<path d="M165.775 115.114L227.878 81.2785C230.925 79.6762 232.61 76.3846 232.276 72.9315L232.189 72.4222L243.103 80.5208L172.031 119.921L165.775 115.114Z" fill="#1B5057"/>
<path d="M169.491 117.896C169.491 117.896 193.265 139.074 204.179 158.14C204.179 158.14 267.558 129.622 274.744 118.828C274.744 118.828 263.829 93.9357 240.564 78.4962L169.491 117.896Z" fill="#ACC6DD"/>
<path d="M245.643 115.275L231.855 106.667C231.855 106.667 229.228 87.6878 227.283 87.6878C225.338 87.6009 203.671 99.5873 203.671 99.5873C203.671 99.5873 201.974 117.648 213.743 124.305C225.512 130.975 244.466 128.193 245.643 115.275Z" fill="#C1D9F4"/>
<path d="M210.869 100.593V103.711L217.893 100.333V106.406L202.742 113.66V107.413L209.431 104.295L209.258 101.513L210.869 100.593Z" fill="#1A2B37"/>
<path d="M265.786 112.58L220.693 89.3771L235.162 79.5892C235.237 79.5892 255.207 90.4701 265.786 112.58Z" fill="#C1D9F4"/>
<path d="M178.3 115.449C178.3 115.449 181.682 124.305 179.563 127.684L169.491 117.983C169.491 117.896 174.41 113.511 178.3 115.449Z" fill="#2A4654"/>
<path d="M216.456 137.298L201.565 127.51C201.565 127.51 198.939 108.531 196.994 108.531C195.049 108.444 171.437 119.747 171.437 119.747C171.437 119.747 183.614 131.224 196.312 147.086C203.931 156.625 215.515 152.911 218.562 142.614C219.082 140.676 218.228 138.478 216.456 137.298Z" fill="#C1D9F4"/>
<path d="M165.775 115.114C165.775 115.114 216.456 86.8556 232.362 72.9315C232.362 72.9315 237.776 76.6454 240.564 78.5831C240.564 78.5831 208.663 108.034 172.118 119.921L165.775 115.114Z" fill="#1A2B37"/>
<path d="M272.811 115.114C272.811 115.114 261.562 117.561 254.116 119.411C254.116 119.411 243.71 113.586 234.654 123.883C234.654 123.883 230.925 129.286 232.201 134.18C232.201 134.18 227.803 137.223 224.843 142.614C224.843 142.614 211.649 148.688 199.793 151.806L204.278 158.128C204.278 158.128 270.444 127.845 274.842 118.815L272.811 115.114Z" fill="#1A2B37"/>
<path d="M251.911 122.032C251.911 122.032 239.647 118.157 235.323 133.174C235.236 133.162 241.926 125.398 251.911 122.032Z" fill="#2A4955"/>
<path d="M219.156 217.451C219.156 217.451 208.49 220.072 199.694 213.067L197.068 201.428C197.068 201.428 212.219 206.073 219.825 204.123C219.838 204.036 224.409 214.669 219.156 217.451Z" fill="#ACBCC6"/>
<path d="M219.838 204.037C219.838 204.037 213.743 206.657 197.081 201.341L200.215 200.41C200.215 200.41 211.971 203.527 219.343 201.925C226.701 200.323 273.071 189.939 297.018 158.141L297.699 158.811C299.05 158.811 289.994 169.605 277.048 179.48C261.723 191.379 239.04 203.105 219.838 204.037Z" fill="#BCC4CC"/>
<path d="M297.686 158.898C297.686 158.898 280.169 189.777 219.85 204.037C219.85 204.037 223.492 215.427 219.168 217.451C219.168 217.451 276.7 202.943 298.702 170.959C298.69 170.959 300.722 161.345 297.686 158.898Z" fill="#ACBCC6"/>
<path d="M265.613 190.709L265.365 200.322L280.764 190.622L281.098 181.43L265.613 190.709Z" fill="#EDF0F4"/>
<path d="M265.613 190.709L264.771 190.373L264.436 199.913L265.365 200.335L265.613 190.709Z" fill="#949494"/>
<path d="M281.099 181.418L265.613 190.696L264.771 190.361L280.083 181.169L281.099 181.418Z" fill="#D4D4D4"/>
<path d="M147.328 181.343L146.82 181.095L102.148 155.284V122.045C102.148 121.796 102.148 116.393 105.616 112.344L106.124 112.766C102.829 116.641 102.829 121.958 102.829 122.045V154.861L146.659 180.175C146.833 176.797 147.588 158.836 148.01 151.234C148.518 142.713 152.494 139.335 152.668 139.173L153.089 139.683C153.089 139.683 149.112 143.061 148.691 151.247C148.27 159.594 147.254 180.523 147.254 180.697L147.328 181.343Z" fill="#D5DBE2"/>
<path d="M163.483 146.75C163.483 146.75 165.514 140.925 159.841 142.453C154.167 144.055 144.863 152.327 148.926 154.687C148.926 154.687 153.076 155.954 155.269 153.594C157.4 151.309 163.483 146.75 163.483 146.75Z" fill="#D5DBE2"/>
<path d="M162.132 151.98C162.132 151.98 166.282 142.614 161.376 144.303C156.47 145.993 147.167 155.867 153.51 155.023L158.589 154.004C158.589 154.004 164.597 161.432 165.353 157.383C166.195 153.247 164.424 153.917 162.132 151.98Z" fill="#BCC4CC"/>
<path d="M102.321 155.358L91.6545 149.11V148.936C91.6545 148.763 89.375 129.361 77.0981 121.175C77.0114 121.088 72.279 116.952 67.8811 116.791H67.5466V104.22C67.5466 102.867 68.0546 101.687 68.9837 100.767C70.5942 99.252 74.0629 97.1404 77.1848 95.8734L77.4326 96.5442C74.1373 97.8981 70.7428 99.9972 69.4792 101.264C68.7235 102.022 68.2156 103.115 68.2156 104.22V116.12C72.7002 116.455 77.1848 120.343 77.5193 120.678C89.4494 128.603 92.0757 146.837 92.3235 148.775L102.643 154.849L102.321 155.358Z" fill="#D5DBE2"/>
<path d="M245.482 187.33C245.482 187.33 228.646 194.845 216.295 193.23C203.944 191.628 209.865 177.964 209.865 177.964C209.865 177.964 227.705 170.375 245.482 187.33Z" fill="#D3EDF1"/>
<path d="M285.323 165.146C285.323 165.146 294.713 156.451 293.784 148.614C292.855 140.763 289.547 138.316 289.547 138.316C289.547 138.316 281.52 145.57 285.323 165.146Z" fill="#D3EDF1"/>
<path d="M209.94 177.964C209.94 177.964 203.845 191.292 216.369 193.23C216.369 193.23 213.409 183.032 209.94 177.964Z" fill="#BCC4CC"/>
<path d="M289.56 138.316C289.56 138.316 294.887 142.614 293.449 152.663L289.56 138.316Z" fill="#BCC4CC"/>
<path d="M56.1166 63.0057C60.9851 62.2135 64.2913 57.6142 63.5012 52.7329C62.711 47.8516 58.1238 44.5367 53.2554 45.3289C48.3869 46.1211 45.0807 50.7204 45.8708 55.6017C46.661 60.4831 51.2482 63.7979 56.1166 63.0057Z" fill="#1A2E35"/>
<path d="M55.7731 91.7059L68.5196 106.607L85.6405 99.1632L85.978 108.456C85.978 108.456 71.9594 115.028 69.8047 115.47C67.6499 115.913 65.5731 116.394 63.691 114.95C61.4973 113.271 53.6313 104.161 53.6313 104.161L55.7731 91.7059Z" fill="#FFAAA8"/>
<path d="M53.7351 74.514C58.8104 74.1886 62.8472 78.0539 65.7807 81.5157C68.7142 84.9776 72.5304 90.4306 72.5304 90.4306C72.5304 90.4306 70.4795 96.4303 65.0798 98.2523L55.773 87.151L53.7351 74.514Z" fill="#E1E1E1"/>
<path d="M33.2793 216.529L39.5747 216.529L39.5747 205.727L33.2793 205.727L33.2793 216.529Z" fill="#FFAAA8"/>
<path d="M55.0979 208.979L61.3933 209.2L61.7048 197.761L55.4224 197.552L55.0979 208.979Z" fill="#FFAAA8"/>
<path d="M33.6938 120.116C33.6938 126.142 32.915 162.648 32.915 162.648C32.7722 164.379 31.1497 167.58 31.5001 174.23C31.9804 183.276 32.7592 206.793 32.7592 206.793C32.7592 206.793 35.7057 209.721 39.8723 206.793C39.8723 206.793 45.5707 174.27 46.6999 165.303C47.6864 157.481 49.3479 136.228 49.3479 136.228L52.8396 165.719C52.8396 165.719 51.8141 171.602 51.5934 175.753C51.3728 179.905 55.0072 200.975 55.0072 200.975C55.0072 200.975 58.2004 203.188 61.8608 201.235C61.8608 201.235 64.5736 169.116 65.2226 165.368C65.8716 161.619 63.1328 120.116 63.1328 120.116H33.6938Z" fill="#0E549D"/>
<path d="M39.7429 76.5309C37.004 77.0255 34.8104 79.1078 34.2133 81.8278C33.9147 83.1813 33.6941 84.7951 33.6941 86.6171V98.9808V120.116C38.1073 124.932 53.4888 127.17 63.1201 120.116C63.1201 120.116 62.9254 90.5345 62.2115 85.6671C60.9524 77.2207 56.9286 74.2144 52.8788 74.5267L43.1696 75.9193L39.7429 76.5309Z" fill="#F0F0F0"/>
<path d="M39.2371 60.5364C39.2371 60.5364 40.6908 67.3559 41.262 68.4752C41.8461 69.5944 43.0402 69.9198 43.0402 69.9198L42.9364 65.1175L39.2371 60.5364Z" fill="#1A2E35"/>
<path d="M41.0541 50.7754C41.0541 50.7754 39.4965 50.5021 38.2763 51.7515C37.0821 52.9749 37.7441 56.8011 39.2369 60.5363L41.9627 60.8486L41.0541 50.7754Z" fill="#1A2E35"/>
<path d="M42.7803 60.8616C42.2351 61.1869 41.4563 60.1328 40.7813 59.43C40.1063 58.7272 37.8997 57.7511 36.8094 60.0807C35.6931 62.4493 37.7829 65.5728 39.5093 66.1194C42.4947 67.0564 42.949 65.1433 42.949 65.1433L43.1826 75.9453C43.1826 75.9453 45.1426 80.7476 50.4386 81.4634C55.7345 82.1792 54.6442 77.8064 52.9048 75.659L52.8918 72.3663C52.8918 72.3663 55.5917 72.7828 56.9157 72.5746C59.1093 72.2362 60.4982 70.4922 61.1602 68.1106C62.2246 64.2844 62.64 61.1869 61.7313 53.6646C60.7319 45.4134 51.1655 45.3223 45.9864 48.5889C40.8073 51.8295 42.7803 60.8616 42.7803 60.8616Z" fill="#FFAAA8"/>
<path d="M42.7801 61.7857C42.5075 61.7857 41.4561 60.0547 40.7811 59.43C39.8336 58.5711 41.0537 50.7754 41.0537 50.7754C41.0537 50.7754 40.1451 48.8363 41.9623 46.8321C43.2603 45.4005 45.4151 45.2443 49.1014 44.6717C51.0355 44.3723 53.969 43.8257 55.903 43.4613C58.2135 43.0318 60.1216 42.5763 61.7441 43.9949C63.0162 45.1011 63.5613 47.0533 62.8734 48.589C62.7176 48.9534 62.484 49.2788 62.2244 49.5651C61.7571 50.0857 61.2249 50.4891 60.5629 50.7104C60.5629 50.7104 59.5634 51.6084 56.0588 52.0378C52.5541 52.4673 47.1155 51.9598 46.3626 51.8556C45.3502 51.7125 45.1295 52.7016 44.5843 55.3956C44.1041 57.7512 43.7017 61.7596 42.7801 61.7857Z" fill="#1A2E35"/>
<path d="M41.0538 51.3742L37.7439 49.5912C38.2112 48.6411 39.3275 48.2637 40.2491 48.7583C41.1707 49.2658 41.5341 50.4241 41.0538 51.3742Z" fill="#1A2E35"/>
<path d="M52.879 72.3534C52.879 72.3534 47.9725 71.3643 46.2591 70.4533C45.1169 69.8416 44.1694 68.7874 43.8838 68.0977C43.8838 68.0977 44.2083 69.5553 45.2337 70.8697C46.4928 72.4705 52.879 73.6548 52.879 73.6548V72.3534Z" fill="#FF9090"/>
<path d="M51.6973 59.6252C51.6973 60.1848 51.256 60.6533 50.7109 60.6403C50.1657 60.6403 49.7244 60.1848 49.7244 59.6122C49.7244 59.0526 50.1657 58.5841 50.7109 58.5971C51.256 58.5971 51.6973 59.0656 51.6973 59.6252Z" fill="#1A2E35"/>
<path d="M50.6591 55.9032L48.5564 57.0615C48.2448 56.4498 48.4655 55.708 49.0496 55.3826C49.6337 55.0702 50.3476 55.3045 50.6591 55.9032Z" fill="#1A2E35"/>
<path d="M52.4376 66.4318L54.6832 67.2777C54.4625 67.9284 53.7746 68.2538 53.1645 68.0195C52.5414 67.7853 52.2169 67.0825 52.4376 66.4318Z" fill="#FF9090"/>
<path d="M60.4594 56.723L58.5383 55.2394C58.9277 54.6928 59.6806 54.5757 60.1998 54.9791C60.7449 55.3956 60.8618 56.1764 60.4594 56.723Z" fill="#1A2E35"/>
<path d="M59.8753 59.3519C59.8753 59.9115 59.434 60.38 58.8889 60.367C58.3437 60.367 57.9023 59.9115 57.9023 59.3389C57.9023 58.7793 58.3437 58.3107 58.8889 58.3238C59.434 58.3238 59.8753 58.7793 59.8753 59.3519Z" fill="#1A2E35"/>
<path d="M54.8647 58.4149L55.1893 64.3365L58.2785 63.2823L54.8647 58.4149Z" fill="#FF9090"/>
<path d="M39.5735 213.417V212.519C40.1706 212.779 41.5725 218.128 44.0776 220.419C46.0636 222.228 48.7765 224.336 49.4644 226.353C50.1783 228.462 45.7001 229.62 43.844 229.295C41.6893 228.917 37.951 227.394 37.0164 225.976C36.0818 224.57 35.6405 222.488 34.8747 221.447C34.1089 220.419 32.3565 219.26 31.9412 218.063C31.7205 217.412 31.9801 215.968 32.3046 214.757C32.5902 213.638 32.9147 212.415 33.2911 212.519C33.2911 212.649 33.2911 213.209 33.2911 213.209C33.7454 213.716 35.0175 214.224 36.4323 214.276C37.3539 214.302 39.5865 214.12 39.5735 213.417Z" fill="#1A2E35"/>
<path d="M61.4584 207.248C61.7829 207.261 62.0555 207.717 62.7694 208.497C63.6391 209.448 65.0669 210.463 66.4688 211.165C68.8312 212.35 73.4002 214.172 75.477 215.109C76.7751 215.694 76.7102 217.256 75.3732 218.154C74.0362 219.052 70.8042 219.69 66.9231 218.818C64.8073 218.349 62.0555 216.384 60.3162 216.488C58.5768 216.592 55.3188 216.566 54.0338 215.681C52.7487 214.796 53.2679 212.896 53.6314 211.27C54.0338 209.487 54.5919 206.767 55.189 206.884L55.176 207.443C55.9289 208.589 59.784 209.057 61.4455 208.211L61.4584 207.248Z" fill="#1A2E35"/>
<path d="M49.3608 136.228C49.3608 136.228 54.3842 134.81 58.1225 131.192C58.1225 131.192 56.435 134.367 51.3987 137.322L52.8395 165.732L49.3608 136.228Z" fill="#1A2E35"/>
<path d="M66.7929 123.149C66.7929 122.212 66.6112 121.288 66.4294 120.351C65.8843 118.112 64.9886 115.874 63.1844 114.39L63.0027 114.208L62.8209 114.026L62.6392 113.843C59.7576 111.982 55.604 112.164 51.0999 114.78L66.9616 124.294C66.9616 123.917 66.9616 123.552 66.9616 123.357C66.7929 123.331 66.7929 123.331 66.7929 123.149Z" fill="#194F73"/>
<path d="M59.5762 131.166C58.8493 131.543 58.3171 131.166 58.3171 130.424C58.3171 129.682 58.8623 128.745 59.5762 128.185C60.2901 127.808 60.8353 128.185 60.8353 128.927C60.8483 129.851 60.3031 130.788 59.5762 131.166Z" fill="#383432"/>
<path d="M52.0088 127.431C52.0088 126.689 52.554 125.752 53.2679 125.192C53.9947 124.815 54.5269 125.192 54.5269 125.934C54.5269 126.676 53.9818 127.613 53.2679 128.172C52.554 128.55 52.0088 128.172 52.0088 127.431Z" fill="#383432"/>
<path d="M65.5337 117.735C65.5337 117.917 65.7154 117.917 65.7154 118.112C65.7154 117.917 65.5337 117.917 65.5337 117.735Z" fill="#194F73"/>
<path d="M66.248 119.973C66.248 120.155 66.248 120.351 66.4298 120.533C66.4298 120.351 66.248 120.155 66.248 119.973Z" fill="#194F73"/>
<path d="M65.1707 116.993C65.1707 117.175 65.3524 117.175 65.3524 117.37C65.3524 117.357 65.3524 117.175 65.1707 116.993Z" fill="#194F73"/>
<path d="M65.8975 118.477C65.8975 118.659 66.0792 118.659 66.0792 118.854C65.8975 118.672 65.8975 118.477 65.8975 118.477Z" fill="#194F73"/>
<path d="M66.0659 119.231C66.0659 119.414 66.0659 119.609 66.2476 119.609C66.2476 119.414 66.0659 119.231 66.0659 119.231Z" fill="#194F73"/>
<path d="M64.457 115.874C64.457 115.874 64.6387 116.056 64.6387 116.251C64.6258 116.056 64.6258 116.056 64.457 115.874Z" fill="#194F73"/>
<path d="M63.1851 114.377L63.3662 114.571C63.3662 114.571 63.1851 114.571 63.1851 114.377Z" fill="#194F73"/>
<path d="M63.5481 114.937L63.7292 115.131C63.7292 115.131 63.7292 114.937 63.5481 114.937Z" fill="#194F73"/>
<path d="M64.8071 116.433C64.8071 116.615 64.9888 116.615 64.9888 116.811C64.9888 116.615 64.9888 116.615 64.8071 116.433Z" fill="#194F73"/>
<path d="M64.0933 115.314L64.2744 115.508C64.2744 115.495 64.0933 115.495 64.0933 115.314Z" fill="#194F73"/>
<path d="M62.6523 114.013L62.8334 114.207C62.8334 114.194 62.6523 114.194 62.6523 114.013Z" fill="#194F73"/>
<path d="M66.4297 120.715C66.4297 120.897 66.4297 121.093 66.6114 121.275C66.6114 121.093 66.4297 120.91 66.4297 120.715Z" fill="#194F73"/>
<path d="M54.3191 130.905L76.3076 117.826L74.5552 116.824L52.7485 129.903L54.3191 130.905Z" fill="#A58566"/>
<path d="M52.7617 104.343L74.7501 91.0552L64.6255 85.2247L42.8188 98.3042L52.7617 104.343Z" fill="#D7AE82"/>
<path d="M52.7615 129.903L74.5682 116.824L74.7629 91.0682L52.7744 104.356V129.903H52.7615Z" fill="#6A5640"/>
<path d="M54.514 105.345L76.3207 92.0573L74.7631 91.0552L52.7747 104.343L54.514 105.345Z" fill="#AC7941"/>
<path d="M52.7615 104.343V129.903L54.3191 130.905L54.5138 105.345L52.7615 104.343Z" fill="#885628"/>
<path d="M54.3188 130.905L76.3072 117.826V92.0573L54.5006 105.345L54.3188 130.905Z" fill="#5F4123"/>
<path d="M42.8313 98.3042V124.06L64.4303 136.944V111.175L54.5005 105.345L54.3058 130.905L52.7482 129.903V104.343L42.8313 98.3042Z" fill="#C19B77"/>
<path d="M64.4308 111.175L86.2375 98.096L76.3077 92.0573L54.501 105.345L64.4308 111.175Z" fill="#D7AE82"/>
<path d="M64.4309 136.944L86.2376 123.865V98.0961L64.4309 111.176V136.944Z" fill="#AA8057"/>
<path d="M60.7443 115.809C59.576 115.21 58.6025 113.388 58.6025 112.191C58.6025 110.785 59.576 110.173 60.7443 110.98C61.9125 111.579 62.886 113.401 62.886 114.598C62.886 116.017 61.8995 116.407 60.7443 115.809ZM60.7443 115.002C61.5231 115.405 62.1072 115.002 62.1072 114.195C62.1072 113.388 61.5231 112.178 60.7443 111.774C59.9655 111.371 59.3813 111.774 59.3813 112.581C59.576 113.401 60.1472 114.403 60.7443 115.002Z" fill="#513B29"/>
<path d="M74.7498 128.888V125.062C74.7498 124.854 74.9444 124.463 75.1391 124.255L78.8385 122.043C79.0332 121.847 79.2279 122.043 79.2279 122.238V126.064C79.2279 126.259 79.0332 126.663 78.8385 126.871L75.1391 129.083C74.9444 129.292 74.7498 129.096 74.7498 128.888ZM75.1391 124.463C74.9444 124.658 74.7498 124.867 74.7498 125.062V128.888C74.7498 129.083 74.9444 129.083 75.1391 129.083L78.8385 126.871C79.0332 126.676 79.2279 126.467 79.2279 126.272V122.446C79.2279 122.251 79.0332 122.251 78.8385 122.251L75.1391 124.463Z" fill="#1C1C1C"/>
<path d="M77.8656 123.058L78.6444 123.656L78.0603 123.851V126.272L77.6709 126.467V124.047L77.2815 124.45L77.8656 123.058Z" fill="#1C1C1C"/>
<path d="M76.3075 124.06L77.0863 124.463L76.5022 124.867V127.287L76.1128 127.483V125.062L75.7234 125.257L76.3075 124.06Z" fill="#1C1C1C"/>
<path d="M75.7234 128.485L78.6439 126.676V126.272L75.7234 128.081V128.485Z" fill="#1C1C1C"/>
<path d="M69.1035 132.311V128.485C69.1035 128.29 69.2982 127.886 69.4929 127.678L73.1922 125.465C73.3869 125.27 73.5816 125.465 73.5816 125.661V129.487C73.5816 129.695 73.3869 130.086 73.1922 130.294L69.4929 132.506C69.2982 132.714 69.1035 132.519 69.1035 132.311ZM69.4929 127.886C69.2982 128.094 69.1035 128.29 69.1035 128.485V132.311C69.1035 132.506 69.2982 132.506 69.4929 132.506L73.1922 130.294C73.3869 130.099 73.5816 129.89 73.5816 129.695V125.869C73.5816 125.661 73.3869 125.661 73.1922 125.661L69.4929 127.886Z" fill="#1C1C1C"/>
<path d="M70.8556 131.101L71.245 130.905V129.5C70.4662 129.903 70.8556 127.483 70.8556 127.483L72.0238 126.676C72.0238 126.676 72.2185 128.693 71.4397 129.292V130.905L71.8291 130.71V130.905L70.6609 131.504C70.8556 131.309 70.6609 131.309 70.8556 131.101C70.6609 131.101 70.8556 131.101 70.8556 131.101Z" fill="#1C1C1C"/>
<path d="M80.2017 125.673V121.847C80.2017 121.652 80.3964 121.248 80.5911 121.04L84.2904 118.828C84.4851 118.633 84.6798 118.828 84.6798 119.023V122.849C84.6798 123.044 84.4851 123.448 84.2904 123.656L80.5911 125.869C80.3964 125.869 80.2017 125.869 80.2017 125.673ZM80.7858 121.248C80.5911 121.444 80.3964 121.652 80.3964 121.847V125.465C80.3964 125.673 80.5911 125.673 80.7858 125.673L84.4851 123.461C84.6798 123.253 84.8745 123.057 84.8745 122.862V119.036C84.8745 118.841 84.6798 118.841 84.4851 118.841L80.7858 121.248Z" fill="#1C1C1C"/>
<path d="M84.0957 121.249L80.9805 123.058C80.9805 123.058 81.5646 121.444 82.5381 120.845C83.5116 120.442 84.0957 121.249 84.0957 121.249Z" fill="#1C1C1C"/>
<path d="M82.5378 124.268C82.7325 124.268 82.7325 124.06 82.7325 124.06C82.9272 123.864 82.9272 123.461 82.9272 123.461C82.9272 123.461 82.9272 123.669 82.7325 123.864C82.7325 124.06 82.7325 124.06 82.5378 124.268H82.3431C82.1484 124.268 82.3431 123.864 82.3431 123.864V122.459V123.864C82.3431 123.864 82.3431 124.268 82.5378 124.268C82.3431 124.463 82.5378 124.463 82.5378 124.268Z" fill="#1C1C1C"/>
<path d="M84.0956 120.234C84.0956 120.234 84.2903 120.637 84.0956 120.637C83.9009 120.845 84.0956 120.234 84.0956 120.234Z" fill="#1C1C1C"/>
<path d="M83.3173 120.234C83.3173 120.234 83.512 120.637 83.3173 120.637C83.1225 120.637 83.3173 120.234 83.3173 120.234Z" fill="#1C1C1C"/>
<path d="M81.9545 120.845C81.9545 120.845 82.1492 121.249 81.9545 121.249C81.7597 121.444 81.9545 120.845 81.9545 120.845Z" fill="#1C1C1C"/>
<path d="M81.1754 122.043C81.1754 122.043 81.3701 122.446 81.1754 122.446C80.9807 122.654 81.1754 122.043 81.1754 122.043Z" fill="#1C1C1C"/>
<path d="M81.5646 120.845C81.5646 120.845 81.7592 121.249 81.5646 121.249C81.3699 121.444 81.5646 120.845 81.5646 120.845Z" fill="#1C1C1C"/>
<path d="M82.5382 120.234C82.5382 120.234 82.7329 120.637 82.5382 120.637C82.3435 120.845 82.5382 120.234 82.5382 120.234Z" fill="#1C1C1C"/>
<path d="M83.9015 119.427C83.9015 119.427 84.0961 119.83 83.9015 119.83C83.7068 120.038 83.9015 119.427 83.9015 119.427Z" fill="#1C1C1C"/>
<path d="M65.2092 115.21L69.298 112.594V109.575L65.2092 111.995V115.21Z" fill="white"/>
<path d="M82.8366 107.466C82.8366 107.466 81.4087 106.321 78.7088 106.763C77.3978 106.985 77.9041 112.008 82.1097 113.401C84.8485 114.312 85.4066 113.843 86.2893 116.121C86.2893 116.121 87.9508 115.769 87.5484 113.219C87.146 110.668 86.0427 108.338 84.2125 106.139C83.0053 104.694 82.9274 103.484 82.3303 103.887C81.6554 104.356 82.0707 105.54 82.0707 105.54L82.8366 107.466Z" fill="#FFAAA8"/>
<path d="M25.7498 111.93C26.8012 115.822 27.6838 117.292 35.433 121.925C43.1821 126.545 46.3493 127.287 46.3493 127.287C51.6322 131.725 51.9827 131.92 54.6307 131.361C57.6291 130.801 58.1483 129.513 58.1483 129.513C54.0985 127.105 53.3975 127.105 53.2158 125.804C53.0341 124.697 54.9811 125.244 56.0325 125.062C56.383 125.062 56.7334 124.88 56.7334 124.697C57.2656 124.333 56.5517 123.591 54.2672 123.396C51.2688 123.214 48.4521 122.836 48.4521 122.836C48.4521 122.836 35.42 112.282 34.719 110.811C34.0181 109.327 35.0695 105.449 36.6531 100.816L35.42 100.452L27.3203 97.4843C27.5021 97.6795 24.8671 108.052 25.7498 111.93Z" fill="#FFAAA8"/>
<path d="M38.9118 78.34C38.9118 78.34 40.9886 79.8626 41.1314 83.3245C41.2742 86.7863 39.6517 91.7709 38.6782 94.8943C37.6917 98.0178 35.6668 103.666 35.6668 103.666C35.6668 103.666 27.2297 102.69 25.3086 97.7315C25.3086 97.7315 29.2676 84.9122 33.0707 80.7346C35.6538 77.8845 38.9118 78.34 38.9118 78.34Z" fill="#E1E1E1"/>
</g>
<defs>
<clipPath id="clip0">
<rect width="296" height="248" fill="white"/>
</clipPath>
</defs>
</svg>
