<svg width="216" height="245" viewBox="0 0 216 245" fill="none" xmlns="http://www.w3.org/2000/svg">
<path opacity="0.4" d="M80.4051 240.654C36.0631 240.654 0.116806 203.867 0.116806 158.488C0.116806 113.109 36.0631 76.3215 80.4051 76.3215C124.747 76.3215 160.693 113.109 160.693 158.488C160.693 203.867 124.747 240.654 80.4051 240.654Z" fill="#E2E9FE"/>
<path d="M130.347 237.035C146.159 227.574 146.159 212.159 130.347 202.698C114.535 193.237 88.7635 193.237 72.9514 202.698C57.1394 212.159 57.1394 227.574 72.9514 237.035C88.7635 246.498 114.432 246.498 130.347 237.035Z" fill="#E0E0E0"/>
<path d="M81.2681 191.748C81.2681 191.748 79.9334 179.31 73.9781 169.742C68.0229 160.068 59.8088 154.115 52.2108 153.477C44.6128 152.839 38.3497 160.174 46.5637 165.171C54.7778 170.167 69.255 175.27 75.9289 193.979L81.2681 191.748Z" fill="#6494FF"/>
<path d="M79.0089 188.56C79.0089 188.56 79.1115 188.453 79.0089 188.56C79.3169 188.453 79.4197 188.239 79.3169 188.027C71.2056 167.404 55.9071 158.899 48.9251 157.198C48.7197 157.092 48.5143 157.305 48.4117 157.517C48.4117 157.73 48.5143 157.942 48.7197 158.049C55.5989 159.643 70.5896 168.148 78.5982 188.346C78.701 188.453 78.8036 188.56 79.0089 188.56Z" fill="white"/>
<path d="M38.1436 188.772C38.8624 190.365 40.5052 191.216 42.1481 191.853C43.6882 192.491 45.4336 193.235 46.3577 194.723C48.1032 197.807 45.2282 202.165 47.0765 205.142C47.8978 206.417 49.3353 207.056 50.7728 207.375C52.0049 207.587 53.1342 207.587 54.3663 207.694C54.9824 207.694 55.4958 207.587 56.1119 207.587C57.7546 207.375 59.5001 207.268 61.0403 208.119C63.4017 209.501 64.1205 212.583 65.558 215.029C67.3034 217.899 70.3838 219.813 73.5667 220.238C74.5934 220.343 76.647 220.557 77.6738 219.918C77.7764 219.918 77.8791 219.813 77.8791 219.813C77.9817 219.599 78.1871 219.387 78.2897 219.28C78.2897 219.28 78.2897 219.28 78.2897 219.174C78.7005 217.58 77.9817 215.878 77.9817 214.285C77.9817 214.178 77.9817 214.071 77.9817 213.966C78.0843 212.052 78.0843 210.138 78.1871 208.224C78.2897 204.717 78.2897 201.209 78.2897 197.593C78.2897 195.256 78.4951 192.809 77.571 190.579C76.5443 188.239 73.9775 188.132 72.9506 185.795C72.54 184.837 72.3346 183.881 71.9238 182.924C70.7945 180.16 68.0222 178.14 65.1472 178.034C60.6296 177.821 56.6253 181.542 52.1075 181.223C50.9782 181.116 49.8487 180.798 48.6166 180.585C44.9203 179.841 40.7106 180.904 38.657 184.199C37.9383 185.476 37.5277 187.283 38.1436 188.772Z" fill="#92B4FF"/>
<path d="M78.7013 211.84C78.9067 211.733 79.0093 211.522 79.0093 211.308C72.7462 187.176 48.2066 183.668 42.4568 184.093C42.2514 184.093 42.0461 184.306 42.1488 184.518C42.1488 184.732 42.3542 184.944 42.5594 184.837C48.2066 184.413 72.2328 187.814 78.3933 211.522C78.2907 211.733 78.4959 211.84 78.7013 211.84Z" fill="white"/>
<path d="M51.287 199.507C51.3897 199.507 51.3897 199.507 51.4923 199.401C51.5949 199.296 57.8582 192.916 68.2284 194.512C68.4338 194.512 68.6392 194.405 68.6392 194.193C68.6392 193.979 68.5366 193.767 68.3312 193.767C57.5503 192.172 50.979 198.763 50.979 198.87C50.8764 198.977 50.8764 199.296 50.979 199.401C51.0816 199.507 51.1844 199.614 51.287 199.507Z" fill="white"/>
<path d="M116.999 55.2482C121.312 62.796 125.419 69.3871 128.396 72.47C133.941 75.1276 146.878 79.2736 152.012 79.9116C152.936 80.0178 153.86 79.8053 154.579 79.2736C156.53 77.8917 158.172 77.6791 160.226 76.9349C161.869 76.2972 162.587 75.5529 162.895 75.8718C163.306 76.2972 163.717 77.3602 162.69 78.5296C162.177 79.1673 161.253 79.8053 160.123 80.5493C160.123 80.5493 163.717 81.5061 167.003 80.6556C171.418 79.4862 173.471 81.6124 170.493 86.6089C169.467 88.4162 165.257 91.1801 156.735 90.4359C154.271 90.2233 150.78 90.0107 147.7 89.3728C139.588 87.5657 130.45 85.8647 124.905 84.0576C123.468 83.6322 121.004 81.9314 119.464 80.1241C110.12 69.0682 106.937 61.2015 102.83 53.9725L103.138 42.2788C109.812 42.1725 113.406 48.8699 116.999 55.2482Z" fill="#FFA8A7"/>
<path d="M102.009 42.1735C102.009 42.1735 107.862 40.8978 112.174 46.6384C116.692 52.6978 124.803 67.2621 124.803 67.2621C124.803 67.2621 122.134 74.5971 115.049 75.7665L103.652 59.7142C103.652 59.7142 98.2102 48.6583 102.009 42.1735Z" fill="#0E549D"/>
<path d="M77.2644 205.461H84.7598V219.281H77.2644V205.461Z" fill="#FFA8A7"/>
<path d="M103.138 204.719L110.633 204.931L110.941 190.367L103.138 190.155V204.719Z" fill="#FFA8A7"/>
<path d="M76.2371 86.1849C76.2371 93.8391 77.3664 155.71 77.3664 155.71C77.1612 157.942 75.313 161.982 75.7237 170.487C76.3397 182.074 77.0584 212.371 77.0584 212.371C77.0584 212.371 80.6521 214.603 85.3752 212.584C85.3752 212.584 91.4331 170.061 92.7678 158.687C93.8973 148.694 96.8748 115.632 96.8748 115.632L100.879 154.647C100.879 154.647 99.5444 160.6 99.9552 167.404C100.263 172.719 102.727 200.253 102.727 200.253C102.727 200.253 106.218 202.805 111.352 200.998C111.352 200.998 115.562 159.537 115.664 154.647C115.767 149.119 113.2 86.1849 113.2 86.1849H76.2371Z" fill="#0E549D"/>
<path d="M84.7596 215.243V214.073C85.4784 214.392 87.1211 221.194 90.0988 224.171C92.4602 226.511 95.6432 229.169 96.4647 231.72C97.286 234.377 91.9468 235.865 89.7906 235.439C87.2238 234.909 82.8088 232.995 81.6793 231.188C80.55 229.381 80.0366 226.723 79.1125 225.448C78.1884 224.171 76.1349 222.683 75.6216 221.089C75.3134 220.238 75.6216 218.431 76.0321 216.836C76.3401 215.454 76.7509 213.859 77.1616 213.966C77.1616 214.18 77.1616 214.817 77.1616 214.817C77.675 215.454 79.2151 216.092 80.8579 216.199C82.09 216.41 84.7596 216.092 84.7596 215.243Z" fill="#263238"/>
<path d="M110.737 202.484C111.147 202.484 111.455 203.123 112.277 204.079C113.303 205.249 115.049 206.631 116.692 207.482C119.464 208.97 124.906 211.308 127.37 212.478C128.91 213.222 128.808 215.243 127.267 216.411C125.727 217.58 121.826 218.324 117.205 217.262C114.741 216.624 111.455 214.178 109.402 214.285C107.348 214.392 103.447 214.392 101.907 213.222C100.366 212.052 100.982 209.714 101.393 207.587C101.907 205.356 102.42 201.74 103.139 201.954V202.698C104.063 204.186 108.683 204.717 110.634 203.654L110.737 202.484Z" fill="#263238"/>
<path d="M96.7729 115.526C96.7729 115.526 102.728 113.719 107.143 109.147C107.143 109.147 105.09 113.187 99.1343 117.014L100.366 151.883L96.7729 115.526Z" fill="#263238"/>
<path d="M80.4466 43.3442C80.4466 43.3442 74.2861 44.8326 74.6967 56.3137L76.0315 74.705V102.239C81.4733 108.723 105.807 108.192 114.124 101.707C114.124 101.707 113.2 69.177 112.584 56.6326C112.173 47.7028 110.222 43.2379 101.7 42.2811L91.3301 42.7065L80.4466 43.3442Z" fill="#F0F0F0"/>
<path d="M88.2504 19.4243C88.2504 26.0153 93.1788 31.437 99.3393 31.437C105.5 31.437 109.093 25.909 110.428 19.4243C112.892 7.62424 105.5 7.41162 99.3393 7.41162C93.1788 7.41162 88.2504 12.8333 88.2504 19.4243Z" fill="#263238"/>
<path d="M82.603 24.2083C82.603 24.2083 84.3485 32.8192 84.9645 34.3074C85.6832 35.6894 87.0181 36.1147 87.0181 36.1147L86.9153 30.0551L82.603 24.2083Z" fill="#263238"/>
<path d="M84.7589 11.8765C84.7589 11.8765 83.5268 11.5576 82.1919 13.6837C81.0626 15.4909 80.8572 19.5306 82.6027 24.3144L85.7856 24.7397L84.7589 11.8765Z" fill="#263238"/>
<path d="M83.5269 13.577L79.6251 13.6833C79.5225 12.5139 80.3439 11.5571 81.3706 11.5571C82.5001 11.5571 83.4243 12.4076 83.5269 13.577Z" fill="#263238"/>
<path d="M83.0132 12.6205L80.1384 9.75025C80.8571 8.89979 82.0892 8.79348 82.9106 9.64394C83.7319 10.4944 83.7319 11.7701 83.0132 12.6205Z" fill="#263238"/>
<path d="M86.7097 24.6334C86.0936 25.0587 85.1697 23.6766 84.3482 22.8263C83.5268 21.9758 81.0626 21.1253 79.7277 23.9957C78.393 26.9721 80.6519 29.8425 82.5001 30.7993C85.7856 32.5001 86.8123 30.0551 86.8123 30.0551L87.1205 43.7688C91.7409 51.2102 102.316 50.9976 98.5174 43.4498V39.3039C98.5174 39.3039 101.7 39.8354 103.241 39.5165C105.807 39.0912 107.45 36.8587 108.272 33.8822C109.504 28.992 110.017 25.165 108.99 15.5973C107.861 5.1792 96.5665 5.07289 90.5088 9.21888C84.4509 13.2585 86.7097 24.6334 86.7097 24.6334Z" fill="#FFA8A7"/>
<path d="M100.777 13.8966C98.107 13.5777 95.4374 13.0461 92.7679 12.8335C92.1519 12.8335 91.5358 12.7272 91.0224 12.9398C88.969 13.4714 89.1743 16.0227 88.8662 17.7237C88.2502 20.7003 87.8395 25.8029 86.71 25.8029C86.402 25.8029 85.1699 23.5705 84.3485 22.8265C83.8352 22.2948 83.7324 21.2318 83.6298 20.4877C83.4244 19.2119 83.3218 18.0426 83.219 16.7669C83.1164 15.7038 83.0137 14.6408 83.0137 13.5777C83.0137 12.4083 83.0137 11.1326 83.3218 9.96323C83.6298 8.90017 84.0406 8.15601 84.7591 7.30555C84.8619 7.19924 84.8619 7.19924 84.9645 7.09294C86.2994 5.60464 87.9422 4.54156 89.7903 3.6911C92.3573 2.62804 95.1295 2.20281 97.9016 1.88388C100.674 1.56496 103.446 1.45865 106.218 0.820808C106.424 0.820808 106.527 0.7145 106.732 0.820808C106.937 0.927114 107.04 1.24604 107.142 1.45865C107.348 2.73433 106.834 4.22264 105.705 4.9668C107.553 5.0731 109.709 4.11633 111.455 3.58479C111.763 3.47849 112.071 3.37218 112.379 3.58479C112.584 3.6911 112.687 3.90372 112.79 4.11633C112.892 4.64787 112.892 5.17941 112.79 5.60464C112.584 7.09294 112.071 8.58125 111.147 9.85692C109.812 11.5578 107.656 13.1524 105.602 13.5777C104.062 14.0029 102.522 14.1092 100.777 13.8966Z" fill="#263238"/>
<path d="M98.6201 39.1967C98.6201 39.1967 92.8702 37.9209 90.8168 36.7515C89.4819 36.0075 88.3526 34.6253 88.0444 33.775C88.0444 33.775 88.4552 35.5821 89.5847 37.2831C91.0221 39.303 98.6201 40.7912 98.6201 40.7912V39.1967Z" fill="#F28F8F"/>
<path d="M97.2852 23.0391C97.2852 23.7831 96.7718 24.3147 96.1557 24.3147C95.5397 24.3147 95.0261 23.7831 95.0261 23.0391C95.0261 22.2949 95.5397 21.7634 96.1557 21.7634C96.7718 21.7634 97.2852 22.4012 97.2852 23.0391Z" fill="#263238"/>
<path d="M95.437 17.9371L92.9728 19.4254C92.562 18.6812 92.8702 17.7245 93.5889 17.2992C94.2049 16.874 95.0262 17.1929 95.437 17.9371Z" fill="#263238"/>
<path d="M98.1068 31.7566L100.776 32.8197C100.468 33.67 99.7496 34.0953 99.0309 33.7763C98.2096 33.4574 97.9016 32.5006 98.1068 31.7566Z" fill="#F28F8F"/>
<path d="M107.861 18.9997L105.602 17.0862C106.013 16.342 106.937 16.2357 107.553 16.7673C108.169 17.2988 108.374 18.3619 107.861 18.9997Z" fill="#263238"/>
<path d="M106.834 22.7207C106.834 23.4649 106.321 23.9964 105.705 23.9964C105.089 23.9964 104.576 23.4649 104.576 22.7207C104.576 21.9767 105.089 21.4451 105.705 21.4451C106.321 21.4451 106.834 21.9767 106.834 22.7207Z" fill="#263238"/>
<path d="M100.674 21.7634L100.776 29.3111L104.986 28.3545L100.674 21.7634Z" fill="#F28F8F"/>
<path d="M199.14 85.0161L192.774 81.1891L190.207 77.9999L196.676 81.8269L199.14 85.0161Z" fill="#27DEBF"/>
<path opacity="0.4" d="M199.14 85.0161L192.774 81.1891L190.207 77.9999L196.676 81.8269L199.14 85.0161Z" fill="black"/>
<path d="M181.685 95.5409L175.217 91.6075L169.877 86.7174L176.346 90.5444L181.685 95.5409Z" fill="#27DEBF"/>
<path opacity="0.4" d="M181.685 95.5409L175.217 91.6075L169.877 86.7174L176.346 90.5444L181.685 95.5409Z" fill="black"/>
<path d="M126.959 108.83C125.522 110.637 124.495 113.401 124.289 116.059C125.727 114.145 126.754 111.487 126.959 108.83ZM112.071 108.936C114.227 93.6276 122.133 78.6384 131.579 72.8976C136.097 70.24 140.307 70.1337 143.695 72.1536C144.722 72.7913 148.316 74.9175 149.753 75.768C149.856 75.8743 149.958 75.8743 150.061 75.9806C150.369 76.0869 150.575 76.2994 150.882 76.5122C151.396 76.8311 151.807 77.2562 152.32 77.6816C152.423 77.7879 152.423 77.7879 152.525 77.8942C152.731 78.1067 152.936 78.3193 153.039 78.5319C153.244 78.7447 153.449 79.0635 153.655 79.3824C154.065 79.914 154.476 80.5518 154.887 81.296C155.092 81.6148 155.195 81.9339 155.4 82.3591L208.175 50.6794L214.644 54.5066V58.7589L214.131 59.0778L213.617 59.3967V60.3534L214.644 60.9914V63.4364L206.841 80.4455L199.14 85.0167L196.573 81.8274L189.797 85.9734L185.895 92.8836L181.583 95.4349L176.243 90.5446L169.672 94.4781L167.413 103.94L156.324 110.531C155.811 112.976 155.092 115.314 154.271 117.653C154.168 117.866 154.065 118.185 154.065 118.397C150.369 128.39 144.517 137.001 137.945 140.934C137.124 141.466 136.303 141.891 135.481 142.21C134.968 142.423 134.557 142.529 134.146 142.742C133.736 142.848 133.325 142.954 132.914 143.06C131.579 143.273 130.245 143.273 129.013 143.06C128.807 143.06 128.705 142.954 128.499 142.954C128.294 142.848 127.986 142.848 127.781 142.742C127.575 142.635 127.37 142.635 127.164 142.529C126.959 142.423 126.754 142.316 126.548 142.21C126.343 142.104 126.138 141.997 126.035 141.891C125.932 141.785 125.83 141.785 125.727 141.679C125.727 141.679 125.624 141.679 125.624 141.572C124.187 140.722 120.491 138.489 119.566 137.958C114.638 134.981 111.558 127.646 111.558 117.122C111.455 114.358 111.66 111.7 112.071 108.936Z" fill="#00E7FF"/>
<path d="M128.716 121.848C131.283 120.359 133.336 115.788 133.336 111.748C133.336 107.709 131.283 105.689 128.716 107.177C126.149 108.665 124.096 113.237 124.096 117.276C124.096 121.316 126.149 123.336 128.716 121.848ZM118.243 113.024C120.399 97.8221 128.305 82.7264 137.752 77.0921C142.167 74.4345 146.171 74.3283 149.457 76.1354C149.559 76.2416 149.662 76.2416 149.765 76.3479C150.073 76.4544 150.278 76.667 150.586 76.8796C151.099 77.1984 151.51 77.6238 152.024 78.0489C152.126 78.1552 152.126 78.1552 152.229 78.2615C152.434 78.4741 152.639 78.6869 152.742 78.8994C152.947 79.112 153.153 79.4309 153.358 79.7498C153.769 80.2814 154.18 80.9193 154.59 81.6633C154.796 81.9824 154.898 82.3013 155.104 82.7264C156.028 84.5337 156.644 86.7662 157.157 89.2112L214.45 54.6614V58.9137L213.937 59.2326L213.423 59.5514V60.5082L214.45 61.1461V63.5912L206.647 80.6003L198.946 85.1714L196.379 81.9824L189.603 86.1282L185.701 93.0383L181.389 95.5896L176.05 90.6994L169.478 94.6329L167.219 104.094L156.13 110.685C155.617 113.13 154.898 115.469 154.077 117.808C153.974 118.02 153.872 118.339 153.872 118.552C150.175 128.545 144.323 137.156 137.752 141.089C136.93 141.621 136.109 142.046 135.287 142.365C134.774 142.578 134.363 142.684 133.953 142.896C133.542 143.003 133.131 143.109 132.721 143.215C131.386 143.428 130.051 143.428 128.819 143.215C128.613 143.215 128.511 143.109 128.305 143.109C128.1 143.003 127.792 143.003 127.587 142.896C127.381 142.79 127.176 142.79 126.971 142.684C126.765 142.578 126.56 142.471 126.355 142.365C126.149 142.258 125.944 142.152 125.841 142.046C125.738 141.94 125.636 141.94 125.533 141.833C125.533 141.833 125.431 141.833 125.431 141.727C120.707 138.644 117.73 131.309 117.73 121.103C117.73 118.446 117.935 115.682 118.243 113.024Z" fill="#00E7FF"/>
<path opacity="0.4" d="M124.289 117.122C124.289 121.161 126.343 123.181 128.91 121.693C131.477 120.205 133.53 115.633 133.53 111.594C133.53 107.554 131.477 105.534 128.91 107.022C128.191 107.448 127.575 108.086 127.062 108.83C126.856 111.487 125.83 114.251 124.392 116.059C124.289 116.377 124.289 116.696 124.289 117.122Z" fill="black"/>
<path opacity="0.4" d="M111.455 117.015C111.455 127.539 114.638 134.874 119.464 137.851C120.49 138.382 124.084 140.615 125.522 141.465C120.799 138.382 117.821 131.047 117.821 120.842C117.821 118.184 118.026 115.42 118.437 112.762C120.593 97.5602 128.499 82.4646 137.945 76.8303C142.36 74.1727 146.365 74.0662 149.65 75.8735C148.213 75.023 144.619 72.8969 143.592 72.2591C140.204 70.2393 135.995 70.3455 131.477 73.0031C122.031 78.6376 114.125 93.7331 111.968 109.041C111.66 111.699 111.455 114.357 111.455 117.015Z" fill="#00E7FF"/>
<path d="M117.923 120.948C117.923 131.154 120.901 138.489 125.624 141.572C124.187 140.721 120.49 138.489 119.566 137.957C114.638 134.981 111.558 127.646 111.558 117.121C111.558 116.696 111.558 116.377 111.558 115.952C113.816 117.228 115.973 118.61 118.026 119.779C117.923 120.098 117.923 120.523 117.923 120.948Z" fill="#279CDE" fill-opacity="0.3"/>
<path opacity="0.15" d="M157.146 93.201V95.3271L214.644 60.9899L213.617 60.3522V59.3954L157.146 93.201Z" fill="black"/>
<path opacity="0.15" d="M157.146 94.0518V95.3276L214.644 60.9902L213.617 60.3525V60.2462L157.146 94.0518Z" fill="black"/>
<path opacity="0.15" d="M129.59 137.076C121.566 134.526 118.798 119.856 123.407 104.308C128.015 88.7603 138.256 78.2233 146.279 80.7728C154.302 83.3223 157.07 97.9928 152.462 113.54C147.853 129.088 137.613 139.625 129.59 137.076Z" stroke="black" stroke-miterlimit="10"/>
<path opacity="0.4" d="M155.298 82.3591C156.222 84.1663 156.838 86.3988 157.351 88.8438L214.644 54.5066L208.175 50.6794L155.298 82.3591Z" fill="#00E7FF"/>
<path d="M80.9598 85.655C77.9822 79.808 74.4913 66.5196 72.8484 59.9285C70.3842 50.4673 74.3887 44.514 78.8037 44.3014C81.5759 44.7267 90.714 79.2765 90.714 79.2765C91.7409 80.127 105.705 87.4621 110.12 89.2694C110.941 89.5883 111.762 89.5883 112.584 89.2694C114.74 88.4189 116.177 88.6315 118.334 88.4189C119.977 88.2063 120.798 87.6749 121.003 87.9938C121.311 88.4189 121.414 89.5883 120.182 90.5451C119.566 90.9704 118.539 91.3956 117.307 91.8207C117.307 91.8207 119.669 92.6712 122.852 92.5649C127.164 92.4587 128.704 94.3722 125.418 98.9434C123.365 101.814 119.977 102.664 112.379 100.006C110.222 99.2623 107.245 97.6678 104.473 96.711C98.8253 94.5848 97.2852 94.3722 92.973 92.7775C86.6071 90.4388 82.2947 88.2063 80.9598 85.655Z" fill="#FFA8A7"/>
<path d="M80.4466 43.3434C77.777 43.6623 75.3128 44.3002 73.7727 46.5326C72.2325 48.7651 71.0004 51.848 72.5406 60.3525C74.0807 68.8571 77.1609 77.8932 77.1609 77.8932C77.1609 77.8932 83.2188 80.551 89.79 73.7473L85.375 55.8876C85.2724 55.7813 84.4509 44.1939 80.4466 43.3434Z" fill="#0E549D"/>
</svg>
