<svg width="322" height="322" viewBox="0 0 322 322" fill="none" xmlns="http://www.w3.org/2000/svg">
<path d="M62.661 276.598C118.109 305.578 207.947 305.578 263.396 276.598C318.844 247.618 318.844 200.67 263.396 171.755C207.947 142.775 118.109 142.775 62.661 171.755C7.2126 200.67 7.2126 247.618 62.661 276.598Z" fill="#F5F5F5"/>
<path d="M228.427 250.258C242.973 250.258 254.766 243.454 254.766 235.06C254.766 226.666 242.973 219.862 228.427 219.862C213.88 219.862 202.087 226.666 202.087 235.06C202.087 243.454 213.88 250.258 228.427 250.258Z" fill="#E0E0E0"/>
<path d="M68.0063 227.139C67.6199 222.695 63.5627 213.679 58.4107 208.27C53.2587 202.86 45.5951 199.254 40.5719 201.508C35.8707 203.568 36.9655 209.88 43.2123 213.55C49.4591 217.221 58.6683 221.729 61.8883 228.749L68.0707 237.185L68.0063 227.139Z" fill="#92B4FF"/>
<path opacity="0.1" d="M68.0063 227.139C67.6199 222.695 63.5627 213.679 58.4107 208.27C53.2587 202.86 45.5951 199.254 40.5719 201.508C35.8707 203.568 36.9655 209.88 43.2123 213.55C49.4591 217.221 58.6683 221.729 61.8883 228.749L68.0707 237.185L68.0063 227.139Z" fill="#92B4FF"/>
<path d="M68.8433 233.257C68.7145 233.257 68.5857 233.192 68.5213 232.999C64.2065 217.994 50.7469 206.66 43.1477 204.599C42.9545 204.534 42.8901 204.341 42.8901 204.212C42.9545 204.019 43.0833 203.955 43.2765 203.955C51.0689 206.08 64.7217 217.608 69.1009 232.806C69.1653 232.999 69.0365 233.192 68.9077 233.192C68.9077 233.192 68.9077 233.257 68.8433 233.257Z" fill="white"/>
<path d="M67.4264 243.174C66.4604 240.727 63.0472 236.863 57.7664 233.836C51.9704 230.552 44.822 229.393 43.0188 226.559C40.7648 223.21 43.4696 219.604 49.2012 219.797C54.9328 219.99 65.4944 226.817 68.0704 238.28L67.4264 243.174Z" fill="#6494FF"/>
<path d="M68.328 240.47C68.1992 240.47 68.0704 240.405 68.006 240.276C62.21 227.59 51.8416 223.919 47.1404 223.726C46.9472 223.726 46.8184 223.597 46.8184 223.404C46.8184 223.21 46.9472 223.082 47.1404 223.082C52.2924 223.275 62.5964 227.139 68.5856 240.019C68.65 240.212 68.5856 240.405 68.4568 240.47C68.3924 240.47 68.328 240.47 68.328 240.47Z" fill="white"/>
<path d="M242.917 221.343C242.788 217.736 243.818 211.747 247.36 205.694C251.16 199.254 256.183 194.939 260.369 196.227C264.298 197.45 263.396 202.796 257.536 208.527C253.414 212.584 249.228 217.736 247.296 223.661L244.012 231.26L242.917 221.343Z" fill="#27DEBF"/>
<path d="M242.917 221.343C242.788 217.736 243.818 211.747 247.36 205.694C251.16 199.254 256.183 194.939 260.369 196.227C264.298 197.45 263.396 202.796 257.536 208.527C253.414 212.584 249.228 217.736 247.296 223.661L244.012 231.26L242.917 221.343Z" fill="#27DEBF"/>
<path d="M242.917 221.343C242.788 217.736 243.818 211.747 247.36 205.694C251.16 199.254 256.183 194.939 260.369 196.227C264.298 197.45 263.396 202.796 257.536 208.527C253.414 212.584 249.228 217.736 247.296 223.661L244.012 231.26L242.917 221.343Z" fill="#6494FF"/>
<path d="M243.561 224.048C243.69 224.048 243.754 223.983 243.754 223.854C246.266 213.615 252.641 202.796 258.63 198.738C258.759 198.674 258.759 198.481 258.695 198.416C258.63 198.288 258.437 198.288 258.373 198.352C252.319 202.474 245.815 213.422 243.303 223.79C243.239 223.919 243.368 224.048 243.496 224.112C243.496 224.048 243.496 224.048 243.561 224.048Z" fill="white"/>
<path d="M242.852 232.999C242.852 232.999 245.364 235.511 249.872 236.477C254.38 237.443 256.505 235.446 256.505 235.446C256.505 235.446 254.96 231.067 252.448 229.779C252.448 229.779 256.763 230.938 260.112 233.45C260.112 233.45 262.881 233.643 264.233 229.522C264.233 229.522 262.752 226.881 257.342 225.207C257.342 225.207 260.756 224.563 265.457 226.108C265.779 226.302 267.647 220.892 268.291 218.445C268.935 215.933 267.904 215.933 265.972 215.289C264.04 214.645 257.407 213.937 256.119 214.903C254.831 215.933 253.994 219.54 253.994 219.54C253.994 219.54 252.963 217.414 253.35 215.547C253.35 215.547 251.418 214.774 249.164 215.418C246.91 216.062 246.974 217.157 246.91 218.767C246.781 220.506 246.91 221.6 247.296 223.597C247.296 223.597 245.879 222.18 246.072 217.35C246.072 217.35 242.917 219.733 241.629 221.858C240.212 223.79 240.212 229.522 242.852 232.999Z" fill="#92B4FF"/>
<path d="M242.853 233.257C242.917 233.257 243.046 233.192 243.11 233.128C247.232 225.786 261.336 217.736 266.23 217.092C266.359 217.092 266.488 216.964 266.423 216.835C266.423 216.706 266.294 216.577 266.166 216.642C261.142 217.286 246.846 225.464 242.66 232.935C242.595 233.064 242.66 233.192 242.788 233.257C242.788 233.257 242.788 233.257 242.853 233.257Z" fill="white"/>
<path d="M71.4837 248.133L69.7449 247.103C68.3281 246.266 67.1689 244.269 67.1689 242.659V89.0652C67.1689 87.3908 68.3281 85.3944 69.7449 84.6216L140.585 43.7276C142.002 42.8904 144.32 42.8904 145.737 43.7276L147.476 44.758C148.893 45.5952 150.052 47.5916 150.052 49.2016V202.796C150.052 204.47 148.893 206.466 147.476 207.239L76.6357 248.133C75.2189 248.97 72.9005 248.97 71.4837 248.133Z" fill="#37474F"/>
<path d="M77.5373 92.092L67.9417 86.5536C67.4909 87.3908 67.1689 88.2924 67.1689 89.0652V242.659C67.1689 244.334 68.3281 246.33 69.7449 247.103L71.4837 248.133C72.9005 248.97 75.2189 248.97 76.6357 248.133L77.5373 247.618V92.092Z" fill="#263238"/>
<path d="M74.0601 93.058V246.652C74.0601 248.326 75.2193 248.97 76.6361 248.133L147.476 207.239C148.893 206.402 150.052 204.406 150.052 202.796V49.2016C150.052 47.5272 148.893 46.8832 147.476 47.7204L76.6361 88.6144C75.2193 89.3872 74.0601 91.3836 74.0601 93.058Z" fill="#455A64"/>
<path d="M79.7272 102.782L144.127 65.6236C145.351 64.9152 146.317 65.4948 146.317 66.9116V189.465C146.317 190.882 145.351 192.556 144.127 193.264L79.7272 230.423C78.5036 231.132 77.5376 230.552 77.5376 229.135V106.582C77.5376 105.165 78.5036 103.426 79.7272 102.782Z" fill="#FAFAFA"/>
<path d="M112.313 112.442C119.526 108.256 125.387 111.67 125.387 119.977C125.387 128.285 119.526 138.46 112.313 142.646C105.101 146.832 99.2402 143.419 99.2402 135.111C99.2402 126.739 105.036 116.564 112.313 112.442Z" fill="#92B4FF"/>
<path d="M138.074 157.007C138.074 143.29 128.478 137.236 116.564 144.063L109.158 148.313C97.3084 155.14 87.6484 171.819 87.6484 185.536V189.207L138.009 160.163V157.007H138.074Z" fill="#92B4FF"/>
<path d="M112.056 72.128C113.022 71.5484 113.794 71.9992 113.794 73.094C113.794 74.1888 113.022 75.5412 112.056 76.0564C111.09 76.636 110.317 76.1852 110.317 75.0904C110.317 73.9956 111.09 72.6432 112.056 72.128Z" fill="#263238"/>
<path d="M107.097 80.7577C110.575 78.8257 116.886 75.0905 120.299 73.0297C120.879 72.7077 121.394 72.9009 121.394 73.5449C121.394 74.1889 120.943 74.9617 120.299 75.3481L107.033 83.0117C106.453 83.3337 105.938 83.1405 105.938 82.4965C106.002 81.8525 106.453 81.0797 107.097 80.7577Z" fill="#263238"/>
<path d="M103.748 82.6896C104.263 82.3676 104.714 82.6253 104.714 83.2693C104.714 83.9133 104.263 84.6217 103.748 84.9437C103.233 85.2657 102.782 85.0081 102.782 84.3641C102.782 83.7201 103.169 83.0117 103.748 82.6896Z" fill="#263238"/>
<path d="M112.056 215.74C113.988 214.645 115.533 215.547 115.533 217.736C115.533 219.926 113.988 222.631 112.056 223.726C110.124 224.82 108.578 223.919 108.578 221.729C108.578 219.475 110.124 216.835 112.056 215.74Z" fill="#263238"/>
<path d="M170.789 172.656L162.996 168.148L162.932 168.084C159.068 165.894 153.787 166.216 147.927 169.63C142.453 172.785 137.429 178.066 133.63 184.184C129.251 191.204 126.546 199.382 126.546 206.66C126.546 213.486 128.929 218.252 132.793 220.506L140.649 225.014C144.513 227.525 150.052 227.268 156.17 223.726C167.955 216.899 177.551 200.348 177.551 186.696C177.551 179.676 174.975 174.782 170.789 172.656Z" fill="#00E7FF"/>
<path opacity="0.1" d="M140.521 225.014L132.793 220.57C128.929 218.316 126.546 213.55 126.546 206.724C126.546 199.447 129.315 191.268 133.63 184.248L141.873 189.014C137.494 196.034 134.789 204.148 134.789 211.49C134.789 217.994 136.979 222.631 140.521 225.014Z" fill="black"/>
<path opacity="0.4" d="M170.66 172.592C166.86 170.724 161.773 171.24 156.17 174.46C150.696 177.615 145.673 182.896 141.873 189.014L133.63 184.248C137.429 178.13 142.388 172.85 147.927 169.694C153.787 166.281 159.068 165.959 162.932 168.148L162.996 168.213L170.66 172.592Z" fill="white"/>
<path d="M167.311 181.286L164.349 179.547L152.757 206.917L154.689 208.076L167.311 181.286Z" fill="white"/>
<path d="M150.438 200.799L147.476 199.125L144.32 205.822L147.283 207.561L150.438 200.799Z" fill="white"/>
<path d="M155.462 216.062L147.283 207.561L150.438 200.799L154.689 208.077L167.311 181.286L171.948 185.859L155.462 216.062Z" fill="#F5F5F5"/>
<path d="M144.32 205.823L147.283 207.561L155.462 216.062L152.499 214.388L144.32 205.823Z" fill="#E0E0E0"/>
<path d="M231.196 105.552C238.151 105.552 243.818 99.8845 243.818 92.9293V92.1565C243.818 86.2317 238.988 81.4661 233.128 81.4661H229.264C223.339 81.4661 218.573 86.2961 218.573 92.1565V92.9293C218.509 99.8845 224.176 105.552 231.196 105.552Z" fill="#263238"/>
<path d="M218.122 230.681C216.641 232.291 215.031 233.579 213.292 234.867C213.035 235.06 212.777 235.253 212.648 235.575C212.391 236.026 212.069 237.25 214.194 237.958C216.319 238.666 218.96 238.538 220.827 237.314C222.63 236.219 222.695 233.901 224.369 232.548C225.593 231.582 227.138 231.325 228.169 230.037C228.877 229.135 228.684 227.976 228.298 226.495C227.911 224.885 227.718 223.661 227.203 223.79L227.267 224.498C226.623 225.529 223.21 225.851 221.664 225.142C221.729 225.271 219.088 229.65 218.122 230.681Z" fill="#263238"/>
<path d="M216.642 232.162C217.157 231.711 217.672 231.196 218.123 230.681C218.767 230.037 220.055 227.976 220.892 226.559C221.407 225.722 221.794 224.692 221.665 223.597C221.536 222.502 221.214 219.669 221.214 219.669L226.624 219.282L227.268 224.563C227.396 225.787 226.43 226.817 224.627 228.363C222.888 229.908 220.634 233.45 219.024 234.287C217.414 235.189 216.32 235.124 215.611 234.674C215.032 234.287 214.903 233.901 216.642 232.162Z" fill="#B16668"/>
<path d="M238.731 231.132V230.294C238.409 231.26 236.927 235.382 234.673 237.443C232.87 239.053 230.423 240.985 229.779 242.788C229.135 244.656 233.192 245.3 234.867 245.042C236.799 244.72 239.31 243.561 240.727 241.886C241.693 240.727 242.337 239.31 242.981 238.344C243.689 237.443 245.235 236.348 245.621 235.318C245.815 234.738 245.557 233.45 245.299 232.355C245.042 231.325 244.72 230.23 244.398 230.359C244.398 230.488 244.398 231.003 244.398 231.003C244.011 231.454 242.852 231.904 241.564 231.969C240.727 231.969 238.731 231.776 238.731 231.132Z" fill="#263238"/>
<path d="M233.063 238.924C233.643 238.409 234.158 237.958 234.673 237.507C236.219 236.09 237.443 233.643 238.151 231.969C238.537 231.003 238.731 229.972 238.731 229.006V225.786H244.398V231.067V231.196C244.14 232.355 241.5 235.511 240.019 237.572C239.053 238.924 237.121 240.663 234.867 240.985C232.741 241.178 231.647 240.534 233.063 238.924Z" fill="#B16668"/>
<path d="M243.303 142.775C247.682 152.435 243.174 186.309 243.174 186.309C243.303 187.855 245.106 190.946 245.75 197.837C246.523 205.951 244.527 226.366 244.527 226.366C244.527 226.366 241.886 228.105 238.795 226.624C238.795 226.624 233.386 195.905 232.355 187.791C231.454 180.707 229.779 164.156 229.779 164.156L225.336 187.919C225.336 187.919 226.752 191.783 227.074 194.81C227.525 199.576 227.203 221.536 227.203 221.536C227.203 221.536 225.271 223.017 221.536 222.438C221.536 222.438 215.096 192.363 214.581 186.631C214.259 183.218 218.187 141.294 218.187 141.294L243.303 142.775Z" fill="#27DEBF"/>
<path d="M243.303 142.775C247.682 152.435 243.174 186.309 243.174 186.309C243.303 187.855 245.106 190.946 245.75 197.837C246.523 205.951 244.527 226.366 244.527 226.366C244.527 226.366 241.886 228.105 238.795 226.624C238.795 226.624 233.386 195.905 232.355 187.791C231.454 180.707 229.779 164.156 229.779 164.156L225.336 187.919C225.336 187.919 226.752 191.783 227.074 194.81C227.525 199.576 227.203 221.536 227.203 221.536C227.203 221.536 225.271 223.017 221.536 222.438C221.536 222.438 215.096 192.363 214.581 186.631C214.259 183.218 218.187 141.294 218.187 141.294L243.303 142.775Z" fill="#0E549D"/>
<path opacity="0.3" d="M229.715 164.156L228.298 156.299C228.298 156.299 222.244 155.075 219.475 152.435C219.475 152.435 222.373 156.041 226.624 157.2L228.234 164.091L225.722 185.601L229.715 164.156Z" fill="black"/>
<path d="M250.452 138.589C250.387 137.945 249.228 131.183 248.391 127.448L240.47 129.895L241.887 136.85L248.584 142.195C250.709 141.745 250.516 139.233 250.452 138.589Z" fill="#B16668"/>
<path d="M212.134 124.356L208.398 131.247L214.194 136.206L219.54 127.77L212.134 124.356Z" fill="#B16668"/>
<path d="M226.173 109.029C222.437 109.094 218.38 110.446 216.963 113.344C215.547 116.242 211.683 124.292 211.683 124.292C211.683 124.292 215.16 128.993 220.377 128.671L226.173 109.029Z" fill="#27DEBF"/>
<path d="M226.173 109.029C222.437 109.094 218.38 110.446 216.963 113.344C215.547 116.242 211.683 124.292 211.683 124.292C211.683 124.292 215.16 128.993 220.377 128.671L226.173 109.029Z" fill="#83F3FF"/>
<path d="M233.901 109.158L236.992 109.287C240.341 110.124 241.565 112.378 242.981 115.405C244.076 117.659 244.076 120.299 243.239 122.682L239.311 134.081C239.311 134.081 241.178 138.525 243.303 142.775C233.386 148.313 221.085 145.415 218.123 141.358C217.994 140.521 218.187 136.657 217.93 132.278C217.672 127.577 217.028 122.36 217.737 119.462C219.089 114.117 221.665 109.094 226.753 109.094L233.901 109.158Z" fill="#F5F5F5"/>
<path d="M236.992 109.287C240.341 109.738 245.299 110.446 247.038 118.432C248.777 126.546 249.099 128.478 249.099 128.478C249.099 128.478 246.137 131.44 240.534 131.376C240.534 131.44 235.575 115.469 236.992 109.287Z" fill="#27DEBF"/>
<path d="M236.992 109.287C240.341 109.738 245.299 110.446 247.038 118.432C248.777 126.546 249.099 128.478 249.099 128.478C249.099 128.478 246.137 131.44 240.534 131.376C240.534 131.44 235.575 115.469 236.992 109.287Z" fill="#83F3FF"/>
<path d="M240.405 130.99C239.761 128.864 239.117 126.417 238.538 123.841C238.538 123.841 238.538 129.508 239.504 133.63L240.405 130.99Z" fill="#EBEBEB"/>
<path d="M222.695 86.5536C221.342 87.3264 219.732 90.6752 219.861 97.7592C219.99 103.748 221.922 105.23 222.888 105.616C223.854 106.067 225.722 105.809 227.525 105.487V109.094C227.525 109.094 225.013 111.992 225.142 113.666C225.271 115.34 228.748 115.727 231.131 114.117C233.514 112.507 234.995 110.06 234.995 110.06V101.366C234.995 101.366 236.219 103.04 238.215 101.688C240.212 100.335 240.276 97.0508 239.117 95.8272C237.958 94.668 235.446 94.99 234.931 96.6644C234.931 96.6644 232.033 96.7932 228.169 94.668C224.434 92.5428 222.952 88.872 222.695 86.5536Z" fill="#B16668"/>
<path d="M226.494 96.2779C226.494 96.7287 226.816 97.0507 227.203 97.1151C227.589 97.1151 227.975 96.7931 227.975 96.3423C227.975 95.8915 227.653 95.5695 227.267 95.5051C226.881 95.5051 226.559 95.8271 226.494 96.2779Z" fill="#263238"/>
<path d="M226.301 101.301L224.562 101.881C224.691 102.396 225.206 102.654 225.722 102.525C226.173 102.332 226.43 101.816 226.301 101.301Z" fill="#9A4A4D"/>
<path d="M220.377 93.9595L221.922 92.9291C221.665 92.4783 221.085 92.3495 220.634 92.6715C220.183 92.9291 220.055 93.5087 220.377 93.9595Z" fill="#263238"/>
<path d="M220.698 95.6985C220.698 96.1493 221.02 96.4713 221.407 96.5357C221.793 96.5357 222.179 96.2137 222.179 95.7629C222.179 95.3121 221.857 94.9901 221.471 94.9257C221.085 94.9257 220.698 95.3121 220.698 95.6985Z" fill="#263238"/>
<path d="M224.241 95.312L224.112 99.82L221.729 99.0472L224.241 95.312Z" fill="#9A4A4D"/>
<path d="M227.589 105.487C229.521 105.23 233.45 104.07 234.094 102.525C234.094 102.525 233.901 103.491 232.677 104.521C231.518 105.552 227.589 106.646 227.589 106.646V105.487Z" fill="#9A4A4D"/>
<path d="M196.162 123.906L217.929 129.702L224.369 156.75L203.633 150.696L196.162 123.906Z" fill="#B5CCFF"/>
<path opacity="0.15" d="M205.629 141.809C205.436 142.388 204.212 143.87 201.7 143.805L201.378 142.71L205.629 141.809Z" fill="#B5CCFF"/>
<path opacity="0.15" d="M210.523 142.71C210.588 143.419 212.133 144.771 214.581 145.608C217.414 146.574 221.793 146.059 221.793 146.059L221.407 144.707L210.523 142.71Z" fill="#B5CCFF"/>
<path opacity="0.15" d="M202.538 127.834C202.538 127.834 202.473 127.448 202.344 126.997C202.216 126.546 203.504 126.546 205.178 126.932L208.398 127.77C210.072 128.22 211.489 128.929 211.618 129.38L211.811 130.217L202.538 127.834Z" fill="#B5CCFF"/>
<path d="M200.992 124.743C200.928 124.485 201.443 124.356 202.151 124.55L203.439 124.872C203.439 124.872 203.053 123.068 205.887 123.712C208.72 124.356 209.3 126.353 209.3 126.353C209.3 126.353 209.879 126.546 210.652 126.739C211.425 126.932 212.069 127.383 212.198 127.641L212.327 128.156L201.121 125.194C201.121 125.258 201.057 125 200.992 124.743Z" fill="#B5CCFF"/>
<path d="M202.538 125.644C203.568 125.902 204.019 126.031 204.148 126.739C204.341 127.576 204.405 128.156 204.405 128.156L209.364 129.444C209.364 129.444 209.107 128.414 209.042 128.027C208.978 127.641 209.107 127.383 209.944 127.576L210.008 127.254L202.216 125.258L202.538 125.644Z" fill="#B5CCFF"/>
<path d="M202.409 127.963C202.409 127.963 202.345 127.576 202.216 127.126C202.087 126.675 203.375 126.675 205.05 127.061L208.27 127.898C209.944 128.349 211.361 129.058 211.489 129.508L211.683 130.346L202.409 127.963Z" fill="#B5CCFF"/>
<path d="M248.584 142.131L241.887 136.786C241.887 136.786 227.139 139.426 225.4 139.555C223.661 139.684 221.729 138.46 221.085 136.786C220.441 135.111 219.282 135.304 219.282 135.304C219.282 135.304 219.797 137.494 219.991 138.138C220.184 138.846 215.998 139.362 213.679 138.589C211.361 137.816 208.012 138.911 210.073 142.066C212.134 145.222 216.191 145.544 218.96 145.544C219.733 145.544 221.085 145.48 222.438 145.286C223.339 145.158 224.241 145.093 225.143 145.029C230.874 144.707 246.008 142.968 248.584 142.131Z" fill="#B16668"/>
<path d="M198.352 131.827C198.352 131.827 199.124 134.596 199.318 135.304C199.511 135.948 202.022 137.172 203.632 137.623C205.242 138.074 206.981 138.589 206.208 140.843C205.5 142.904 202.86 143.354 201.507 143.354C200.155 143.29 198.352 142.002 197.579 139.941C196.677 137.301 197.128 134.467 196.806 132.922C196.484 131.312 197.514 130.925 198.352 131.827Z" fill="#B16668"/>
<path d="M242.208 119.462C238.28 119.462 235.06 116.242 235.06 112.314V102.267C238.988 102.267 242.208 105.487 242.208 109.416V119.462Z" fill="#263238"/>
</svg>
