<svg width="345" height="345" viewBox="0 0 345 345" fill="none" xmlns="http://www.w3.org/2000/svg">
<path d="M66.3779 293.224C122.682 324.274 214.038 324.274 270.411 293.224C326.715 262.174 326.715 211.873 270.411 180.892C214.107 149.842 122.751 149.842 66.3779 180.892C10.0739 211.873 10.0739 262.174 66.3779 293.224Z" fill="#F5F5F5"/>
<path d="M238.119 269.445C250.332 275.793 270.135 275.793 282.348 269.445C294.561 263.097 294.561 252.747 282.348 246.33C270.135 239.982 250.332 239.982 238.119 246.33C225.906 252.747 225.906 263.097 238.119 269.445Z" fill="#E0E0E0"/>
<path d="M223.077 256.542C226.734 258.474 232.668 258.474 236.394 256.542C240.051 254.61 240.051 251.505 236.394 249.573C232.737 247.641 226.734 247.641 223.077 249.573C219.42 251.574 219.42 254.679 223.077 256.542Z" fill="#E0E0E0"/>
<path d="M77.9695 257.439C78.1075 251.298 76.4515 241.017 70.3795 230.805C63.8935 219.834 55.4065 212.451 48.2305 214.728C41.5375 216.798 43.0555 225.837 53.0605 235.704C60.0985 242.604 67.2055 251.436 70.5175 261.441L76.1755 274.344L77.9695 257.439Z" fill="#6494FF"/>
<path d="M77.9695 257.439C78.1075 251.298 76.4515 241.017 70.3795 230.805C63.8935 219.834 55.4065 212.451 48.2305 214.728C41.5375 216.798 43.0555 225.837 53.0605 235.704C60.0985 242.604 67.2055 251.436 70.5175 261.441L76.1755 274.344L77.9695 257.439Z" fill="#6494FF"/>
<path d="M76.8656 261.993C76.6586 261.993 76.5206 261.855 76.5206 261.648C72.2426 244.122 61.3406 225.768 51.1976 218.799C50.9906 218.661 50.9216 218.385 51.0596 218.178C51.1976 217.971 51.4736 217.902 51.6806 218.04C61.9616 225.078 73.0016 243.708 77.3486 261.372C77.4176 261.579 77.2796 261.855 77.0036 261.924C77.0036 261.993 76.9346 262.062 76.8656 261.993Z" fill="white"/>
<path d="M78.0387 277.311C78.0387 277.311 73.7607 281.589 66.1017 283.314C58.4427 284.97 54.8547 281.52 54.8547 281.52C54.8547 281.52 57.4767 274.137 61.6857 271.791C61.6857 271.791 54.3717 273.723 48.6447 278.07C48.6447 278.07 43.9527 278.415 41.6067 271.377C41.6067 271.377 44.1597 266.892 53.3367 263.994C53.3367 263.994 47.5407 262.89 39.4677 265.512C38.8467 265.788 35.6727 256.68 34.6377 252.402C33.6027 248.193 35.3277 248.124 38.5707 247.02C41.8827 245.916 53.1987 244.674 55.4067 246.399C57.6147 248.124 59.0637 254.334 59.0637 254.334C59.0637 254.334 60.8577 250.677 60.1677 247.503C60.1677 247.503 63.4797 246.192 67.2747 247.227C71.1387 248.331 71.0007 250.125 71.1387 252.885C71.3457 255.783 71.1387 257.784 70.5177 261.096C70.5177 261.096 73.0017 258.681 72.5877 250.401C72.5877 250.401 77.9007 254.472 80.1777 258.06C82.5237 261.648 82.5927 271.446 78.0387 277.311Z" fill="#92B4FF"/>
<path d="M78.1076 277.725C77.9696 277.725 77.7626 277.656 77.6936 277.518C70.7246 264.96 46.7126 251.298 38.2946 250.194C38.0876 250.194 37.8806 249.918 37.9496 249.711C37.9496 249.504 38.2256 249.297 38.4326 249.366C46.9196 250.47 71.3456 264.339 78.4526 277.104C78.5906 277.311 78.5216 277.587 78.3146 277.725C78.1766 277.725 78.1076 277.725 78.1076 277.725Z" fill="white"/>
<path d="M272.55 238.602C272.55 238.602 273.516 230.184 277.656 223.698C281.865 217.143 287.592 213.072 292.974 212.658C298.356 212.244 302.634 217.143 296.907 220.524C291.18 223.905 280.968 227.355 276.276 240.051L272.55 238.602Z" fill="#92B4FF"/>
<path opacity="0.1" d="M272.55 238.602C272.55 238.602 273.516 230.184 277.656 223.698C281.865 217.143 287.592 213.072 292.974 212.658C298.356 212.244 302.634 217.143 296.907 220.524C291.18 223.905 280.968 227.355 276.276 240.051L272.55 238.602Z" fill="#92B4FF"/>
<path d="M274.137 236.394C274.137 236.394 274.068 236.394 274.137 236.394C273.93 236.325 273.861 236.118 273.93 235.98C279.588 222.042 290.352 216.246 295.251 215.073C295.389 215.004 295.527 215.142 295.596 215.28C295.665 215.418 295.527 215.556 295.389 215.625C290.559 216.729 280.002 222.456 274.482 236.187C274.413 236.394 274.275 236.463 274.137 236.394Z" fill="white"/>
<path d="M302.771 236.601C302.288 237.705 301.115 238.257 300.011 238.74C298.907 239.154 297.665 239.637 297.113 240.672C295.871 242.742 297.872 245.709 296.561 247.71C296.009 248.538 294.974 249.021 294.008 249.159C293.18 249.297 292.352 249.297 291.524 249.366C291.11 249.366 290.696 249.297 290.351 249.297C289.178 249.159 287.936 249.09 286.901 249.642C285.245 250.608 284.762 252.678 283.727 254.265C282.485 256.197 280.346 257.439 278.138 257.784C277.379 257.853 275.999 257.991 275.24 257.577C275.171 257.577 275.102 257.508 275.102 257.508C274.964 257.37 274.895 257.232 274.826 257.163C274.826 257.163 274.826 257.163 274.826 257.094C274.55 255.99 275.033 254.886 275.033 253.782C275.033 253.713 275.033 253.644 275.033 253.575C274.964 252.264 274.964 250.953 274.895 249.711C274.826 247.296 274.826 244.95 274.826 242.535C274.826 240.948 274.688 239.292 275.309 237.843C276.068 236.256 277.862 236.187 278.552 234.6C278.828 233.979 278.966 233.289 279.242 232.668C280.001 230.805 281.933 229.494 284.003 229.356C287.177 229.218 290.006 231.771 293.18 231.495C294.008 231.426 294.767 231.15 295.595 231.012C298.148 230.529 301.115 231.288 302.564 233.427C302.909 234.393 303.185 235.566 302.771 236.601Z" fill="#6494FF"/>
<path d="M274.412 252.195C274.274 252.126 274.136 251.988 274.205 251.85C278.552 235.497 295.802 233.082 299.873 233.427C300.011 233.427 300.149 233.565 300.149 233.703C300.149 233.841 300.011 233.979 299.873 233.979C295.94 233.703 279.035 235.98 274.757 252.057C274.688 252.126 274.55 252.195 274.412 252.195Z" fill="white"/>
<path d="M293.525 243.915C293.456 243.915 293.456 243.846 293.387 243.846C293.318 243.777 288.971 239.499 281.657 240.534C281.519 240.534 281.381 240.465 281.381 240.327C281.381 240.189 281.45 240.051 281.588 240.051C289.178 238.947 293.732 243.432 293.801 243.501C293.939 243.639 293.87 243.777 293.801 243.915C293.732 243.915 293.663 243.915 293.525 243.915Z" fill="white"/>
<path d="M264.794 123.089C265.454 119.026 262.695 115.198 258.632 114.539C254.57 113.88 250.742 116.638 250.082 120.701C249.423 124.763 252.182 128.591 256.245 129.251C260.307 129.91 264.135 127.151 264.794 123.089Z" fill="#263238"/>
<path d="M248.538 145.314L237.843 157.734L223.491 151.524L223.215 159.321C223.215 159.321 234.945 164.841 236.739 165.186C238.533 165.531 240.258 165.945 241.845 164.772C243.708 163.392 250.263 155.733 250.263 155.733L248.538 145.314Z" fill="#FFA8A7"/>
<path d="M258.198 138.897C253.92 138.621 250.539 141.864 248.124 144.762C245.64 147.66 242.466 152.214 242.466 152.214C242.466 152.214 244.191 157.251 248.745 158.769L256.542 149.523L258.198 138.897Z" fill="#E0E0E0"/>
<path d="M275.31 248.538H270.066V257.577H275.31V248.538Z" fill="#FFA8A7"/>
<path d="M257.094 251.229L251.781 251.436L251.505 241.914L256.818 241.707L257.094 251.229Z" fill="#FFA8A7"/>
<path d="M274.965 176.985C274.965 182.022 275.586 212.52 275.586 212.52C275.724 213.969 277.035 216.66 276.759 222.18C276.345 229.77 275.724 249.366 275.724 249.366C275.724 249.366 273.24 251.85 269.79 249.366C269.79 249.366 265.029 222.18 264.063 214.728C263.235 208.173 261.855 190.44 261.855 190.44L258.957 215.073C258.957 215.073 259.785 219.972 259.992 223.422C260.199 226.872 257.163 244.467 257.163 244.467C257.163 244.467 254.472 246.33 251.436 244.674C251.436 244.674 249.159 217.833 248.607 214.728C248.055 211.623 250.332 176.916 250.332 176.916H274.965V176.985Z" fill="#0E549D"/>
<path d="M269.929 140.622C272.206 141.036 274.069 142.761 274.552 145.038C274.828 146.142 274.966 147.522 274.966 149.04V159.39V177.054C271.24 181.056 258.406 182.919 250.333 177.054C250.333 177.054 250.471 152.352 251.092 148.281C252.127 141.243 255.508 138.69 258.889 138.966L267.031 140.07L269.929 140.622Z" fill="#F0F0F0"/>
<path d="M270.342 127.236C270.342 127.236 269.1 132.963 268.617 133.86C268.134 134.826 267.099 135.033 267.099 135.033L267.168 131.031L270.342 127.236Z" fill="#263238"/>
<path d="M268.824 119.094C268.824 119.094 270.135 118.887 271.17 119.922C272.136 120.957 271.584 124.131 270.342 127.236L268.065 127.512L268.824 119.094Z" fill="#263238"/>
<path d="M267.375 127.512C267.858 127.788 268.479 126.891 269.031 126.339C269.583 125.718 271.446 124.959 272.343 126.891C273.309 128.892 271.515 131.445 270.066 131.928C267.582 132.687 267.168 131.1 267.168 131.1L267.03 140.07C267.03 140.07 265.374 144.072 260.958 144.693C256.542 145.314 257.439 141.657 258.888 139.863V137.103C258.888 137.103 256.611 137.448 255.507 137.31C253.644 137.034 252.54 135.585 251.919 133.584C251.022 130.41 250.677 127.788 251.436 121.509C252.264 114.609 260.268 114.54 264.615 117.3C269.031 119.991 267.375 127.512 267.375 127.512Z" fill="#FFA8A7"/>
<path d="M267.375 128.271C267.582 128.271 268.479 126.822 269.031 126.27C269.79 125.58 268.824 119.025 268.824 119.025C268.824 119.025 269.583 117.438 268.065 115.713C266.961 114.54 265.167 114.402 262.062 113.919C260.475 113.643 257.991 113.229 256.335 112.884C254.403 112.539 252.816 112.125 251.436 113.298C250.401 114.195 249.918 115.851 250.47 117.162C250.608 117.438 250.815 117.714 251.022 117.99C251.436 118.404 251.85 118.749 252.402 118.956C252.402 118.956 253.23 119.715 256.197 120.06C259.095 120.405 263.718 119.991 264.339 119.922C265.167 119.784 265.374 120.612 265.857 122.889C266.271 124.89 266.616 128.271 267.375 128.271Z" fill="#263238"/>
<path d="M268.824 119.577L271.584 118.059C271.17 117.231 270.273 116.955 269.514 117.369C268.755 117.783 268.41 118.818 268.824 119.577Z" fill="#263238"/>
<path d="M258.957 137.103C258.957 137.103 263.097 136.275 264.477 135.516C265.443 135.033 266.202 134.136 266.478 133.584C266.478 133.584 266.202 134.826 265.374 135.93C264.339 137.241 258.957 138.276 258.957 138.276V137.103Z" fill="#F28F8F"/>
<path d="M259.923 126.477C259.923 126.96 260.268 127.305 260.751 127.305C261.234 127.305 261.579 126.891 261.579 126.477C261.579 125.994 261.234 125.649 260.751 125.649C260.268 125.649 259.923 125.994 259.923 126.477Z" fill="#263238"/>
<path d="M260.82 123.372L262.614 124.338C262.89 123.855 262.683 123.234 262.2 122.958C261.648 122.682 261.027 122.889 260.82 123.372Z" fill="#263238"/>
<path d="M259.302 132.135L257.439 132.825C257.646 133.377 258.198 133.653 258.681 133.446C259.233 133.308 259.509 132.687 259.302 132.135Z" fill="#F28F8F"/>
<path d="M252.54 124.062L254.127 122.82C253.782 122.337 253.161 122.268 252.747 122.613C252.333 122.958 252.264 123.579 252.54 124.062Z" fill="#263238"/>
<path d="M253.092 126.27C253.092 126.753 253.437 127.098 253.92 127.098C254.403 127.098 254.748 126.684 254.748 126.27C254.748 125.787 254.403 125.442 253.92 125.442C253.437 125.373 253.092 125.787 253.092 126.27Z" fill="#263238"/>
<path d="M257.232 125.442L257.025 130.41L254.403 129.513L257.232 125.442Z" fill="#F28F8F"/>
<path d="M270.066 254.955V254.196C269.583 254.403 268.41 258.888 266.271 260.82C264.615 262.338 262.338 264.063 261.786 265.788C261.165 267.513 264.96 268.548 266.478 268.272C268.272 267.927 271.377 266.685 272.205 265.512C272.964 264.339 273.378 262.614 273.999 261.717C274.62 260.82 276.138 259.923 276.483 258.888C276.69 258.336 276.414 257.163 276.207 256.128C275.931 255.162 275.724 254.196 275.379 254.265C275.379 254.403 275.379 254.817 275.379 254.817C274.965 255.231 273.93 255.645 272.757 255.714C271.929 255.714 270.066 255.576 270.066 254.955Z" fill="#263238"/>
<path d="M251.712 249.78C251.436 249.78 251.229 250.194 250.608 250.815C249.849 251.574 248.676 252.471 247.503 253.023C245.502 253.989 241.707 255.507 239.982 256.335C238.878 256.818 238.947 258.129 240.051 258.888C241.155 259.647 243.846 260.199 247.158 259.44C248.952 259.026 251.229 257.439 252.678 257.508C254.127 257.577 256.887 257.577 257.922 256.818C259.026 256.059 258.543 254.472 258.267 253.161C257.922 251.643 257.439 249.366 256.956 249.504V249.987C256.335 250.953 253.092 251.367 251.712 250.608V249.78Z" fill="#263238"/>
<path d="M261.855 190.44C261.855 190.44 257.646 189.267 254.541 186.231C254.541 186.231 255.99 188.853 260.199 191.337L258.957 215.073L261.855 190.44Z" fill="#263238"/>
<path d="M239.499 227.01L230.598 252.885C230.322 253.644 229.287 253.644 229.011 252.885L220.248 226.803L239.499 227.01Z" fill="#FFA8A7"/>
<path d="M229.011 252.885C229.287 253.644 230.322 253.644 230.598 252.885L232.323 247.848C230.805 248.676 228.942 248.538 227.493 247.572L227.079 247.296L229.011 252.885Z" fill="#263238"/>
<path d="M220.593 111.366V113.919V116.955L220.248 226.803C222.249 229.149 225.285 230.322 228.321 230.598C232.944 231.081 237.705 229.563 239.43 227.01L239.706 117.231V111.366C239.568 115.161 220.455 115.161 220.593 111.366Z" fill="#00E7FF"/>
<path d="M220.593 120.957V126.615C220.524 128.271 224.043 129.306 228.045 129.651C233.427 130.134 239.706 128.685 239.775 126.546V122.406V120.888C239.706 123.027 233.358 124.545 228.045 123.993C224.181 123.648 220.8 122.613 220.593 121.095C220.524 121.095 220.524 121.026 220.593 120.957Z" fill="#EBEBEB"/>
<path d="M220.593 122.406C220.455 126.201 239.637 126.201 239.775 122.337V116.679C239.637 120.474 220.455 120.543 220.593 116.748V122.406Z" fill="#00E7FF"/>
<path d="M220.593 111.366V116.955C220.455 120.681 238.947 120.819 239.775 117.231C239.775 117.162 239.775 117.093 239.775 117.024V111.366C239.568 115.161 220.455 115.161 220.593 111.366Z" fill="#EBEBEB"/>
<path opacity="0.1" d="M239.775 117.231V111.366C239.706 113.091 235.773 114.333 231.426 114.54L231.15 230.667L230.667 252.885L239.568 227.01L239.775 117.231Z" fill="black"/>
<path d="M220.731 87.63L220.662 111.366C220.593 113.022 224.043 114.057 228.045 114.471C233.427 115.023 239.706 113.574 239.844 111.435L239.913 87.63C239.913 82.869 230.322 81.696 224.595 83.697C222.387 84.318 220.869 85.629 220.731 87.63Z" fill="#F28F8F"/>
<path d="M283.038 184.851C282.831 187.128 282.555 190.233 282.072 191.958C280.485 198.03 278.484 199.893 275.793 200.031C271.515 200.307 271.446 198.72 273.378 195.96C274.827 193.89 275.31 192.027 275.31 192.027C274.482 192.648 273.792 193.131 273.24 193.338C272.136 193.752 271.515 193.2 271.308 192.786C271.17 192.51 271.929 192.234 272.757 191.199C273.792 189.888 274.344 188.922 275.793 187.818C276.345 187.404 276.483 186.714 276.69 186.024C276.897 185.127 277.035 171.327 276.276 168.498L272.55 155.25C269.514 153.18 266.34 142.968 270.894 140.76C275.172 141.243 278.346 146.832 282.969 164.22C283.797 167.394 283.521 180.159 283.038 184.851Z" fill="#FFA8A7"/>
<path d="M269.928 140.622C269.928 140.622 268.203 141.864 268.065 144.762C267.927 147.66 269.307 151.8 270.135 154.422C270.963 157.044 272.688 161.736 272.688 161.736C272.688 161.736 279.726 160.908 281.382 156.768C281.382 156.768 278.07 146.073 274.896 142.554C272.688 140.208 269.928 140.622 269.928 140.622Z" fill="#E0E0E0"/>
<path d="M224.664 143.175C224.664 143.175 226.389 141.795 229.632 142.347C231.219 142.623 230.598 148.626 225.492 150.282C222.18 151.386 221.49 150.834 220.455 153.525C220.455 153.525 218.454 153.111 218.937 150.075C219.42 147.039 220.731 144.21 223.008 141.588C224.457 139.863 224.595 138.414 225.285 138.897C226.113 139.449 225.63 140.898 225.63 140.898L224.664 143.175Z" fill="#FFA8A7"/>
<path d="M92.8051 273.378L97.0141 275.793C98.1871 276.483 100.05 276.483 101.223 275.793L179.745 230.667C180.918 229.977 180.918 228.942 179.745 228.252L175.536 225.837C174.363 225.147 172.5 225.147 171.327 225.837L92.8051 270.963C91.7011 271.584 91.7011 272.688 92.8051 273.378Z" fill="#E0E0E0"/>
<path d="M89.0102 269.997L87.1472 268.893C85.6292 267.996 84.3872 265.857 84.3872 264.132V99.567C84.3872 97.773 85.6292 95.634 87.1472 94.806L163.047 50.991C164.565 50.094 167.049 50.094 168.567 50.991L170.43 52.095C171.948 52.992 173.19 55.131 173.19 56.856V221.421C173.19 223.215 171.948 225.354 170.43 226.182L94.5302 269.997C93.0122 270.894 90.5282 270.894 89.0102 269.997Z" fill="#37474F"/>
<path d="M95.4962 102.81L85.2152 96.876C84.7322 97.773 84.3872 98.739 84.3872 99.567V264.132C84.3872 265.926 85.6292 268.065 87.1472 268.893L89.0102 269.997C90.5282 270.894 93.0122 270.894 94.5302 269.997L95.4962 269.445V102.81Z" fill="#263238"/>
<path d="M91.77 103.845V268.41C91.77 270.204 93.012 270.894 94.53 269.997L170.43 226.182C171.948 225.285 173.19 223.146 173.19 221.421V56.856C173.19 55.062 171.948 54.372 170.43 55.269L94.53 99.084C93.012 99.912 91.77 102.051 91.77 103.845Z" fill="#455A64"/>
<path d="M97.8421 114.264L166.842 74.451C168.153 73.692 169.188 74.313 169.188 75.831V207.138C169.188 208.656 168.153 210.45 166.842 211.209L97.8421 251.022C96.5311 251.781 95.4961 251.16 95.4961 249.642V118.335C95.4961 116.817 96.5311 114.954 97.8421 114.264Z" fill="#FAFAFA"/>
<path d="M132.48 81.42C133.515 80.799 134.343 81.282 134.343 82.455C134.343 83.628 133.515 85.077 132.48 85.629C131.445 86.25 130.617 85.767 130.617 84.594C130.617 83.421 131.445 81.972 132.48 81.42Z" fill="#263238"/>
<path d="M127.167 90.6661C130.893 88.5961 137.655 84.5941 141.312 82.3861C141.933 82.0411 142.485 82.2481 142.485 82.9381C142.485 83.6281 142.002 84.4561 141.312 84.8701L127.098 93.0811C126.477 93.4261 125.925 93.2191 125.925 92.5291C125.994 91.8391 126.477 91.0111 127.167 90.6661Z" fill="#263238"/>
<path d="M123.579 92.7361C124.131 92.391 124.614 92.6671 124.614 93.3571C124.614 94.0471 124.131 94.8061 123.579 95.1511C123.027 95.4961 122.544 95.2201 122.544 94.5301C122.544 93.8401 122.958 93.0811 123.579 92.7361Z" fill="#263238"/>
<path d="M99.1533 133.653L111.504 125.925V141.381L99.1533 149.109V133.653Z" fill="#FAFAFA"/>
<path d="M99.7051 133.929V148.143L111.021 141.105V126.891L99.7051 133.929ZM99.1531 149.661C99.0841 149.661 98.9461 149.661 98.8771 149.592C98.7391 149.523 98.6011 149.316 98.6011 149.109V133.653C98.6011 133.446 98.6701 133.308 98.8771 133.17L111.228 125.442C111.366 125.373 111.573 125.373 111.711 125.442C111.849 125.511 111.987 125.718 111.987 125.925V141.45C111.987 141.657 111.918 141.795 111.711 141.933L99.3601 149.661C99.3601 149.592 99.2911 149.661 99.1531 149.661Z" fill="#00E7FF"/>
<path d="M117.714 122.613V123.717C117.714 124.338 118.128 124.545 118.611 124.269L162.633 96.945C163.116 96.669 163.53 95.91 163.53 95.289V94.185C163.53 93.564 163.116 93.357 162.633 93.633L118.611 120.957C118.128 121.233 117.714 121.992 117.714 122.613Z" fill="#E0E0E0"/>
<path d="M117.714 129.375V130.479C117.714 131.1 118.128 131.307 118.611 131.031L162.564 103.776C163.047 103.5 163.461 102.741 163.461 102.12V101.016C163.461 100.395 163.047 100.188 162.564 100.464L118.611 127.719C118.128 128.064 117.714 128.754 117.714 129.375Z" fill="#E0E0E0"/>
<path d="M117.714 136.137V137.241C117.714 137.862 118.128 138.069 118.611 137.793L162.564 110.607C163.047 110.331 163.461 109.572 163.461 108.951V107.847C163.461 107.226 163.047 107.019 162.564 107.295L118.611 134.55C118.128 134.757 117.714 135.516 117.714 136.137Z" fill="#E0E0E0"/>
<path d="M105.57 141.588L102.672 138.621L103.914 135.792L105.57 137.448L112.332 121.992L113.574 123.303L105.57 141.588Z" fill="#00E7FF"/>
<path d="M99.1533 162.012L111.504 154.284L111.435 169.809L99.1533 177.468V162.012Z" fill="#FAFAFA"/>
<path d="M99.7051 162.288V176.502L110.952 169.464V155.25L99.7051 162.288ZM99.1531 178.02C99.0841 178.02 98.9461 178.02 98.8771 177.951C98.7391 177.882 98.6011 177.675 98.6011 177.468V162.012C98.6011 161.805 98.6701 161.667 98.8771 161.529L111.159 153.87C111.297 153.801 111.504 153.801 111.642 153.87C111.78 153.939 111.918 154.146 111.918 154.353V169.878C111.918 170.085 111.849 170.223 111.642 170.361L99.3601 178.02C99.3601 177.951 99.2911 178.02 99.1531 178.02Z" fill="#00E7FF"/>
<path d="M117.714 151.041V152.145C117.714 152.766 118.128 152.973 118.611 152.697L162.495 125.58C162.978 125.304 163.392 124.545 163.392 123.924V122.82C163.392 122.199 162.978 121.923 162.495 122.268L118.611 149.385C118.059 149.661 117.714 150.42 117.714 151.041Z" fill="#E0E0E0"/>
<path d="M117.645 157.803V158.907C117.645 159.528 118.059 159.735 118.542 159.459L162.357 132.411C162.84 132.135 163.254 131.376 163.254 130.755V129.651C163.254 129.03 162.84 128.754 162.357 129.099L118.473 156.216C118.059 156.492 117.714 157.182 117.645 157.803Z" fill="#E0E0E0"/>
<path d="M117.645 164.565V165.669C117.645 166.29 118.059 166.497 118.542 166.221L162.357 139.173C162.84 138.897 163.254 138.138 163.254 137.517V136.413C163.254 135.792 162.84 135.516 162.357 135.861L118.542 162.909C118.059 163.185 117.645 163.944 117.645 164.565Z" fill="#E0E0E0"/>
<path d="M105.501 169.947L102.672 166.98L103.914 164.151L105.501 165.876L112.332 150.42L113.574 151.662L105.501 169.947Z" fill="#00E7FF"/>
<path d="M99.1533 190.371L111.435 182.712V198.237L99.1533 205.827V190.371Z" fill="#FAFAFA"/>
<path d="M99.7051 190.647V204.861L110.952 197.892V183.678L99.7051 190.647ZM99.1531 206.379C99.0841 206.379 98.9461 206.379 98.8771 206.31C98.7391 206.241 98.6011 206.034 98.6011 205.827V190.371C98.6011 190.164 98.6701 190.026 98.8771 189.888L111.159 182.298C111.297 182.229 111.504 182.229 111.642 182.298C111.78 182.367 111.918 182.574 111.918 182.781V198.306C111.918 198.513 111.849 198.651 111.642 198.789L99.3601 206.379C99.3601 206.31 99.2911 206.379 99.1531 206.379Z" fill="#0E549D"/>
<path d="M117.645 179.469V180.573C117.645 181.194 118.059 181.401 118.542 181.125L162.288 154.215C162.771 153.939 163.185 153.18 163.185 152.559V151.455C163.185 150.834 162.771 150.558 162.288 150.903L118.542 177.882C118.059 178.158 117.645 178.848 117.645 179.469Z" fill="#E0E0E0"/>
<path d="M117.645 186.231V187.335C117.645 187.956 118.059 188.163 118.542 187.887L162.288 160.977C162.771 160.701 163.185 159.942 163.185 159.321V158.217C163.185 157.596 162.771 157.32 162.288 157.665L118.542 184.575C117.99 184.92 117.645 185.61 117.645 186.231Z" fill="#E0E0E0"/>
<path d="M117.645 192.993V194.097C117.645 194.718 118.059 194.925 118.542 194.649L162.219 167.808C162.702 167.532 163.116 166.773 163.116 166.152V165.048C163.116 164.427 162.702 164.151 162.219 164.496L118.542 191.337C117.99 191.613 117.645 192.372 117.645 192.993Z" fill="#E0E0E0"/>
<path d="M99.1533 218.661L111.435 211.14L111.366 226.596L99.1533 234.117V218.661Z" fill="#FAFAFA"/>
<path d="M99.7051 219.006V233.22L110.883 226.32V212.106L99.7051 219.006ZM99.1531 234.669C99.0841 234.669 98.9461 234.669 98.8771 234.6C98.7391 234.531 98.6011 234.324 98.6011 234.117V218.661C98.6011 218.454 98.6701 218.316 98.8771 218.178L111.09 210.588C111.228 210.519 111.435 210.519 111.573 210.588C111.711 210.657 111.849 210.864 111.849 211.071V226.596C111.849 226.803 111.78 226.941 111.573 227.079L99.4291 234.6C99.3601 234.669 99.2911 234.669 99.1531 234.669Z" fill="#0E549D"/>
<path d="M117.576 207.897V209.001C117.576 209.622 117.99 209.829 118.473 209.553L162.081 182.781C162.564 182.505 162.978 181.746 162.978 181.125V180.021C162.978 179.4 162.564 179.124 162.081 179.469L118.473 206.241C117.99 206.586 117.576 207.276 117.576 207.897Z" fill="#E0E0E0"/>
<path d="M117.576 214.659V215.763C117.576 216.384 117.99 216.66 118.473 216.315L162.081 189.612C162.564 189.336 162.978 188.577 162.978 187.956V186.852C162.978 186.231 162.564 185.955 162.081 186.3L118.473 213.003C117.99 213.348 117.576 214.038 117.576 214.659Z" fill="#E0E0E0"/>
<path d="M117.576 221.421V222.525C117.576 223.146 117.99 223.422 118.473 223.077L162.012 196.443C162.495 196.167 162.909 195.408 162.909 194.787V193.683C162.909 193.062 162.495 192.786 162.012 193.131L118.404 219.834C117.921 220.041 117.576 220.8 117.576 221.421Z" fill="#E0E0E0"/>
</svg>
