<svg width="136" height="31" viewBox="0 0 136 31" fill="none" xmlns="http://www.w3.org/2000/svg">
<path d="M133.545 0.985229H106.635C105.784 0.985229 105.09 1.68217 105.09 2.53295V29.4406C105.09 30.2914 105.787 30.9852 106.635 30.9852H133.545C134.396 30.9852 135.09 30.2883 135.09 29.4406V2.53295C135.09 1.68217 134.393 0.985229 133.545 0.985229ZM125.486 6.57334L128.004 10.0643L125.005 14.2335L119.2 6.57334H125.486ZM114.569 6.57334L117.087 10.0643L114.088 14.2335L108.283 6.57334H114.569ZM107.85 25.5384L115.055 15.5143L115.049 15.508L118.026 11.3703L121.523 16.2552L114.647 25.5384H107.85ZM125.567 25.5384H118.767L125.972 15.5143L125.966 15.508L128.942 11.3703L132.44 16.2552L125.567 25.5384Z" fill="#00E5FF"/>
<path fill-rule="evenodd" clip-rule="evenodd" d="M14.3427 8.59203C13.1066 7.47755 11.4348 6.92188 9.33077 6.92188H0.690308V25.1146H4.4565V19.1686H9.33077C11.4541 19.1686 13.129 18.6098 14.3556 17.4985C15.5821 16.384 16.197 14.8959 16.197 13.0311C16.197 11.1852 15.5789 9.70337 14.3427 8.59203ZM11.643 15.0654C11.0986 15.5709 10.3268 15.8252 9.33077 15.8252H4.4565V10.259H9.33077C10.3268 10.259 11.0986 10.5102 11.643 11.0188C12.1874 11.5274 12.4597 12.196 12.4597 13.028C12.4597 13.8819 12.1874 14.56 11.643 15.0654ZM29.3531 25.1115H33.0072H33.0104V11.565H29.3563V12.6481C28.1361 11.6529 26.6149 11.1569 24.7862 11.1569C22.9768 11.1569 21.3947 11.8413 20.0369 13.2069C18.679 14.5726 18 16.2898 18 18.3524C18 20.415 18.6726 22.1259 20.0209 23.4822C21.3691 24.8415 22.9544 25.5196 24.783 25.5196C26.5925 25.5196 28.1169 25.0299 29.3531 24.0535V25.1115ZM29.3531 18.3524C29.3531 19.5454 28.9559 20.5186 28.1617 21.2689C27.3675 22.0192 26.4516 22.3959 25.4203 22.3959C24.293 22.3959 23.3675 22.0286 22.6373 21.2971C21.9071 20.5657 21.5421 19.583 21.5421 18.3524C21.5421 17.1249 21.9071 16.136 22.6373 15.3951C23.3675 14.651 24.293 14.2806 25.4203 14.2806C26.4548 14.2806 27.3675 14.6605 28.1617 15.4202C28.9559 16.1799 29.3531 17.1563 29.3531 18.3524ZM46.7141 19.5987L50.0927 20.4401C49.7052 21.9784 48.8694 23.209 47.5852 24.132C46.3009 25.055 44.831 25.5165 43.1689 25.5165C41.1 25.5165 39.3514 24.8478 37.9199 23.5073C36.4883 22.1667 35.7742 20.4495 35.7742 18.3492C35.7742 16.249 36.4916 14.5255 37.9199 13.1787C39.3514 11.8319 41.1 11.1569 43.1689 11.1569C44.7925 11.1569 46.2369 11.6153 47.5019 12.5288C48.7669 13.4424 49.6284 14.651 50.0927 16.1517L46.5764 17.1312C46.1152 15.3386 44.9783 14.4438 43.1721 14.4438C42.0287 14.4438 41.1 14.8049 40.389 15.5301C39.6781 16.2553 39.3226 17.194 39.3226 18.3524C39.3226 19.5108 39.6781 20.4464 40.389 21.1621C41.1 21.8779 42.0287 22.2327 43.1721 22.2327C44.9399 22.2327 46.1216 21.3568 46.7141 19.5987ZM71.079 19.3005H81.6025V18.0761C81.5289 16.0481 80.8147 14.3873 79.4568 13.0939C78.099 11.8005 76.4785 11.1538 74.5954 11.1538C72.581 11.1538 70.8868 11.8287 69.5129 13.1755C68.1391 14.5223 67.4505 16.2459 67.4505 18.3461C67.4505 20.4464 68.1327 22.1667 69.5001 23.5041C70.8676 24.8446 72.5458 25.5133 74.5409 25.5133C76.091 25.5133 77.4488 25.1617 78.6114 24.4554C79.7739 23.7521 80.6514 22.7099 81.2407 21.3348L77.9741 20.6567C77.2535 21.8528 76.1102 22.4493 74.5409 22.4493C73.6923 22.4493 72.9493 22.1667 72.312 21.5954C71.6747 21.024 71.2647 20.2611 71.079 19.3005ZM71.1911 16.7764C71.3928 15.979 71.822 15.3637 72.4785 14.9305C73.135 14.4972 73.8396 14.2806 74.5986 14.2775C75.3736 14.2775 76.0589 14.4847 76.6482 14.9022C77.2375 15.3197 77.6442 15.9445 77.8652 16.7764H71.1911ZM96.3919 12.7454C97.4071 13.8034 97.9163 15.1753 97.9163 16.858V25.1115H94.2622V17.6178C94.2622 16.6603 94.0092 15.888 93.5 15.3103C92.994 14.7295 92.3119 14.4407 91.4632 14.4407C89.1734 14.4407 88.0301 15.9978 88.0301 19.1121V25.1115H84.3728V11.565H88.0269V12.7863C89.1349 11.7 90.5825 11.1569 92.3759 11.1569C94.038 11.1569 95.3767 11.6875 96.3919 12.7454ZM56.5138 16.2898H56.5394V19.8185H56.5138V25.1115H52.8597V6.92188H56.5138V16.2898ZM60.2384 13.5052L61.9774 11.1286L66.0382 11.1192L62.1791 16.1391L60.2384 13.5052ZM56.9622 18.1515L62.2528 25.1178L66.7588 25.1052L61.3625 17.7904L61.1895 17.5424L59.284 14.9556L56.9622 18.1515Z" fill="white"/>
</svg>
