<svg width="180" height="41" viewBox="0 0 180 41" fill="none" xmlns="http://www.w3.org/2000/svg">
<path d="M177.14 0.985229H141.259C140.125 0.985229 139.2 1.91449 139.2 3.04885V38.9258C139.2 40.0602 140.129 40.9852 141.259 40.9852H177.14C178.274 40.9852 179.2 40.056 179.2 38.9258V3.04885C179.2 1.91449 178.27 0.985229 177.14 0.985229ZM166.394 8.43605L169.751 13.0907L165.753 18.6495L158.013 8.43605H166.394ZM151.838 8.43605L155.195 13.0907L151.197 18.6495L143.457 8.43605H151.838ZM142.879 33.7228L152.487 20.3574L152.478 20.349L156.447 14.832L161.111 21.3452L151.943 33.7228H142.879ZM166.503 33.7228H157.435L167.043 20.3574L167.034 20.349L171.003 14.832L175.666 21.3452L166.503 33.7228Z" fill="#00E5FF"/>
<path d="M11.5206 8.90063C14.326 8.90063 16.555 9.64153 18.2033 11.1275C19.8515 12.6093 20.6756 14.585 20.6756 17.0463C20.6756 19.5327 19.8558 21.5168 18.2203 23.0028C16.5849 24.4846 14.3517 25.2296 11.5206 25.2296H5.02159V33.1576H0V8.90063H11.5206ZM11.5206 20.7717C12.8486 20.7717 13.8777 20.4327 14.6036 19.7587C15.3295 19.0848 15.6925 18.1807 15.6925 17.0421C15.6925 15.9329 15.3295 15.0413 14.6036 14.3632C13.8777 13.6851 12.8486 13.3502 11.5206 13.3502H5.02159V20.7717H11.5206Z" fill="#1F3246"/>
<path d="M38.217 33.1535V31.7428C36.5688 33.0446 34.5362 33.6976 32.1236 33.6976C29.6854 33.6976 27.5718 32.7935 25.7741 30.981C23.9764 29.1727 23.0797 26.8914 23.0797 24.1413C23.0797 21.3912 23.9849 19.1016 25.7954 17.2807C27.6059 15.4599 29.7153 14.5473 32.1279 14.5473C34.5661 14.5473 36.5944 15.2087 38.2213 16.5356V15.0915H43.0934V33.1535H38.217ZM36.6285 28.03C37.6875 27.0296 38.217 25.7319 38.217 24.1413C38.217 22.5465 37.6875 21.2447 36.6285 20.2317C35.5696 19.2188 34.3526 18.7123 32.9734 18.7123C31.4703 18.7123 30.2363 19.2062 29.2627 20.1982C28.2891 21.1861 27.8023 22.5047 27.8023 24.1413C27.8023 25.7822 28.2891 27.0923 29.2627 28.0677C30.2363 29.043 31.4703 29.5327 32.9734 29.5327C34.3483 29.5327 35.5696 29.0304 36.6285 28.03Z" fill="#1F3246"/>
<path d="M61.365 25.8031L65.8699 26.9249C65.3532 28.976 64.2388 30.6168 62.5265 31.8475C60.8142 33.0781 58.8542 33.6934 56.6381 33.6934C53.8796 33.6934 51.5482 32.8018 49.6394 31.0145C47.7307 29.2271 46.7785 26.9375 46.7785 24.1371C46.7785 21.3368 47.735 19.0388 49.6394 17.243C51.5482 15.4473 53.8796 14.5473 56.6381 14.5473C58.803 14.5473 60.7288 15.1585 62.4154 16.3766C64.1021 17.5946 65.2508 19.2062 65.8699 21.207L61.1814 22.513C60.5665 20.1229 59.0506 18.9299 56.6423 18.9299C55.1179 18.9299 53.8796 19.4113 52.9317 20.3782C51.9837 21.3452 51.5097 22.5967 51.5097 24.1413C51.5097 25.6859 51.9837 26.9333 52.9317 27.8877C53.8796 28.842 55.1179 29.315 56.6423 29.315C58.9994 29.315 60.5751 28.1472 61.365 25.8031Z" fill="#1F3246"/>
<path d="M107.883 25.4054H93.8516C94.0992 26.6863 94.6458 27.7035 95.4956 28.4653C96.3453 29.2271 97.336 29.6039 98.4675 29.6039C100.56 29.6039 102.084 28.8085 103.045 27.2137L107.4 28.1179C106.615 29.9513 105.445 31.341 103.895 32.2786C102.345 33.2204 100.534 33.6892 98.4675 33.6892C95.8073 33.6892 93.5698 32.7977 91.7464 31.0103C89.9231 29.2271 89.0136 26.9333 89.0136 24.1329C89.0136 21.3326 89.9317 19.0346 91.7635 17.2389C93.5954 15.4431 95.8542 14.5432 98.5401 14.5432C101.051 14.5432 103.212 15.4054 105.022 17.13C106.833 18.8546 107.785 21.0689 107.883 23.773V25.4054ZM95.7176 19.5787C94.8422 20.1564 94.27 20.9768 94.001 22.04H102.9C102.605 20.9308 102.063 20.0978 101.277 19.5411C100.492 18.9844 99.5777 18.7081 98.5444 18.7081C97.5324 18.7123 96.593 19.0011 95.7176 19.5787Z" fill="#1F3246"/>
<path d="M127.602 16.6654C128.956 18.076 129.635 19.9052 129.635 22.1489V33.1535H124.763V23.1618C124.763 21.8851 124.425 20.8554 123.746 20.0852C123.072 19.3108 122.162 18.9257 121.031 18.9257C117.977 18.9257 116.453 21.0019 116.453 25.1543V33.1535H111.577V15.0915H116.449V16.7198C117.926 15.2715 119.856 14.5473 122.247 14.5473C124.464 14.5473 126.249 15.2548 127.602 16.6654Z" fill="#1F3246"/>
<path d="M74.4655 21.3912H74.4313V8.90063H69.5592V33.1535H74.4313V26.0961H74.4655V21.3912Z" fill="#1F3246"/>
<path d="M79.3975 17.6784L81.7161 14.5097L87.1305 14.4971L81.9851 21.1903L79.3975 17.6784Z" fill="#1F3246"/>
<path d="M82.0833 33.1618L75.0292 23.8734L78.125 19.6122L80.6656 23.0614L80.8962 23.392L88.0913 33.1451L82.0833 33.1618Z" fill="#1F3246"/>
</svg>
