<svg width="17" height="15" viewBox="0 0 17 15" fill="none" xmlns="http://www.w3.org/2000/svg">
<path fill-rule="evenodd" clip-rule="evenodd" d="M15.549 6.86816H3.68395L7.31695 2.50816C7.67095 2.08416 7.61295 1.45316 7.18895 1.10016C6.76395 0.746165 6.13395 0.804165 5.78095 1.22816L0.78095 7.22816C0.74195 7.27516 0.72195 7.33016 0.69295 7.38216C0.66895 7.42416 0.63995 7.46016 0.62195 7.50616C0.57695 7.62116 0.54995 7.74216 0.54995 7.86416C0.54995 7.86516 0.54895 7.86716 0.54895 7.86816C0.54895 7.86916 0.54995 7.87116 0.54995 7.87216C0.54995 7.99416 0.57695 8.11516 0.62195 8.23016C0.63995 8.27616 0.66895 8.31216 0.69295 8.35416C0.72195 8.40616 0.74195 8.46116 0.78095 8.50816L5.78095 14.5082C5.97895 14.7452 6.26295 14.8682 6.54895 14.8682C6.77495 14.8682 7.00195 14.7922 7.18895 14.6362C7.61295 14.2832 7.67095 13.6522 7.31695 13.2282L3.68395 8.86816H15.549C16.101 8.86816 16.549 8.42016 16.549 7.86816C16.549 7.31616 16.101 6.86816 15.549 6.86816Z" fill="#00B3DB"/>
</svg>
