<svg width="24" height="21" viewBox="0 0 24 21" fill="none" xmlns="http://www.w3.org/2000/svg">
<path fill-rule="evenodd" clip-rule="evenodd" d="M23.1144 3.78263C22.5831 3.25123 21.8493 2.93722 21.0143 2.93722H16.9945V2.88891C16.9945 2.28504 16.7415 1.70533 16.3113 1.31886C15.8812 0.908233 15.2992 0.666687 14.6667 0.666687H9.30803C8.65017 0.666687 8.06821 0.908233 7.63807 1.31886C7.20793 1.72949 6.95491 2.28504 6.95491 2.88891V2.93722H2.98568C2.15071 2.93722 1.41694 3.25123 0.885584 3.78263C0.354234 4.28987 0 5.01451 0 5.78746V17.8164C0 18.6135 0.328931 19.314 0.885584 19.8213C1.41694 20.3285 2.17601 20.6667 2.98568 20.6667H21.0143C21.8493 20.6667 22.5831 20.3527 23.1144 19.8213C23.6458 19.314 24 18.5894 24 17.8164V5.78746C24 4.99036 23.6711 4.28987 23.1144 3.78263ZM15.777 15.1111C14.8049 16.0556 13.4716 16.6667 11.9995 16.6667C10.5274 16.6667 9.19423 16.0556 8.22209 15.1111C7.24995 14.1389 6.66667 12.8056 6.66667 11.3334C6.66667 9.86113 7.27773 8.5278 8.22209 7.55557C9.19423 6.58335 10.5274 6.00002 11.9995 6.00002C13.4716 6.00002 14.8049 6.61113 15.777 7.55557C16.7491 8.5278 17.3324 9.86113 17.3324 11.3334C17.3602 12.8056 16.7491 14.1389 15.777 15.1111ZM20 7.33335C20.7364 7.33335 21.3333 6.7364 21.3333 6.00002C21.3333 5.26364 20.7364 4.66669 20 4.66669C19.2636 4.66669 18.6667 5.26364 18.6667 6.00002C18.6667 6.7364 19.2636 7.33335 20 7.33335Z" fill="#00B3DB"/>
</svg>
