<svg width="22" height="22" viewBox="0 0 22 22" fill="none" xmlns="http://www.w3.org/2000/svg">
<path fill-rule="evenodd" clip-rule="evenodd" d="M13.8849 7.15414L9.84868 12.4544L8.10681 10.2293C7.74415 9.76427 7.07215 9.6832 6.60921 10.0469C6.14521 10.4096 6.06308 11.0805 6.42681 11.5435L9.01988 14.8576C9.22255 15.1157 9.53188 15.2661 9.86041 15.2661H9.86788C10.1975 15.2651 10.5089 15.1093 10.7084 14.8459L15.582 8.44587C15.9393 7.97654 15.8487 7.3088 15.3793 6.95147C14.9089 6.59414 14.2412 6.68587 13.8849 7.15414ZM11 19.5333C6.29497 19.5333 2.46671 15.7051 2.46671 11C2.46671 6.29494 6.29497 2.46667 11 2.46667C15.7051 2.46667 19.5334 6.29494 19.5334 11C19.5334 15.7051 15.7051 19.5333 11 19.5333ZM11 0.333336C5.10884 0.333336 0.333374 5.10987 0.333374 11C0.333374 16.8901 5.10884 21.6667 11 21.6667C16.8912 21.6667 21.6667 16.8901 21.6667 11C21.6667 5.10987 16.8912 0.333336 11 0.333336Z" fill="#20D292"/>
</svg>
