<svg width="24" height="23" viewBox="0 0 24 23" fill="none" xmlns="http://www.w3.org/2000/svg">
<g clip-path="url(#clip0)">
<path d="M21.561 4.47754H2.53674C1.44072 4.47754 0.54895 5.33054 0.54895 6.37907V17.3443C0.54895 18.3929 1.44072 19.2459 2.53674 19.2459H21.561C22.6572 19.2459 23.549 18.3929 23.549 17.3443V6.37907C23.549 5.33054 22.6572 4.47754 21.561 4.47754V4.47754ZM22.8658 17.3443C22.8658 18.0325 22.2804 18.5924 21.561 18.5924H2.53674C1.81747 18.5924 1.23208 18.0325 1.23208 17.3443V6.37907C1.23208 5.6909 1.81747 5.13097 2.53674 5.13097H21.561C22.2804 5.13097 22.8658 5.6909 22.8658 6.37907V17.3443Z" fill="#556D87"/>
<path d="M10.7738 7.09143H2.8491C2.66046 7.09143 2.50745 7.23763 2.50745 7.41823V8.20224C2.50745 8.38267 2.66046 8.52887 2.8491 8.52887C3.03773 8.52887 3.19075 8.38267 3.19075 8.20224V7.74486H10.4323V15.7172H3.19075V9.50926C3.19075 9.32883 3.03773 9.18246 2.8491 9.18246C2.66046 9.18246 2.50745 9.32883 2.50745 9.50926V16.0439C2.50745 16.2243 2.66046 16.3707 2.8491 16.3707H10.7738C10.9624 16.3707 11.1154 16.2243 11.1154 16.0439V7.41823C11.1154 7.23763 10.9624 7.09143 10.7738 7.09143Z" fill="#556D87"/>
<path d="M21.3402 7.84906H12.7778C12.5892 7.84906 12.4362 7.99542 12.4362 8.17586C12.4362 8.35629 12.5892 8.50249 12.7778 8.50249H21.3402C21.5288 8.50249 21.6816 8.35629 21.6816 8.17586C21.6816 7.99542 21.5288 7.84906 21.3402 7.84906Z" fill="#556D87"/>
<path d="M21.3403 10.2192H19.4274C19.2388 10.2192 19.0859 10.3654 19.0859 10.5459C19.0859 10.7263 19.2388 10.8727 19.4274 10.8727H21.3403C21.5289 10.8727 21.6818 10.7263 21.6818 10.5459C21.6818 10.3654 21.5289 10.2192 21.3403 10.2192Z" fill="#556D87"/>
<path d="M12.7778 10.8727H18.0609C18.2495 10.8727 18.4025 10.7263 18.4025 10.5459C18.4025 10.3654 18.2495 10.2192 18.0609 10.2192H12.7778C12.5892 10.2192 12.4362 10.3654 12.4362 10.5459C12.4362 10.7263 12.5892 10.8727 12.7778 10.8727Z" fill="#556D87"/>
<path d="M21.3402 12.5894H12.7778C12.5892 12.5894 12.4362 12.7356 12.4362 12.916C12.4362 13.0965 12.5892 13.2428 12.7778 13.2428H21.3402C21.5288 13.2428 21.6816 13.0965 21.6816 12.916C21.6816 12.7356 21.5288 12.5894 21.3402 12.5894Z" fill="#556D87"/>
<path d="M17.4234 14.9595H12.7778C12.5892 14.9595 12.4362 15.1057 12.4362 15.2862C12.4362 15.4666 12.5892 15.613 12.7778 15.613H17.4234C17.612 15.613 17.7648 15.4666 17.7648 15.2862C17.7648 15.1057 17.612 14.9595 17.4234 14.9595Z" fill="#556D87"/>
<path d="M4.42029 14.9983C4.42029 15.1787 4.5733 15.3249 4.76194 15.3249C4.95058 15.3249 5.10359 15.1787 5.10359 14.9983C5.10359 14.0975 5.86972 13.3646 6.8115 13.3646C7.75328 13.3646 8.51941 14.0975 8.51941 14.9983C8.51941 15.1787 8.67225 15.3249 8.86088 15.3249C9.04952 15.3249 9.20254 15.1787 9.20254 14.9983C9.20254 14.1671 8.73665 13.4383 8.04159 13.0378C8.73665 12.6374 9.20254 11.9086 9.20254 11.0774C9.20254 9.81636 8.12985 8.79031 6.8115 8.79031C5.49297 8.79031 4.42029 9.81636 4.42029 11.0774C4.42029 11.9086 4.88635 12.6374 5.58141 13.0378C4.88635 13.4383 4.42029 14.1671 4.42029 14.9983ZM5.10359 11.0774C5.10359 10.1766 5.86972 9.44374 6.8115 9.44374C7.75328 9.44374 8.51941 10.1766 8.51941 11.0774C8.51941 11.9782 7.75328 12.711 6.8115 12.711C5.86972 12.711 5.10359 11.9782 5.10359 11.0774Z" fill="#556D87"/>
</g>
<defs>
<clipPath id="clip0">
<rect x="0.54895" y="0.868164" width="23" height="22" fill="white"/>
</clipPath>
</defs>
</svg>
