<svg width="24" height="23" viewBox="0 0 24 23" fill="none" xmlns="http://www.w3.org/2000/svg">
<g clip-path="url(#clip0)">
<path d="M21.561 4.47754H2.53674C1.44072 4.47754 0.54895 5.33054 0.54895 6.37907V17.3443C0.54895 18.3929 1.44072 19.2459 2.53674 19.2459H21.561C22.6572 19.2459 23.549 18.3929 23.549 17.3443V6.37907C23.549 5.33054 22.6572 4.47754 21.561 4.47754V4.47754ZM22.8658 17.3443C22.8658 18.0325 22.2804 18.5924 21.561 18.5924H2.53674C1.81747 18.5924 1.23208 18.0325 1.23208 17.3443V6.37907C1.23208 5.6909 1.81747 5.13097 2.53674 5.13097H21.561C22.2804 5.13097 22.8658 5.6909 22.8658 6.37907V17.3443Z" fill="#556D87"/>
<path d="M21.0027 7.84912H3.97919C3.60415 7.84912 3.29993 7.99548 3.29993 8.17592C3.29993 8.35635 3.60415 8.50255 3.97919 8.50255H21.0027C21.3777 8.50255 21.6816 8.35635 21.6816 8.17592C21.6816 7.99548 21.3777 7.84912 21.0027 7.84912Z" fill="#556D87"/>
<path d="M21.0027 10.2192H17.1995C16.8245 10.2192 16.5206 10.3654 16.5206 10.5459C16.5206 10.7263 16.8245 10.8727 17.1995 10.8727H21.0027C21.3777 10.8727 21.6816 10.7263 21.6816 10.5459C21.6816 10.3654 21.3777 10.2192 21.0027 10.2192Z" fill="#556D87"/>
<path d="M3.97919 10.8727H14.4828C14.8579 10.8727 15.1621 10.7263 15.1621 10.5459C15.1621 10.3654 14.8579 10.2192 14.4828 10.2192H3.97919C3.60415 10.2192 3.29993 10.3654 3.29993 10.5459C3.29993 10.7263 3.60415 10.8727 3.97919 10.8727Z" fill="#556D87"/>
<path d="M21.0027 12.5894H3.97919C3.60415 12.5894 3.29993 12.7355 3.29993 12.916C3.29993 13.0964 3.60415 13.2428 3.97919 13.2428H21.0027C21.3777 13.2428 21.6816 13.0964 21.6816 12.916C21.6816 12.7355 21.3777 12.5894 21.0027 12.5894Z" fill="#556D87"/>
<path d="M8.8418 16.6819L8.8418 15.0777C8.8418 15.0126 8.67098 14.9597 8.46017 14.9597C8.24935 14.9597 8.07834 15.0126 8.07834 15.0777L8.07834 16.6819C8.07834 16.747 8.24935 16.7998 8.46017 16.7998C8.67098 16.7998 8.8418 16.747 8.8418 16.6819Z" fill="#556D87"/>
<path d="M10.0381 16.6819L10.0381 15.0777C10.0381 15.0126 9.86727 14.9597 9.65645 14.9597C9.44564 14.9597 9.27463 15.0126 9.27463 15.0777L9.27463 16.6819C9.27463 16.747 9.44564 16.7998 9.65645 16.7998C9.86727 16.7998 10.0381 16.747 10.0381 16.6819Z" fill="#556D87"/>
<path d="M11.2344 16.6819L11.2344 15.0777C11.2344 15.0126 11.0636 14.9597 10.8527 14.9597C10.6419 14.9597 10.4709 15.0126 10.4709 15.0777L10.4709 16.6819C10.4709 16.747 10.6419 16.7998 10.8527 16.7998C11.0636 16.7998 11.2344 16.747 11.2344 16.6819Z" fill="#556D87"/>
<path d="M12.4307 16.6819L12.4307 15.0777C12.4307 15.0126 12.2599 14.9597 12.049 14.9597C11.8382 14.9597 11.6672 15.0126 11.6672 15.0777L11.6672 16.6819C11.6672 16.747 11.8382 16.7998 12.049 16.7998C12.2599 16.7998 12.4307 16.747 12.4307 16.6819Z" fill="#556D87"/>
<path d="M13.627 16.6819L13.627 15.0777C13.627 15.0126 13.4561 14.9597 13.2453 14.9597C13.0345 14.9597 12.8635 15.0126 12.8635 15.0777L12.8635 16.6819C12.8635 16.747 13.0345 16.7998 13.2453 16.7998C13.4561 16.7998 13.627 16.747 13.627 16.6819Z" fill="#556D87"/>
<path d="M14.8232 16.6819L14.8232 15.0777C14.8232 15.0126 14.6524 14.9597 14.4416 14.9597C14.2308 14.9597 14.0598 15.0126 14.0598 15.0777L14.0598 16.6819C14.0598 16.747 14.2308 16.7998 14.4416 16.7998C14.6524 16.7998 14.8232 16.747 14.8232 16.6819Z" fill="#556D87"/>
<path d="M16.0195 16.6819L16.0195 15.0777C16.0195 15.0126 15.8487 14.9597 15.6379 14.9597C15.4271 14.9597 15.2561 15.0126 15.2561 15.0777L15.2561 16.6819C15.2561 16.747 15.4271 16.7998 15.6379 16.7998C15.8487 16.7998 16.0195 16.747 16.0195 16.6819Z" fill="#556D87"/>
</g>
<defs>
<clipPath id="clip0">
<rect x="0.54895" y="0.868164" width="23" height="22" fill="white"/>
</clipPath>
</defs>
</svg>
