<svg width="25" height="24" viewBox="0 0 25 24" fill="none" xmlns="http://www.w3.org/2000/svg">
<g clip-path="url(#clip0)">
<path d="M22.0025 18.2626C21.9764 18.2626 21.9764 18.2876 21.9502 18.3127C21.9241 18.3377 21.9241 18.3627 21.898 18.3878L17.4062 23.218C17.3801 23.243 17.3278 23.2681 17.3017 23.2931C17.2756 23.2931 17.2756 23.3181 17.2495 23.3181C17.1972 23.3431 17.1189 23.3682 17.0406 23.3682H6.01988C4.40073 23.3682 3.06885 22.0918 3.06885 20.5401V3.19624C3.06885 1.64455 4.40073 0.368164 6.01988 0.368164H19.0776C20.6967 0.368164 22.0286 1.64455 22.0286 3.19624V18.0874C22.0286 18.1375 22.0025 18.2126 22.0025 18.2626ZM17.5367 21.6663L20.4356 18.5379H17.5367V21.6663ZM21.0362 3.22127C21.0362 2.17012 20.1744 1.3192 19.0776 1.3192H6.01988C4.92304 1.3192 4.06123 2.17012 4.06123 3.19624V20.5651C4.06123 21.6163 4.94915 22.4422 6.01988 22.4422H16.5444V18.0874C16.5444 17.8372 16.7533 17.6119 17.0406 17.6119H21.0362V3.22127Z" fill="#556D87"/>
<path d="M6.59434 17.612H10.9556C11.2168 17.612 11.4518 17.8122 11.4518 18.0875C11.4518 18.3628 11.2429 18.563 10.9556 18.563H6.59434C6.33318 18.563 6.09814 18.3628 6.09814 18.0875C6.09814 17.8122 6.33318 17.612 6.59434 17.612Z" fill="#556D87"/>
<path d="M10.9556 6.12439H6.59434C6.33318 6.12439 6.09814 5.92417 6.09814 5.64887C6.09814 5.3986 6.30707 5.17336 6.59434 5.17336H10.9556C11.2168 5.17336 11.4518 5.37357 11.4518 5.64887C11.4518 5.89914 11.2168 6.12439 10.9556 6.12439Z" fill="#556D87"/>
<path d="M6.09814 14.934C6.09814 14.6838 6.30707 14.4585 6.59434 14.4585H18.2418C18.5029 14.4585 18.738 14.6587 18.738 14.934C18.738 15.1843 18.529 15.4095 18.2418 15.4095H6.59434C6.33318 15.4095 6.09814 15.2093 6.09814 14.934Z" fill="#556D87"/>
<path d="M18.2418 13.0569H6.59434C6.33318 13.0569 6.09814 12.8567 6.09814 12.5814C6.09814 12.3312 6.30707 12.1059 6.59434 12.1059H18.2418C18.5029 12.1059 18.738 12.3061 18.738 12.5814C18.738 12.8567 18.529 13.0569 18.2418 13.0569Z" fill="#556D87"/>
<path d="M18.2418 10.7295H6.59434C6.33318 10.7295 6.09814 10.5293 6.09814 10.254C6.09814 10.0037 6.30707 9.77846 6.59434 9.77846H18.2418C18.5029 9.77846 18.738 9.97868 18.738 10.254C18.738 10.5293 18.529 10.7295 18.2418 10.7295Z" fill="#556D87"/>
<path d="M18.2418 8.40192H6.59434C6.33318 8.40192 6.09814 8.2017 6.09814 7.9264C6.09814 7.67613 6.30707 7.45089 6.59434 7.45089H18.2418C18.5029 7.45089 18.738 7.6511 18.738 7.9264C18.738 8.17667 18.529 8.40192 18.2418 8.40192Z" fill="#556D87"/>
</g>
<defs>
<clipPath id="clip0">
<rect width="24" height="23" transform="matrix(1 0 0 -1 0.548828 23.3682)" fill="white"/>
</clipPath>
</defs>
</svg>
