<svg width="24" height="24" viewBox="0 0 24 24" fill="none" xmlns="http://www.w3.org/2000/svg">
<path fill-rule="evenodd" clip-rule="evenodd" d="M8.3253 9.42178L12.9458 10.3613C13.296 10.4316 13.5689 10.7045 13.64 11.0547L14.5787 15.6752L17.7058 6.29465L8.3253 9.42178ZM14.3707 20.0005C14.352 20.0005 14.3342 19.9996 14.3165 19.9987C13.9147 19.9747 13.5796 19.6832 13.4987 19.2894L12.0151 11.9854L4.71194 10.5009C4.31727 10.4209 4.02571 10.0858 4.00171 9.68401C3.97682 9.28223 4.22571 8.91423 4.60705 8.78711L18.8294 4.04664C19.1494 3.93819 19.5014 4.02263 19.7396 4.26086C19.9778 4.49908 20.0605 4.85109 19.9547 5.17109L15.2133 19.3934C15.0916 19.7579 14.7511 20.0005 14.3707 20.0005Z" fill="#556D87"/>
</svg>
