<svg width="21" height="21" viewBox="0 0 21 21" fill="none" xmlns="http://www.w3.org/2000/svg">
<path fill-rule="evenodd" clip-rule="evenodd" d="M14.6733 6.13908C13.4259 4.89022 11.767 4.20215 9.99968 4.20142C6.35791 4.20142 3.39404 7.1652 3.39258 10.8079C3.39209 11.9724 3.69629 13.1091 4.2745 14.1111L3.33716 17.5347L6.83968 16.616C7.80477 17.1424 8.89128 17.4198 9.99699 17.4202H9.99976C13.6411 17.4202 16.6053 14.4561 16.6067 10.8132C16.6074 9.04777 15.9208 7.38786 14.6733 6.13908ZM9.99968 16.3044H9.9974C9.01204 16.304 8.04565 16.0391 7.20239 15.5389L7.00195 15.4198L4.9235 15.9651L5.47827 13.9386L5.34766 13.7309C4.79793 12.8565 4.50765 11.8459 4.50814 10.8084C4.50928 7.7806 6.97282 5.3173 10.0019 5.3173C11.4687 5.31779 12.8475 5.88973 13.8843 6.92773C14.9211 7.96574 15.4917 9.34546 15.4912 10.8128C15.4899 13.8408 13.0265 16.3044 9.99968 16.3044ZM13.0119 12.1915C12.8468 12.1088 12.0352 11.7096 11.8838 11.6544C11.7326 11.5993 11.6224 11.5719 11.5125 11.7371C11.4023 11.9023 11.086 12.2742 10.9897 12.3843C10.8933 12.4945 10.7971 12.5083 10.632 12.4256C10.4669 12.343 9.93498 12.1686 9.30436 11.6062C8.81364 11.1685 8.48234 10.6278 8.38599 10.4626C8.2898 10.2973 8.38517 10.2166 8.45842 10.1257C8.63713 9.90381 8.81608 9.67114 8.87109 9.56104C8.92619 9.45085 8.8986 9.35441 8.85726 9.27181C8.81608 9.18921 8.48592 8.37663 8.34839 8.04598C8.21427 7.7242 8.07829 7.76766 7.97689 7.76261C7.8807 7.75781 7.77059 7.75684 7.66048 7.75684C7.55046 7.75684 7.37158 7.7981 7.22022 7.96346C7.06893 8.12874 6.6425 8.52808 6.6425 9.34066C6.6425 10.1532 7.23405 10.9382 7.31657 11.0484C7.39909 11.1586 8.48071 12.8261 10.1367 13.5411C10.5306 13.7113 10.8381 13.8128 11.0779 13.8889C11.4734 14.0146 11.8332 13.9968 12.1177 13.9543C12.4349 13.9069 13.0943 13.5549 13.232 13.1694C13.3695 12.7837 13.3695 12.4532 13.3282 12.3843C13.287 12.3154 13.1769 12.2742 13.0119 12.1915Z" fill="#222B45"/>
</svg>
