<svg width="14" height="14" viewBox="0 0 14 14" fill="none" xmlns="http://www.w3.org/2000/svg">
<path fill-rule="evenodd" clip-rule="evenodd" d="M11.7185 2.13918C10.4711 0.890315 8.81218 0.202246 7.04484 0.201513C3.40308 0.201513 0.439209 3.1653 0.437744 6.80804C0.437256 7.97251 0.741455 9.10923 1.31966 10.1112L0.382324 13.5348L3.88485 12.6161C4.84994 13.1425 5.93644 13.4199 7.04216 13.4203H7.04492C10.6863 13.4203 13.6505 10.4562 13.6519 6.81333C13.6526 5.04787 12.966 3.38796 11.7185 2.13918ZM7.04484 12.3045H7.04256C6.05721 12.3041 5.09082 12.0392 4.24756 11.539L4.04712 11.4199L1.96867 11.9652L2.52344 9.93874L2.39282 9.73097C1.8431 8.85662 1.55282 7.84605 1.5533 6.80845C1.55444 3.7807 4.01799 1.3174 7.04704 1.3174C8.51383 1.31789 9.89266 1.88983 10.9294 2.92783C11.9662 3.96584 12.5369 5.34556 12.5364 6.81292C12.5351 9.84092 10.0717 12.3045 7.04484 12.3045ZM10.057 8.19159C9.89201 8.1089 9.08032 7.70965 8.92896 7.65448C8.77775 7.59938 8.66756 7.57196 8.55762 7.73716C8.44751 7.90236 8.13119 8.27427 8.03483 8.38437C7.93848 8.49456 7.84229 8.5084 7.67717 8.42572C7.51205 8.34311 6.98014 8.16872 6.34953 7.6063C5.85881 7.16855 5.52751 6.62795 5.43115 6.46274C5.33496 6.29738 5.43034 6.21665 5.50358 6.12583C5.68229 5.90391 5.86125 5.67124 5.91626 5.56113C5.97135 5.45094 5.94377 5.35451 5.90243 5.27191C5.86125 5.18931 5.53109 4.37672 5.39356 4.04608C5.25944 3.7243 5.12345 3.76776 5.02205 3.76271C4.92586 3.75791 4.81576 3.75693 4.70565 3.75693C4.59562 3.75693 4.41675 3.79819 4.26538 3.96356C4.1141 4.12884 3.68766 4.52817 3.68766 5.34075C3.68766 6.15334 4.27922 6.93833 4.36174 7.04852C4.44425 7.15871 5.52588 8.82619 7.18189 9.54119C7.57577 9.71144 7.88322 9.81292 8.12305 9.88901C8.51856 10.0147 8.87834 9.99692 9.16284 9.95444C9.48006 9.907 10.1395 9.55503 10.2772 9.16945C10.4147 8.78379 10.4147 8.4533 10.3734 8.38437C10.3322 8.31553 10.2221 8.27427 10.057 8.19159Z" fill="white"/>
</svg>
