<svg width="12" height="12" viewBox="0 0 12 12" fill="none" xmlns="http://www.w3.org/2000/svg">
<path fill-rule="evenodd" clip-rule="evenodd" d="M9.73557 2.21676C8.73765 1.21767 7.41051 0.667212 5.99664 0.666626C3.08323 0.666626 0.712134 3.03765 0.710962 5.95185C0.710571 6.88342 0.953931 7.7928 1.4165 8.59436L0.666626 11.3333L3.46864 10.5983C4.24071 11.0194 5.10992 11.2414 5.99449 11.2416H5.9967C8.90979 11.2416 11.2811 8.8704 11.2823 5.95608C11.2828 4.54371 10.7336 3.21578 9.73557 2.21676ZM5.99664 10.349H5.99482C5.20653 10.3487 4.43342 10.1368 3.75881 9.73661L3.59846 9.64137L1.9357 10.0776L2.37952 8.4564L2.27502 8.29019C1.83525 7.59071 1.60302 6.78225 1.60341 5.95217C1.60432 3.52997 3.57515 1.55933 5.9984 1.55933C7.17183 1.55972 8.27489 2.01728 9.10432 2.84768C9.93375 3.67808 10.3903 4.78186 10.3899 5.95575C10.3888 8.37815 8.41812 10.349 5.99664 10.349ZM8.4064 7.05868C8.27437 6.99254 7.62502 6.67314 7.50393 6.629C7.38297 6.58492 7.29482 6.56298 7.20686 6.69514C7.11877 6.8273 6.86571 7.12483 6.78863 7.21291C6.71155 7.30107 6.63459 7.31213 6.5025 7.24599C6.3704 7.17991 5.94488 7.04039 5.44039 6.59045C5.04781 6.24026 4.78277 5.80777 4.70569 5.67561C4.62874 5.54332 4.70504 5.47874 4.76363 5.40608C4.9066 5.22854 5.04976 5.04241 5.09377 4.95432C5.13785 4.86617 5.11578 4.78902 5.08271 4.72294C5.04976 4.65686 4.78564 4.0068 4.67561 3.74228C4.56832 3.48486 4.45953 3.51962 4.37841 3.51558C4.30146 3.51174 4.21337 3.51096 4.12528 3.51096C4.03726 3.51096 3.89416 3.54397 3.77307 3.67626C3.65204 3.80849 3.3109 4.12795 3.3109 4.77802C3.3109 5.42808 3.78414 6.05608 3.85015 6.14423C3.91617 6.23238 4.78147 7.56637 6.10627 8.13837C6.42138 8.27457 6.66734 8.35575 6.8592 8.41663C7.17561 8.51715 7.46344 8.50295 7.69104 8.46897C7.94482 8.43101 8.47235 8.14944 8.58251 7.84097C8.69254 7.53245 8.69254 7.26806 8.65946 7.21291C8.62652 7.15784 8.53844 7.12483 8.4064 7.05868Z" fill="#556D87"/>
</svg>
